solid Leg
facet normal -1.0 1.3848906613262993e-16 3.60416932922535e-18
  outer loop
    vertex 0.0 0.0 0.0
    vertex 0.0 15.999999999999998 7.5
    vertex 2.255973186038318e-14 170.0 0.0
  endloop
endfacet
facet normal -1.0 1.3848906613262993e-16 3.60416932922535e-18
  outer loop
    vertex 0.0 15.999999999999998 7.5
    vertex 0.0 0.0 0.0
    vertex 0.0 11.0 12.5
  endloop
endfacet
facet normal -1.0 1.3848906613262993e-16 3.60416932922535e-18
  outer loop
    vertex 0.0 11.0 12.5
    vertex 0.0 0.0 0.0
    vertex 0.0 7.502455612077836e-20 37.5
  endloop
endfacet
facet normal -1.0 1.3848906613262993e-16 3.60416932922535e-18
  outer loop
    vertex 0.0 11.0 12.5
    vertex 0.0 7.502455612077836e-20 37.5
    vertex 0.0 11.0 37.5
  endloop
endfacet
facet normal -1.0 1.3848906613262993e-16 3.60416932922535e-18
  outer loop
    vertex 2.255973186038318e-14 170.0 0.0
    vertex 0.0 15.999999999999998 7.5
    vertex 2.255973186038318e-14 170.0 7.5
  endloop
endfacet
facet normal -0.0 -0.0 1.0
  outer loop
    vertex 7.50000000000002 7.502455612077836e-20 37.5
    vertex 0.0 11.0 37.5
    vertex 0.0 7.502455612077836e-20 37.5
  endloop
endfacet
facet normal -0.0 -0.0 1.0
  outer loop
    vertex 0.0 11.0 37.5
    vertex 7.50000000000002 7.502455612077836e-20 37.5
    vertex 7.50000000000002 11.0 37.5
  endloop
endfacet
facet normal -1.0 0.0 0.0
  outer loop
    vertex 36.0 7.502455612077836e-20 7.500000000000002
    vertex 36.0 11.0 0.0
    vertex 36.0 0.0 3.524958103184872e-16
  endloop
endfacet
facet normal -1.0 0.0 0.0
  outer loop
    vertex 36.0 11.0 0.0
    vertex 36.0 7.502455612077836e-20 7.500000000000002
    vertex 36.0 11.0 7.500000000000002
  endloop
endfacet
facet normal -0.0 -0.0 1.0
  outer loop
    vertex 7.499999999999997 15.999999999999998 7.5
    vertex 2.255973186038318e-14 170.0 7.5
    vertex 0.0 15.999999999999998 7.5
  endloop
endfacet
facet normal -0.0 -0.0 1.0
  outer loop
    vertex 2.255973186038318e-14 170.0 7.5
    vertex 7.499999999999997 15.999999999999998 7.5
    vertex 1.45000000000002 160.0 7.5
  endloop
endfacet
facet normal -0.0 -0.0 1.0
  outer loop
    vertex 1.45000000000002 160.0 7.5
    vertex 7.499999999999997 15.999999999999998 7.5
    vertex 1.528370599535163 159.4047161962642 7.5
  endloop
endfacet
facet normal -0.0 -0.0 1.0
  outer loop
    vertex 1.528370599535163 159.4047161962642 7.5
    vertex 7.499999999999997 15.999999999999998 7.5
    vertex 1.7581415712958115 158.85 7.5
  endloop
endfacet
facet normal -0.0 -0.0 1.0
  outer loop
    vertex 1.7581415712958115 158.85 7.5
    vertex 7.499999999999997 15.999999999999998 7.5
    vertex 2.1236544032709608 158.37365440327093 7.5
  endloop
endfacet
facet normal -0.0 -0.0 1.0
  outer loop
    vertex 2.1236544032709608 158.37365440327093 7.5
    vertex 7.499999999999997 15.999999999999998 7.5
    vertex 2.6000000000000205 158.0081415712958 7.5
  endloop
endfacet
facet normal -0.0 -0.0 1.0
  outer loop
    vertex 2.6000000000000205 158.0081415712958 7.5
    vertex 7.499999999999997 15.999999999999998 7.5
    vertex 3.1547161962642227 157.77837059953512 7.5
  endloop
endfacet
facet normal -0.0 -0.0 1.0
  outer loop
    vertex 3.1547161962642227 157.77837059953512 7.5
    vertex 7.499999999999997 15.999999999999998 7.5
    vertex 3.75000000000002 157.70000000000002 7.5
  endloop
endfacet
facet normal -0.0 -0.0 1.0
  outer loop
    vertex 3.75000000000002 157.70000000000002 7.5
    vertex 7.499999999999997 15.999999999999998 7.5
    vertex 4.345283803735818 157.77837059953512 7.5
  endloop
endfacet
facet normal -0.0 -0.0 1.0
  outer loop
    vertex 4.345283803735818 157.77837059953512 7.5
    vertex 7.499999999999997 15.999999999999998 7.5
    vertex 4.90000000000002 158.0081415712958 7.5
  endloop
endfacet
facet normal -0.0 -0.0 1.0
  outer loop
    vertex 4.90000000000002 158.0081415712958 7.5
    vertex 7.499999999999997 15.999999999999998 7.5
    vertex 5.376345596729079 158.37365440327093 7.5
  endloop
endfacet
facet normal -0.0 -0.0 1.0
  outer loop
    vertex 5.376345596729079 158.37365440327093 7.5
    vertex 7.499999999999997 15.999999999999998 7.5
    vertex 5.741858428704229 158.85 7.5
  endloop
endfacet
facet normal -0.0 -0.0 1.0
  outer loop
    vertex 5.741858428704229 158.85 7.5
    vertex 7.499999999999997 15.999999999999998 7.5
    vertex 5.971629400464877 159.4047161962642 7.5
  endloop
endfacet
facet normal -0.0 -0.0 1.0
  outer loop
    vertex 5.971629400464877 159.4047161962642 7.5
    vertex 7.499999999999997 15.999999999999998 7.5
    vertex 6.05000000000002 160.0 7.5
  endloop
endfacet
facet normal -0.0 -0.0 1.0
  outer loop
    vertex 2.255973186038318e-14 170.0 7.5
    vertex 1.7581415712958108 161.15 7.5
    vertex 7.50000000000002 170.0 7.5
  endloop
endfacet
facet normal -0.0 -0.0 1.0
  outer loop
    vertex 1.7581415712958108 161.15 7.5
    vertex 2.255973186038318e-14 170.0 7.5
    vertex 1.5283705995351624 160.5952838037358 7.5
  endloop
endfacet
facet normal -0.0 -0.0 1.0
  outer loop
    vertex 1.5283705995351624 160.5952838037358 7.5
    vertex 2.255973186038318e-14 170.0 7.5
    vertex 1.45000000000002 160.0 7.5
  endloop
endfacet
facet normal -0.0 -0.0 1.0
  outer loop
    vertex 7.50000000000002 170.0 7.5
    vertex 1.7581415712958108 161.15 7.5
    vertex 2.1236544032709594 161.62634559672907 7.5
  endloop
endfacet
facet normal -0.0 -0.0 1.0
  outer loop
    vertex 7.50000000000002 170.0 7.5
    vertex 2.1236544032709594 161.62634559672907 7.5
    vertex 2.6000000000000187 161.9918584287042 7.5
  endloop
endfacet
facet normal -0.0 -0.0 1.0
  outer loop
    vertex 7.50000000000002 170.0 7.5
    vertex 2.6000000000000187 161.9918584287042 7.5
    vertex 3.1547161962642205 162.22162940046488 7.5
  endloop
endfacet
facet normal -0.0 -0.0 1.0
  outer loop
    vertex 7.50000000000002 170.0 7.5
    vertex 3.1547161962642205 162.22162940046488 7.5
    vertex 3.750000000000019 162.29999999999998 7.5
  endloop
endfacet
facet normal -0.0 -0.0 1.0
  outer loop
    vertex 7.50000000000002 170.0 7.5
    vertex 3.750000000000019 162.29999999999998 7.5
    vertex 4.345283803735817 162.22162940046488 7.5
  endloop
endfacet
facet normal -0.0 -0.0 1.0
  outer loop
    vertex 7.50000000000002 170.0 7.5
    vertex 4.345283803735817 162.22162940046488 7.5
    vertex 4.900000000000018 161.9918584287042 7.5
  endloop
endfacet
facet normal -0.0 -0.0 1.0
  outer loop
    vertex 7.50000000000002 170.0 7.5
    vertex 4.900000000000018 161.9918584287042 7.5
    vertex 5.376345596729079 161.62634559672907 7.5
  endloop
endfacet
facet normal -0.0 -0.0 1.0
  outer loop
    vertex 7.50000000000002 170.0 7.5
    vertex 5.376345596729079 161.62634559672907 7.5
    vertex 5.741858428704228 161.15 7.5
  endloop
endfacet
facet normal -0.0 -0.0 1.0
  outer loop
    vertex 7.50000000000002 170.0 7.5
    vertex 5.741858428704228 161.15 7.5
    vertex 5.9716294004648764 160.5952838037358 7.5
  endloop
endfacet
facet normal -0.0 -0.0 1.0
  outer loop
    vertex 7.50000000000002 170.0 7.5
    vertex 5.9716294004648764 160.5952838037358 7.5
    vertex 6.05000000000002 160.0 7.5
  endloop
endfacet
facet normal -0.0 -0.0 1.0
  outer loop
    vertex 7.50000000000002 170.0 7.5
    vertex 6.05000000000002 160.0 7.5
    vertex 7.499999999999997 15.999999999999998 7.5
  endloop
endfacet
facet normal 0.0 -1.0 0.0
  outer loop
    vertex 7.50000000000002 170.0 7.5
    vertex 2.255973186038318e-14 170.0 0.0
    vertex 7.50000000000002 170.0 0.0
  endloop
endfacet
facet normal 0.0 -1.0 0.0
  outer loop
    vertex 2.255973186038318e-14 170.0 0.0
    vertex 7.50000000000002 170.0 7.5
    vertex 2.255973186038318e-14 170.0 7.5
  endloop
endfacet
facet normal 5.699932251958516e-16 1.0 1.2219854757707554e-15
  outer loop
    vertex 12.5 11.000000000000004 7.5
    vertex 36.0 11.0 0.0
    vertex 12.5 11.000000000000021 0.0
  endloop
endfacet
facet normal 5.699932251958516e-16 1.0 1.2219854757707554e-15
  outer loop
    vertex 36.0 11.0 0.0
    vertex 12.5 11.000000000000004 7.5
    vertex 36.0 11.0 7.500000000000002
  endloop
endfacet
facet normal 3.8434792554990215e-22 -1.0 1.5649575774428656e-21
  outer loop
    vertex 0.0 0.0 0.0
    vertex 7.500000000000009 7.502455612077836e-20 12.5
    vertex 0.0 7.502455612077836e-20 37.5
  endloop
endfacet
facet normal 3.8434792554990215e-22 -1.0 1.5649575774428656e-21
  outer loop
    vertex 7.500000000000009 7.502455612077836e-20 12.5
    vertex 0.0 0.0 0.0
    vertex 12.500000000000023 7.502455612077836e-20 7.500000000000002
  endloop
endfacet
facet normal 3.8434792554990215e-22 -1.0 1.5649575774428656e-21
  outer loop
    vertex 12.500000000000023 7.502455612077836e-20 7.500000000000002
    vertex 0.0 0.0 0.0
    vertex 36.0 0.0 3.524958103184872e-16
  endloop
endfacet
facet normal 3.8434792554990215e-22 -1.0 1.5649575774428656e-21
  outer loop
    vertex 12.500000000000023 7.502455612077836e-20 7.500000000000002
    vertex 36.0 0.0 3.524958103184872e-16
    vertex 36.0 7.502455612077836e-20 7.500000000000002
  endloop
endfacet
facet normal 3.8434792554990215e-22 -1.0 1.5649575774428656e-21
  outer loop
    vertex 0.0 7.502455612077836e-20 37.5
    vertex 7.500000000000009 7.502455612077836e-20 12.5
    vertex 7.50000000000002 7.502455612077836e-20 37.5
  endloop
endfacet
facet normal 1.0 5.127211786450723e-16 -6.767919558114953e-16
  outer loop
    vertex 7.499999999999997 10.999999999999998 12.5
    vertex 7.50000000000002 7.502455612077836e-20 37.5
    vertex 7.500000000000009 7.502455612077836e-20 12.5
  endloop
endfacet
facet normal 1.0 5.127211786450723e-16 -6.767919558114953e-16
  outer loop
    vertex 7.50000000000002 7.502455612077836e-20 37.5
    vertex 7.499999999999997 10.999999999999998 12.5
    vertex 7.50000000000002 11.0 37.5
  endloop
endfacet
facet normal -2.999964343136064e-17 6.409014733063399e-17 1.0
  outer loop
    vertex 12.500000000000023 7.502455612077836e-20 7.500000000000002
    vertex 36.0 11.0 7.500000000000002
    vertex 12.5 11.000000000000004 7.5
  endloop
endfacet
facet normal -2.999964343136064e-17 6.409014733063399e-17 1.0
  outer loop
    vertex 36.0 11.0 7.500000000000002
    vertex 12.500000000000023 7.502455612077836e-20 7.500000000000002
    vertex 36.0 7.502455612077836e-20 7.500000000000002
  endloop
endfacet
facet normal 0.707106781186547 1.1118501072414257e-15 0.7071067811865481
  outer loop
    vertex 7.500000000000009 7.502455612077836e-20 12.5
    vertex 12.5 11.000000000000004 7.5
    vertex 7.499999999999997 10.999999999999998 12.5
  endloop
endfacet
facet normal 0.707106781186547 1.1118501072414257e-15 0.7071067811865481
  outer loop
    vertex 12.5 11.000000000000004 7.5
    vertex 7.500000000000009 7.502455612077836e-20 12.5
    vertex 12.500000000000023 7.502455612077836e-20 7.500000000000002
  endloop
endfacet
facet normal 0.7071067811865472 0.7071067811865479 1.9274393963650857e-15
  outer loop
    vertex 7.499999999999997 15.999999999999998 7.5
    vertex 12.5 11.000000000000021 0.0
    vertex 7.499999999999997 16.00000000000002 0.0
  endloop
endfacet
facet normal 0.7071067811865472 0.7071067811865479 1.9274393963650857e-15
  outer loop
    vertex 12.5 11.000000000000021 0.0
    vertex 7.499999999999997 15.999999999999998 7.5
    vertex 12.5 11.000000000000004 7.5
  endloop
endfacet
facet normal 1.0 -1.464917653271635e-16 -2.798076653886288e-31
  outer loop
    vertex 7.499999999999997 16.00000000000002 0.0
    vertex 7.50000000000002 170.0 7.5
    vertex 7.499999999999997 15.999999999999998 7.5
  endloop
endfacet
facet normal 1.0 -1.464917653271635e-16 -2.798076653886288e-31
  outer loop
    vertex 7.50000000000002 170.0 7.5
    vertex 7.499999999999997 16.00000000000002 0.0
    vertex 7.50000000000002 170.0 0.0
  endloop
endfacet
facet normal 0.5773502691896252 0.5773502691896261 0.5773502691896262
  outer loop
    vertex 12.5 11.000000000000004 7.5
    vertex 7.499999999999997 15.999999999999998 7.5
    vertex 7.499999999999997 10.999999999999998 12.5
  endloop
endfacet
facet normal 9.399888275159634e-17 1.0 -2.819966482547902e-17
  outer loop
    vertex 0.0 11.0 37.5
    vertex 7.499999999999997 10.999999999999998 12.5
    vertex 0.0 11.0 12.5
  endloop
endfacet
facet normal 9.399888275159634e-17 1.0 -2.819966482547902e-17
  outer loop
    vertex 7.499999999999997 10.999999999999998 12.5
    vertex 0.0 11.0 37.5
    vertex 7.50000000000002 11.0 37.5
  endloop
endfacet
facet normal 5.627560281357915e-17 0.7071067811865475 0.7071067811865476
  outer loop
    vertex 7.499999999999997 10.999999999999998 12.5
    vertex 0.0 15.999999999999998 7.5
    vertex 0.0 11.0 12.5
  endloop
endfacet
facet normal 5.627560281357915e-17 0.7071067811865475 0.7071067811865476
  outer loop
    vertex 0.0 15.999999999999998 7.5
    vertex 7.499999999999997 10.999999999999998 12.5
    vertex 7.499999999999997 15.999999999999998 7.5
  endloop
endfacet
facet normal -5.249247265423348e-18 2.5173983831695537e-20 1.0
  outer loop
    vertex 0.0 0.0 0.0
    vertex 7.499999999999997 16.00000000000002 0.0
    vertex 2.255973186038318e-14 170.0 0.0
  endloop
endfacet
facet normal -5.249247265423348e-18 2.5173983831695537e-20 1.0
  outer loop
    vertex 7.499999999999997 16.00000000000002 0.0
    vertex 0.0 0.0 0.0
    vertex 12.5 11.000000000000021 0.0
  endloop
endfacet
facet normal -5.249247265423348e-18 2.5173983831695537e-20 1.0
  outer loop
    vertex 12.5 11.000000000000021 0.0
    vertex 0.0 0.0 0.0
    vertex 36.0 0.0 3.524958103184872e-16
  endloop
endfacet
facet normal -5.249247265423348e-18 2.5173983831695537e-20 1.0
  outer loop
    vertex 2.255973186038318e-14 170.0 0.0
    vertex 7.499999999999997 16.00000000000002 0.0
    vertex 1.45000000000002 160.0 0.0
  endloop
endfacet
facet normal -5.249247265423348e-18 2.5173983831695537e-20 1.0
  outer loop
    vertex 1.45000000000002 160.0 0.0
    vertex 7.499999999999997 16.00000000000002 0.0
    vertex 1.528370599535163 159.4047161962642 0.0
  endloop
endfacet
facet normal -5.249247265423348e-18 2.5173983831695537e-20 1.0
  outer loop
    vertex 1.528370599535163 159.4047161962642 0.0
    vertex 7.499999999999997 16.00000000000002 0.0
    vertex 1.7581415712958115 158.85 0.0
  endloop
endfacet
facet normal -5.249247265423348e-18 2.5173983831695537e-20 1.0
  outer loop
    vertex 1.7581415712958115 158.85 0.0
    vertex 7.499999999999997 16.00000000000002 0.0
    vertex 2.1236544032709608 158.37365440327093 0.0
  endloop
endfacet
facet normal -5.249247265423348e-18 2.5173983831695537e-20 1.0
  outer loop
    vertex 2.1236544032709608 158.37365440327093 0.0
    vertex 7.499999999999997 16.00000000000002 0.0
    vertex 2.6000000000000205 158.0081415712958 0.0
  endloop
endfacet
facet normal -5.249247265423348e-18 2.5173983831695537e-20 1.0
  outer loop
    vertex 2.6000000000000205 158.0081415712958 0.0
    vertex 7.499999999999997 16.00000000000002 0.0
    vertex 3.1547161962642227 157.77837059953512 0.0
  endloop
endfacet
facet normal -5.249247265423348e-18 2.5173983831695537e-20 1.0
  outer loop
    vertex 3.1547161962642227 157.77837059953512 0.0
    vertex 7.499999999999997 16.00000000000002 0.0
    vertex 3.75000000000002 157.70000000000002 0.0
  endloop
endfacet
facet normal -5.249247265423348e-18 2.5173983831695537e-20 1.0
  outer loop
    vertex 3.75000000000002 157.70000000000002 0.0
    vertex 7.499999999999997 16.00000000000002 0.0
    vertex 4.345283803735818 157.77837059953512 0.0
  endloop
endfacet
facet normal -5.249247265423348e-18 2.5173983831695537e-20 1.0
  outer loop
    vertex 4.345283803735818 157.77837059953512 0.0
    vertex 7.499999999999997 16.00000000000002 0.0
    vertex 4.90000000000002 158.0081415712958 0.0
  endloop
endfacet
facet normal -5.249247265423348e-18 2.5173983831695537e-20 1.0
  outer loop
    vertex 4.90000000000002 158.0081415712958 0.0
    vertex 7.499999999999997 16.00000000000002 0.0
    vertex 5.376345596729079 158.37365440327093 0.0
  endloop
endfacet
facet normal -5.249247265423348e-18 2.5173983831695537e-20 1.0
  outer loop
    vertex 5.376345596729079 158.37365440327093 0.0
    vertex 7.499999999999997 16.00000000000002 0.0
    vertex 5.741858428704229 158.85 0.0
  endloop
endfacet
facet normal -5.249247265423348e-18 2.5173983831695537e-20 1.0
  outer loop
    vertex 5.741858428704229 158.85 0.0
    vertex 7.499999999999997 16.00000000000002 0.0
    vertex 5.971629400464877 159.4047161962642 0.0
  endloop
endfacet
facet normal -5.249247265423348e-18 2.5173983831695537e-20 1.0
  outer loop
    vertex 5.971629400464877 159.4047161962642 0.0
    vertex 7.499999999999997 16.00000000000002 0.0
    vertex 6.05000000000002 160.0 0.0
  endloop
endfacet
facet normal -5.249247265423348e-18 2.5173983831695537e-20 1.0
  outer loop
    vertex 12.5 11.000000000000021 0.0
    vertex 36.0 0.0 3.524958103184872e-16
    vertex 36.0 11.0 0.0
  endloop
endfacet
facet normal -5.249247265423348e-18 2.5173983831695537e-20 1.0
  outer loop
    vertex 2.255973186038318e-14 170.0 0.0
    vertex 1.7581415712958108 161.15 0.0
    vertex 7.50000000000002 170.0 0.0
  endloop
endfacet
facet normal -5.249247265423348e-18 2.5173983831695537e-20 1.0
  outer loop
    vertex 1.7581415712958108 161.15 0.0
    vertex 2.255973186038318e-14 170.0 0.0
    vertex 1.5283705995351624 160.5952838037358 0.0
  endloop
endfacet
facet normal -5.249247265423348e-18 2.5173983831695537e-20 1.0
  outer loop
    vertex 1.5283705995351624 160.5952838037358 0.0
    vertex 2.255973186038318e-14 170.0 0.0
    vertex 1.45000000000002 160.0 0.0
  endloop
endfacet
facet normal -5.249247265423348e-18 2.5173983831695537e-20 1.0
  outer loop
    vertex 7.50000000000002 170.0 0.0
    vertex 1.7581415712958108 161.15 0.0
    vertex 2.1236544032709594 161.62634559672907 0.0
  endloop
endfacet
facet normal -5.249247265423348e-18 2.5173983831695537e-20 1.0
  outer loop
    vertex 7.50000000000002 170.0 0.0
    vertex 2.1236544032709594 161.62634559672907 0.0
    vertex 2.6000000000000187 161.9918584287042 0.0
  endloop
endfacet
facet normal -5.249247265423348e-18 2.5173983831695537e-20 1.0
  outer loop
    vertex 7.50000000000002 170.0 0.0
    vertex 2.6000000000000187 161.9918584287042 0.0
    vertex 3.1547161962642205 162.22162940046488 0.0
  endloop
endfacet
facet normal -5.249247265423348e-18 2.5173983831695537e-20 1.0
  outer loop
    vertex 7.50000000000002 170.0 0.0
    vertex 3.1547161962642205 162.22162940046488 0.0
    vertex 3.750000000000019 162.29999999999998 0.0
  endloop
endfacet
facet normal -5.249247265423348e-18 2.5173983831695537e-20 1.0
  outer loop
    vertex 7.50000000000002 170.0 0.0
    vertex 3.750000000000019 162.29999999999998 0.0
    vertex 4.345283803735817 162.22162940046488 0.0
  endloop
endfacet
facet normal -5.249247265423348e-18 2.5173983831695537e-20 1.0
  outer loop
    vertex 7.50000000000002 170.0 0.0
    vertex 4.345283803735817 162.22162940046488 0.0
    vertex 4.900000000000018 161.9918584287042 0.0
  endloop
endfacet
facet normal -5.249247265423348e-18 2.5173983831695537e-20 1.0
  outer loop
    vertex 7.50000000000002 170.0 0.0
    vertex 4.900000000000018 161.9918584287042 0.0
    vertex 5.376345596729079 161.62634559672907 0.0
  endloop
endfacet
facet normal -5.249247265423348e-18 2.5173983831695537e-20 1.0
  outer loop
    vertex 7.50000000000002 170.0 0.0
    vertex 5.376345596729079 161.62634559672907 0.0
    vertex 5.741858428704228 161.15 0.0
  endloop
endfacet
facet normal -5.249247265423348e-18 2.5173983831695537e-20 1.0
  outer loop
    vertex 7.50000000000002 170.0 0.0
    vertex 5.741858428704228 161.15 0.0
    vertex 5.9716294004648764 160.5952838037358 0.0
  endloop
endfacet
facet normal -5.249247265423348e-18 2.5173983831695537e-20 1.0
  outer loop
    vertex 7.50000000000002 170.0 0.0
    vertex 5.9716294004648764 160.5952838037358 0.0
    vertex 6.05000000000002 160.0 0.0
  endloop
endfacet
facet normal -5.249247265423348e-18 2.5173983831695537e-20 1.0
  outer loop
    vertex 7.50000000000002 170.0 0.0
    vertex 6.05000000000002 160.0 0.0
    vertex 7.499999999999997 16.00000000000002 0.0
  endloop
endfacet
facet normal -0.9914448613738107 0.1305261922200491 -0.0
  outer loop
    vertex 6.05000000000002 160.0 7.5
    vertex 5.971629400464877 159.4047161962642 0.0
    vertex 5.971629400464877 159.4047161962642 7.5
  endloop
endfacet
facet normal -0.9914448613738107 0.1305261922200491 -0.0
  outer loop
    vertex 5.971629400464877 159.4047161962642 0.0
    vertex 6.05000000000002 160.0 7.5
    vertex 6.05000000000002 160.0 0.0
  endloop
endfacet
facet normal -0.9914448613738106 -0.13052619222005143 -0.0
  outer loop
    vertex 5.9716294004648764 160.5952838037358 7.5
    vertex 6.05000000000002 160.0 0.0
    vertex 6.05000000000002 160.0 7.5
  endloop
endfacet
facet normal -0.9914448613738106 -0.13052619222005143 -0.0
  outer loop
    vertex 6.05000000000002 160.0 0.0
    vertex 5.9716294004648764 160.5952838037358 7.5
    vertex 5.9716294004648764 160.5952838037358 0.0
  endloop
endfacet
facet normal -0.9238795325112872 -0.3826834323650889 -0.0
  outer loop
    vertex 5.741858428704228 161.15 7.5
    vertex 5.9716294004648764 160.5952838037358 0.0
    vertex 5.9716294004648764 160.5952838037358 7.5
  endloop
endfacet
facet normal -0.9238795325112872 -0.3826834323650889 -0.0
  outer loop
    vertex 5.9716294004648764 160.5952838037358 0.0
    vertex 5.741858428704228 161.15 7.5
    vertex 5.741858428704228 161.15 0.0
  endloop
endfacet
facet normal -0.7933533402912295 -0.6087614290087281 -0.0
  outer loop
    vertex 5.376345596729079 161.62634559672907 7.5
    vertex 5.741858428704228 161.15 0.0
    vertex 5.741858428704228 161.15 7.5
  endloop
endfacet
facet normal -0.7933533402912295 -0.6087614290087281 -0.0
  outer loop
    vertex 5.741858428704228 161.15 0.0
    vertex 5.376345596729079 161.62634559672907 7.5
    vertex 5.376345596729079 161.62634559672907 0.0
  endloop
endfacet
facet normal -0.608761429008727 -0.7933533402912303 -0.0
  outer loop
    vertex 5.376345596729079 161.62634559672907 7.5
    vertex 4.900000000000018 161.9918584287042 0.0
    vertex 5.376345596729079 161.62634559672907 0.0
  endloop
endfacet
facet normal -0.608761429008727 -0.7933533402912303 -0.0
  outer loop
    vertex 4.900000000000018 161.9918584287042 0.0
    vertex 5.376345596729079 161.62634559672907 7.5
    vertex 4.900000000000018 161.9918584287042 7.5
  endloop
endfacet
facet normal -0.3826834323650918 -0.9238795325112861 -0.0
  outer loop
    vertex 4.900000000000018 161.9918584287042 7.5
    vertex 4.345283803735817 162.22162940046488 0.0
    vertex 4.900000000000018 161.9918584287042 0.0
  endloop
endfacet
facet normal -0.3826834323650918 -0.9238795325112861 -0.0
  outer loop
    vertex 4.345283803735817 162.22162940046488 0.0
    vertex 4.900000000000018 161.9918584287042 7.5
    vertex 4.345283803735817 162.22162940046488 7.5
  endloop
endfacet
facet normal -0.13052619222003245 -0.9914448613738129 -0.0
  outer loop
    vertex 4.345283803735817 162.22162940046488 7.5
    vertex 3.750000000000019 162.29999999999998 0.0
    vertex 4.345283803735817 162.22162940046488 0.0
  endloop
endfacet
facet normal -0.13052619222003245 -0.9914448613738129 -0.0
  outer loop
    vertex 3.750000000000019 162.29999999999998 0.0
    vertex 4.345283803735817 162.22162940046488 7.5
    vertex 3.750000000000019 162.29999999999998 7.5
  endloop
endfacet
facet normal 0.13052619222003217 -0.9914448613738132 -0.0
  outer loop
    vertex 3.750000000000019 162.29999999999998 7.5
    vertex 3.1547161962642205 162.22162940046488 0.0
    vertex 3.750000000000019 162.29999999999998 0.0
  endloop
endfacet
facet normal 0.13052619222003217 -0.9914448613738132 -0.0
  outer loop
    vertex 3.1547161962642205 162.22162940046488 0.0
    vertex 3.750000000000019 162.29999999999998 7.5
    vertex 3.1547161962642205 162.22162940046488 7.5
  endloop
endfacet
facet normal 0.38268343236509195 -0.923879532511286 -0.0
  outer loop
    vertex 3.1547161962642205 162.22162940046488 7.5
    vertex 2.6000000000000187 161.9918584287042 0.0
    vertex 3.1547161962642205 162.22162940046488 0.0
  endloop
endfacet
facet normal 0.38268343236509195 -0.923879532511286 -0.0
  outer loop
    vertex 2.6000000000000187 161.9918584287042 0.0
    vertex 3.1547161962642205 162.22162940046488 7.5
    vertex 2.6000000000000187 161.9918584287042 7.5
  endloop
endfacet
facet normal 0.6087614290087279 -0.7933533402912298 -0.0
  outer loop
    vertex 2.6000000000000187 161.9918584287042 7.5
    vertex 2.1236544032709594 161.62634559672907 0.0
    vertex 2.6000000000000187 161.9918584287042 0.0
  endloop
endfacet
facet normal 0.6087614290087279 -0.7933533402912298 -0.0
  outer loop
    vertex 2.1236544032709594 161.62634559672907 0.0
    vertex 2.6000000000000187 161.9918584287042 7.5
    vertex 2.1236544032709594 161.62634559672907 7.5
  endloop
endfacet
facet normal 0.79335334029123 -0.6087614290087278 -0.0
  outer loop
    vertex 2.1236544032709594 161.62634559672907 0.0
    vertex 1.7581415712958108 161.15 7.5
    vertex 1.7581415712958108 161.15 0.0
  endloop
endfacet
facet normal 0.79335334029123 -0.6087614290087278 -0.0
  outer loop
    vertex 1.7581415712958108 161.15 7.5
    vertex 2.1236544032709594 161.62634559672907 0.0
    vertex 2.1236544032709594 161.62634559672907 7.5
  endloop
endfacet
facet normal 0.9238795325112871 -0.38268343236508945 -0.0
  outer loop
    vertex 1.7581415712958108 161.15 0.0
    vertex 1.5283705995351624 160.5952838037358 7.5
    vertex 1.5283705995351624 160.5952838037358 0.0
  endloop
endfacet
facet normal 0.9238795325112871 -0.38268343236508945 -0.0
  outer loop
    vertex 1.5283705995351624 160.5952838037358 7.5
    vertex 1.7581415712958108 161.15 0.0
    vertex 1.7581415712958108 161.15 7.5
  endloop
endfacet
facet normal 0.9914448613738107 -0.1305261922200491 -0.0
  outer loop
    vertex 1.5283705995351624 160.5952838037358 0.0
    vertex 1.45000000000002 160.0 7.5
    vertex 1.45000000000002 160.0 0.0
  endloop
endfacet
facet normal 0.9914448613738107 -0.1305261922200491 -0.0
  outer loop
    vertex 1.45000000000002 160.0 7.5
    vertex 1.5283705995351624 160.5952838037358 0.0
    vertex 1.5283705995351624 160.5952838037358 7.5
  endloop
endfacet
facet normal 0.9914448613738106 0.13052619222005024 0.0
  outer loop
    vertex 1.45000000000002 160.0 0.0
    vertex 1.528370599535163 159.4047161962642 7.5
    vertex 1.528370599535163 159.4047161962642 0.0
  endloop
endfacet
facet normal 0.9914448613738106 0.13052619222005024 0.0
  outer loop
    vertex 1.528370599535163 159.4047161962642 7.5
    vertex 1.45000000000002 160.0 0.0
    vertex 1.45000000000002 160.0 7.5
  endloop
endfacet
facet normal 0.9238795325112871 0.38268343236508945 0.0
  outer loop
    vertex 1.528370599535163 159.4047161962642 0.0
    vertex 1.7581415712958115 158.85 7.5
    vertex 1.7581415712958115 158.85 0.0
  endloop
endfacet
facet normal 0.9238795325112871 0.38268343236508945 0.0
  outer loop
    vertex 1.7581415712958115 158.85 7.5
    vertex 1.528370599535163 159.4047161962642 0.0
    vertex 1.528370599535163 159.4047161962642 7.5
  endloop
endfacet
facet normal 0.7933533402912295 0.6087614290087281 0.0
  outer loop
    vertex 1.7581415712958115 158.85 0.0
    vertex 2.1236544032709608 158.37365440327093 7.5
    vertex 2.1236544032709608 158.37365440327093 0.0
  endloop
endfacet
facet normal 0.7933533402912295 0.6087614290087281 0.0
  outer loop
    vertex 2.1236544032709608 158.37365440327093 7.5
    vertex 1.7581415712958115 158.85 0.0
    vertex 1.7581415712958115 158.85 7.5
  endloop
endfacet
facet normal 0.6087614290087272 0.7933533402912303 0.0
  outer loop
    vertex 2.1236544032709608 158.37365440327093 7.5
    vertex 2.6000000000000205 158.0081415712958 0.0
    vertex 2.1236544032709608 158.37365440327093 0.0
  endloop
endfacet
facet normal 0.6087614290087272 0.7933533402912303 0.0
  outer loop
    vertex 2.6000000000000205 158.0081415712958 0.0
    vertex 2.1236544032709608 158.37365440327093 7.5
    vertex 2.6000000000000205 158.0081415712958 7.5
  endloop
endfacet
facet normal 0.3826834323650918 0.9238795325112861 0.0
  outer loop
    vertex 2.6000000000000205 158.0081415712958 7.5
    vertex 3.1547161962642227 157.77837059953512 0.0
    vertex 2.6000000000000205 158.0081415712958 0.0
  endloop
endfacet
facet normal 0.3826834323650918 0.9238795325112861 0.0
  outer loop
    vertex 3.1547161962642227 157.77837059953512 0.0
    vertex 2.6000000000000205 158.0081415712958 7.5
    vertex 3.1547161962642227 157.77837059953512 7.5
  endloop
endfacet
facet normal 0.13052619222003245 0.9914448613738129 0.0
  outer loop
    vertex 3.1547161962642227 157.77837059953512 7.5
    vertex 3.75000000000002 157.70000000000002 0.0
    vertex 3.1547161962642227 157.77837059953512 0.0
  endloop
endfacet
facet normal 0.13052619222003245 0.9914448613738129 0.0
  outer loop
    vertex 3.75000000000002 157.70000000000002 0.0
    vertex 3.1547161962642227 157.77837059953512 7.5
    vertex 3.75000000000002 157.70000000000002 7.5
  endloop
endfacet
facet normal -0.13052619222003234 0.9914448613738132 -0.0
  outer loop
    vertex 3.75000000000002 157.70000000000002 7.5
    vertex 4.345283803735818 157.77837059953512 0.0
    vertex 3.75000000000002 157.70000000000002 0.0
  endloop
endfacet
facet normal -0.13052619222003234 0.9914448613738132 -0.0
  outer loop
    vertex 4.345283803735818 157.77837059953512 0.0
    vertex 3.75000000000002 157.70000000000002 7.5
    vertex 4.345283803735818 157.77837059953512 7.5
  endloop
endfacet
facet normal -0.3826834323650918 0.9238795325112861 -0.0
  outer loop
    vertex 4.345283803735818 157.77837059953512 7.5
    vertex 4.90000000000002 158.0081415712958 0.0
    vertex 4.345283803735818 157.77837059953512 0.0
  endloop
endfacet
facet normal -0.3826834323650918 0.9238795325112861 -0.0
  outer loop
    vertex 4.90000000000002 158.0081415712958 0.0
    vertex 4.345283803735818 157.77837059953512 7.5
    vertex 4.90000000000002 158.0081415712958 7.5
  endloop
endfacet
facet normal -0.6087614290087275 0.79335334029123 -0.0
  outer loop
    vertex 4.90000000000002 158.0081415712958 7.5
    vertex 5.376345596729079 158.37365440327093 0.0
    vertex 4.90000000000002 158.0081415712958 0.0
  endloop
endfacet
facet normal -0.6087614290087275 0.79335334029123 -0.0
  outer loop
    vertex 5.376345596729079 158.37365440327093 0.0
    vertex 4.90000000000002 158.0081415712958 7.5
    vertex 5.376345596729079 158.37365440327093 7.5
  endloop
endfacet
facet normal -0.793353340291229 0.6087614290087289 -0.0
  outer loop
    vertex 5.741858428704229 158.85 7.5
    vertex 5.376345596729079 158.37365440327093 0.0
    vertex 5.376345596729079 158.37365440327093 7.5
  endloop
endfacet
facet normal -0.793353340291229 0.6087614290087289 -0.0
  outer loop
    vertex 5.376345596729079 158.37365440327093 0.0
    vertex 5.741858428704229 158.85 7.5
    vertex 5.741858428704229 158.85 0.0
  endloop
endfacet
facet normal -0.9238795325112872 0.3826834323650889 -0.0
  outer loop
    vertex 5.971629400464877 159.4047161962642 7.5
    vertex 5.741858428704229 158.85 0.0
    vertex 5.741858428704229 158.85 7.5
  endloop
endfacet
facet normal -0.9238795325112872 0.3826834323650889 -0.0
  outer loop
    vertex 5.741858428704229 158.85 0.0
    vertex 5.971629400464877 159.4047161962642 7.5
    vertex 5.971629400464877 159.4047161962642 0.0
  endloop
endfacet
endsolid Leg
