solid Leg
facet normal 0.0 -1.0 0.0
  outer loop
    vertex 7.50000000000002 170.0 7.5
    vertex 2.255973186038318e-14 170.0 0.0
    vertex 7.50000000000002 170.0 0.0
  endloop
endfacet
facet normal 0.0 -1.0 0.0
  outer loop
    vertex 2.255973186038318e-14 170.0 0.0
    vertex 7.50000000000002 170.0 7.5
    vertex 2.255973186038318e-14 170.0 7.5
  endloop
endfacet
facet normal 1.0 -7.872353094720641e-17 -5.013273746751832e-16
  outer loop
    vertex 7.50000000000002 170.0 0.0
    vertex 7.50000000000002 7.502455612077836e-20 7.500000000000009
    vertex 7.500000000000009 0.0 3.524958103184872e-16
  endloop
endfacet
facet normal 1.0 -7.872353094720641e-17 -5.013273746751832e-16
  outer loop
    vertex 7.50000000000002 7.502455612077836e-20 7.500000000000009
    vertex 7.50000000000002 170.0 0.0
    vertex 7.50000000000002 170.0 7.5
  endloop
endfacet
facet normal 2.534236741450048e-16 4.427317126137726e-17 1.0
  outer loop
    vertex 0.0 7.502455612077836e-20 7.500000000000009
    vertex 1.45000000000001 9.999999999999998 7.500000000000009
    vertex 2.255973186038318e-14 170.0 7.5
  endloop
endfacet
facet normal 2.534236741450048e-16 4.427317126137726e-17 1.0
  outer loop
    vertex 1.45000000000001 9.999999999999998 7.500000000000009
    vertex 0.0 7.502455612077836e-20 7.500000000000009
    vertex 1.5283705995351533 9.4047161962642 7.500000000000009
  endloop
endfacet
facet normal 2.534236741450048e-16 4.427317126137726e-17 1.0
  outer loop
    vertex 1.5283705995351533 9.4047161962642 7.500000000000009
    vertex 0.0 7.502455612077836e-20 7.500000000000009
    vertex 1.7581415712958013 8.849999999999998 7.500000000000009
  endloop
endfacet
facet normal 2.534236741450048e-16 4.427317126137726e-17 1.0
  outer loop
    vertex 1.7581415712958013 8.849999999999998 7.500000000000009
    vertex 0.0 7.502455612077836e-20 7.500000000000009
    vertex 7.50000000000002 7.502455612077836e-20 7.500000000000009
  endloop
endfacet
facet normal 2.534236741450048e-16 4.427317126137726e-17 1.0
  outer loop
    vertex 1.7581415712958013 8.849999999999998 7.500000000000009
    vertex 7.50000000000002 7.502455612077836e-20 7.500000000000009
    vertex 2.1236544032709506 8.37365440327094 7.500000000000009
  endloop
endfacet
facet normal 2.534236741450048e-16 4.427317126137726e-17 1.0
  outer loop
    vertex 2.1236544032709506 8.37365440327094 7.500000000000009
    vertex 7.50000000000002 7.502455612077836e-20 7.500000000000009
    vertex 2.60000000000001 8.00814157129579 7.500000000000009
  endloop
endfacet
facet normal 2.534236741450048e-16 4.427317126137726e-17 1.0
  outer loop
    vertex 2.60000000000001 8.00814157129579 7.500000000000009
    vertex 7.50000000000002 7.502455612077836e-20 7.500000000000009
    vertex 3.1547161962642125 7.778370599535141 7.500000000000009
  endloop
endfacet
facet normal 2.534236741450048e-16 4.427317126137726e-17 1.0
  outer loop
    vertex 3.1547161962642125 7.778370599535141 7.500000000000009
    vertex 7.50000000000002 7.502455612077836e-20 7.500000000000009
    vertex 3.75000000000001 7.699999999999998 7.500000000000009
  endloop
endfacet
facet normal 2.534236741450048e-16 4.427317126137726e-17 1.0
  outer loop
    vertex 3.75000000000001 7.699999999999998 7.500000000000009
    vertex 7.50000000000002 7.502455612077836e-20 7.500000000000009
    vertex 4.34528380373581 7.778370599535142 7.500000000000009
  endloop
endfacet
facet normal 2.534236741450048e-16 4.427317126137726e-17 1.0
  outer loop
    vertex 4.34528380373581 7.778370599535142 7.500000000000009
    vertex 7.50000000000002 7.502455612077836e-20 7.500000000000009
    vertex 4.900000000000011 8.008141571295791 7.500000000000009
  endloop
endfacet
facet normal 2.534236741450048e-16 4.427317126137726e-17 1.0
  outer loop
    vertex 4.900000000000011 8.008141571295791 7.500000000000009
    vertex 7.50000000000002 7.502455612077836e-20 7.500000000000009
    vertex 5.376345596729069 8.37365440327094 7.500000000000009
  endloop
endfacet
facet normal 2.534236741450048e-16 4.427317126137726e-17 1.0
  outer loop
    vertex 5.376345596729069 8.37365440327094 7.500000000000009
    vertex 7.50000000000002 7.502455612077836e-20 7.500000000000009
    vertex 5.741858428704219 8.850000000000001 7.500000000000009
  endloop
endfacet
facet normal 2.534236741450048e-16 4.427317126137726e-17 1.0
  outer loop
    vertex 5.741858428704219 8.850000000000001 7.500000000000009
    vertex 7.50000000000002 7.502455612077836e-20 7.500000000000009
    vertex 5.971629400464868 9.404716196264202 7.500000000000009
  endloop
endfacet
facet normal 2.534236741450048e-16 4.427317126137726e-17 1.0
  outer loop
    vertex 5.971629400464868 9.404716196264202 7.500000000000009
    vertex 7.50000000000002 7.502455612077836e-20 7.500000000000009
    vertex 6.0500000000000105 9.999999999999998 7.500000000000009
  endloop
endfacet
facet normal 2.534236741450048e-16 4.427317126137726e-17 1.0
  outer loop
    vertex 6.0500000000000105 9.999999999999998 7.500000000000009
    vertex 7.50000000000002 7.502455612077836e-20 7.500000000000009
    vertex 6.05000000000002 160.0 7.5
  endloop
endfacet
facet normal 2.534236741450048e-16 4.427317126137726e-17 1.0
  outer loop
    vertex 2.255973186038318e-14 170.0 7.5
    vertex 1.7581415712958108 161.15 7.5
    vertex 7.50000000000002 170.0 7.5
  endloop
endfacet
facet normal 2.534236741450048e-16 4.427317126137726e-17 1.0
  outer loop
    vertex 1.7581415712958108 161.15 7.5
    vertex 2.255973186038318e-14 170.0 7.5
    vertex 1.5283705995351624 160.5952838037358 7.5
  endloop
endfacet
facet normal 2.534236741450048e-16 4.427317126137726e-17 1.0
  outer loop
    vertex 1.5283705995351624 160.5952838037358 7.5
    vertex 2.255973186038318e-14 170.0 7.5
    vertex 1.45000000000002 160.0 7.5
  endloop
endfacet
facet normal 2.534236741450048e-16 4.427317126137726e-17 1.0
  outer loop
    vertex 1.45000000000002 160.0 7.5
    vertex 2.255973186038318e-14 170.0 7.5
    vertex 1.45000000000001 9.999999999999998 7.500000000000009
  endloop
endfacet
facet normal 2.534236741450048e-16 4.427317126137726e-17 1.0
  outer loop
    vertex 7.50000000000002 170.0 7.5
    vertex 1.7581415712958108 161.15 7.5
    vertex 2.1236544032709594 161.62634559672907 7.5
  endloop
endfacet
facet normal 2.534236741450048e-16 4.427317126137726e-17 1.0
  outer loop
    vertex 7.50000000000002 170.0 7.5
    vertex 2.1236544032709594 161.62634559672907 7.5
    vertex 2.6000000000000187 161.9918584287042 7.5
  endloop
endfacet
facet normal 2.534236741450048e-16 4.427317126137726e-17 1.0
  outer loop
    vertex 7.50000000000002 170.0 7.5
    vertex 2.6000000000000187 161.9918584287042 7.5
    vertex 3.1547161962642205 162.22162940046488 7.5
  endloop
endfacet
facet normal 2.534236741450048e-16 4.427317126137726e-17 1.0
  outer loop
    vertex 7.50000000000002 170.0 7.5
    vertex 3.1547161962642205 162.22162940046488 7.5
    vertex 3.750000000000019 162.29999999999998 7.5
  endloop
endfacet
facet normal 2.534236741450048e-16 4.427317126137726e-17 1.0
  outer loop
    vertex 7.50000000000002 170.0 7.5
    vertex 3.750000000000019 162.29999999999998 7.5
    vertex 4.345283803735817 162.22162940046488 7.5
  endloop
endfacet
facet normal 2.534236741450048e-16 4.427317126137726e-17 1.0
  outer loop
    vertex 7.50000000000002 170.0 7.5
    vertex 4.345283803735817 162.22162940046488 7.5
    vertex 4.900000000000018 161.9918584287042 7.5
  endloop
endfacet
facet normal 2.534236741450048e-16 4.427317126137726e-17 1.0
  outer loop
    vertex 7.50000000000002 170.0 7.5
    vertex 4.900000000000018 161.9918584287042 7.5
    vertex 5.376345596729079 161.62634559672907 7.5
  endloop
endfacet
facet normal 2.534236741450048e-16 4.427317126137726e-17 1.0
  outer loop
    vertex 7.50000000000002 170.0 7.5
    vertex 5.376345596729079 161.62634559672907 7.5
    vertex 5.741858428704228 161.15 7.5
  endloop
endfacet
facet normal 2.534236741450048e-16 4.427317126137726e-17 1.0
  outer loop
    vertex 7.50000000000002 170.0 7.5
    vertex 5.741858428704228 161.15 7.5
    vertex 5.9716294004648764 160.5952838037358 7.5
  endloop
endfacet
facet normal 2.534236741450048e-16 4.427317126137726e-17 1.0
  outer loop
    vertex 7.50000000000002 170.0 7.5
    vertex 5.9716294004648764 160.5952838037358 7.5
    vertex 6.05000000000002 160.0 7.5
  endloop
endfacet
facet normal 2.534236741450048e-16 4.427317126137726e-17 1.0
  outer loop
    vertex 7.50000000000002 170.0 7.5
    vertex 6.05000000000002 160.0 7.5
    vertex 7.50000000000002 7.502455612077836e-20 7.500000000000009
  endloop
endfacet
facet normal 2.534236741450048e-16 4.427317126137726e-17 1.0
  outer loop
    vertex 1.5283705995351529 10.595283803735796 7.500000000000009
    vertex 1.45000000000002 160.0 7.5
    vertex 1.45000000000001 9.999999999999998 7.500000000000009
  endloop
endfacet
facet normal 2.534236741450048e-16 4.427317126137726e-17 1.0
  outer loop
    vertex 1.45000000000002 160.0 7.5
    vertex 1.5283705995351529 10.595283803735796 7.500000000000009
    vertex 1.528370599535163 159.4047161962642 7.5
  endloop
endfacet
facet normal 2.534236741450048e-16 4.427317126137726e-17 1.0
  outer loop
    vertex 1.528370599535163 159.4047161962642 7.5
    vertex 1.5283705995351529 10.595283803735796 7.500000000000009
    vertex 1.7581415712958008 11.149999999999999 7.500000000000009
  endloop
endfacet
facet normal 2.534236741450048e-16 4.427317126137726e-17 1.0
  outer loop
    vertex 1.528370599535163 159.4047161962642 7.5
    vertex 1.7581415712958008 11.149999999999999 7.500000000000009
    vertex 1.7581415712958115 158.85 7.5
  endloop
endfacet
facet normal 2.534236741450048e-16 4.427317126137726e-17 1.0
  outer loop
    vertex 1.7581415712958115 158.85 7.5
    vertex 1.7581415712958008 11.149999999999999 7.500000000000009
    vertex 2.1236544032709506 11.626345596729058 7.500000000000009
  endloop
endfacet
facet normal 2.534236741450048e-16 4.427317126137726e-17 1.0
  outer loop
    vertex 1.7581415712958115 158.85 7.5
    vertex 2.1236544032709506 11.626345596729058 7.500000000000009
    vertex 2.1236544032709608 158.37365440327093 7.5
  endloop
endfacet
facet normal 2.534236741450048e-16 4.427317126137726e-17 1.0
  outer loop
    vertex 2.1236544032709608 158.37365440327093 7.5
    vertex 2.1236544032709506 11.626345596729058 7.500000000000009
    vertex 2.6000000000000094 11.991858428704207 7.500000000000009
  endloop
endfacet
facet normal 2.534236741450048e-16 4.427317126137726e-17 1.0
  outer loop
    vertex 2.1236544032709608 158.37365440327093 7.5
    vertex 2.6000000000000094 11.991858428704207 7.500000000000009
    vertex 2.6000000000000205 158.0081415712958 7.5
  endloop
endfacet
facet normal 2.534236741450048e-16 4.427317126137726e-17 1.0
  outer loop
    vertex 2.6000000000000205 158.0081415712958 7.5
    vertex 2.6000000000000094 11.991858428704207 7.500000000000009
    vertex 3.1547161962642116 12.221629400464854 7.500000000000009
  endloop
endfacet
facet normal 2.534236741450048e-16 4.427317126137726e-17 1.0
  outer loop
    vertex 2.6000000000000205 158.0081415712958 7.5
    vertex 3.1547161962642116 12.221629400464854 7.500000000000009
    vertex 3.1547161962642227 157.77837059953512 7.5
  endloop
endfacet
facet normal 2.534236741450048e-16 4.427317126137726e-17 1.0
  outer loop
    vertex 3.1547161962642227 157.77837059953512 7.5
    vertex 3.1547161962642116 12.221629400464854 7.500000000000009
    vertex 3.75000000000001 12.299999999999999 7.500000000000009
  endloop
endfacet
facet normal 2.534236741450048e-16 4.427317126137726e-17 1.0
  outer loop
    vertex 3.1547161962642227 157.77837059953512 7.5
    vertex 3.75000000000001 12.299999999999999 7.500000000000009
    vertex 3.75000000000002 157.70000000000002 7.5
  endloop
endfacet
facet normal 2.534236741450048e-16 4.427317126137726e-17 1.0
  outer loop
    vertex 3.75000000000002 157.70000000000002 7.5
    vertex 3.75000000000001 12.299999999999999 7.500000000000009
    vertex 4.345283803735807 12.221629400464856 7.500000000000009
  endloop
endfacet
facet normal 2.534236741450048e-16 4.427317126137726e-17 1.0
  outer loop
    vertex 3.75000000000002 157.70000000000002 7.5
    vertex 4.345283803735807 12.221629400464856 7.500000000000009
    vertex 4.345283803735818 157.77837059953512 7.5
  endloop
endfacet
facet normal 2.534236741450048e-16 4.427317126137726e-17 1.0
  outer loop
    vertex 4.345283803735818 157.77837059953512 7.5
    vertex 4.345283803735807 12.221629400464856 7.500000000000009
    vertex 4.900000000000009 11.991858428704209 7.500000000000009
  endloop
endfacet
facet normal 2.534236741450048e-16 4.427317126137726e-17 1.0
  outer loop
    vertex 4.345283803735818 157.77837059953512 7.5
    vertex 4.900000000000009 11.991858428704209 7.500000000000009
    vertex 4.90000000000002 158.0081415712958 7.5
  endloop
endfacet
facet normal 2.534236741450048e-16 4.427317126137726e-17 1.0
  outer loop
    vertex 4.90000000000002 158.0081415712958 7.5
    vertex 4.900000000000009 11.991858428704209 7.500000000000009
    vertex 5.3763455967290685 11.62634559672906 7.500000000000009
  endloop
endfacet
facet normal 2.534236741450048e-16 4.427317126137726e-17 1.0
  outer loop
    vertex 4.90000000000002 158.0081415712958 7.5
    vertex 5.3763455967290685 11.62634559672906 7.500000000000009
    vertex 5.376345596729079 158.37365440327093 7.5
  endloop
endfacet
facet normal 2.534236741450048e-16 4.427317126137726e-17 1.0
  outer loop
    vertex 5.376345596729079 158.37365440327093 7.5
    vertex 5.3763455967290685 11.62634559672906 7.500000000000009
    vertex 5.7418584287042185 11.149999999999999 7.500000000000009
  endloop
endfacet
facet normal 2.534236741450048e-16 4.427317126137726e-17 1.0
  outer loop
    vertex 5.376345596729079 158.37365440327093 7.5
    vertex 5.7418584287042185 11.149999999999999 7.500000000000009
    vertex 5.741858428704229 158.85 7.5
  endloop
endfacet
facet normal 2.534236741450048e-16 4.427317126137726e-17 1.0
  outer loop
    vertex 5.741858428704229 158.85 7.5
    vertex 5.7418584287042185 11.149999999999999 7.500000000000009
    vertex 5.971629400464866 10.595283803735798 7.500000000000009
  endloop
endfacet
facet normal 2.534236741450048e-16 4.427317126137726e-17 1.0
  outer loop
    vertex 5.741858428704229 158.85 7.5
    vertex 5.971629400464866 10.595283803735798 7.500000000000009
    vertex 5.971629400464877 159.4047161962642 7.5
  endloop
endfacet
facet normal 2.534236741450048e-16 4.427317126137726e-17 1.0
  outer loop
    vertex 5.971629400464877 159.4047161962642 7.5
    vertex 5.971629400464866 10.595283803735798 7.500000000000009
    vertex 6.0500000000000105 9.999999999999998 7.500000000000009
  endloop
endfacet
facet normal 2.534236741450048e-16 4.427317126137726e-17 1.0
  outer loop
    vertex 5.971629400464877 159.4047161962642 7.5
    vertex 6.0500000000000105 9.999999999999998 7.500000000000009
    vertex 6.05000000000002 160.0 7.5
  endloop
endfacet
facet normal -1.0 1.3642024791582126e-16 -1.0172121361402462e-16
  outer loop
    vertex 0.0 7.502455612077836e-20 7.500000000000009
    vertex 2.255973186038318e-14 170.0 0.0
    vertex 0.0 0.0 0.0
  endloop
endfacet
facet normal -1.0 1.3642024791582126e-16 -1.0172121361402462e-16
  outer loop
    vertex 2.255973186038318e-14 170.0 0.0
    vertex 0.0 7.502455612077836e-20 7.500000000000009
    vertex 2.255973186038318e-14 170.0 7.5
  endloop
endfacet
facet normal 9.317768148199422e-18 -5.102291319755625e-19 -1.0
  outer loop
    vertex 1.45000000000002 160.0 2.8199664825478975e-15
    vertex 1.5283705995351529 10.595283803735796 0.0
    vertex 1.45000000000001 9.999999999999998 0.0
  endloop
endfacet
facet normal 9.317768148199422e-18 -5.102291319755625e-19 -1.0
  outer loop
    vertex 1.5283705995351529 10.595283803735796 0.0
    vertex 1.45000000000002 160.0 2.8199664825478975e-15
    vertex 1.528370599535163 159.4047161962642 2.8199664825478975e-15
  endloop
endfacet
facet normal 9.317768148199422e-18 -5.102291319755625e-19 -1.0
  outer loop
    vertex 1.5283705995351529 10.595283803735796 0.0
    vertex 1.528370599535163 159.4047161962642 2.8199664825478975e-15
    vertex 1.7581415712958008 11.149999999999999 0.0
  endloop
endfacet
facet normal 9.317768148199422e-18 -5.102291319755625e-19 -1.0
  outer loop
    vertex 1.7581415712958008 11.149999999999999 0.0
    vertex 1.528370599535163 159.4047161962642 2.8199664825478975e-15
    vertex 1.7581415712958115 158.85 2.8199664825478975e-15
  endloop
endfacet
facet normal 9.317768148199422e-18 -5.102291319755625e-19 -1.0
  outer loop
    vertex 1.7581415712958008 11.149999999999999 0.0
    vertex 1.7581415712958115 158.85 2.8199664825478975e-15
    vertex 2.1236544032709506 11.626345596729058 0.0
  endloop
endfacet
facet normal 9.317768148199422e-18 -5.102291319755625e-19 -1.0
  outer loop
    vertex 2.1236544032709506 11.626345596729058 0.0
    vertex 1.7581415712958115 158.85 2.8199664825478975e-15
    vertex 2.1236544032709608 158.37365440327093 2.8199664825478975e-15
  endloop
endfacet
facet normal 9.317768148199422e-18 -5.102291319755625e-19 -1.0
  outer loop
    vertex 2.1236544032709506 11.626345596729058 0.0
    vertex 2.1236544032709608 158.37365440327093 2.8199664825478975e-15
    vertex 2.6000000000000094 11.991858428704207 0.0
  endloop
endfacet
facet normal 9.317768148199422e-18 -5.102291319755625e-19 -1.0
  outer loop
    vertex 2.6000000000000094 11.991858428704207 0.0
    vertex 2.1236544032709608 158.37365440327093 2.8199664825478975e-15
    vertex 2.6000000000000205 158.0081415712958 2.8199664825478975e-15
  endloop
endfacet
facet normal 9.317768148199422e-18 -5.102291319755625e-19 -1.0
  outer loop
    vertex 2.6000000000000094 11.991858428704207 0.0
    vertex 2.6000000000000205 158.0081415712958 2.8199664825478975e-15
    vertex 3.1547161962642116 12.221629400464854 0.0
  endloop
endfacet
facet normal 9.317768148199422e-18 -5.102291319755625e-19 -1.0
  outer loop
    vertex 3.1547161962642116 12.221629400464854 0.0
    vertex 2.6000000000000205 158.0081415712958 2.8199664825478975e-15
    vertex 3.1547161962642227 157.77837059953512 2.8199664825478975e-15
  endloop
endfacet
facet normal 9.317768148199422e-18 -5.102291319755625e-19 -1.0
  outer loop
    vertex 3.1547161962642116 12.221629400464854 0.0
    vertex 3.1547161962642227 157.77837059953512 2.8199664825478975e-15
    vertex 3.75000000000001 12.299999999999999 0.0
  endloop
endfacet
facet normal 9.317768148199422e-18 -5.102291319755625e-19 -1.0
  outer loop
    vertex 3.75000000000001 12.299999999999999 0.0
    vertex 3.1547161962642227 157.77837059953512 2.8199664825478975e-15
    vertex 3.75000000000002 157.70000000000002 2.8199664825478975e-15
  endloop
endfacet
facet normal 9.317768148199422e-18 -5.102291319755625e-19 -1.0
  outer loop
    vertex 3.75000000000001 12.299999999999999 0.0
    vertex 3.75000000000002 157.70000000000002 2.8199664825478975e-15
    vertex 4.345283803735807 12.221629400464856 0.0
  endloop
endfacet
facet normal 9.317768148199422e-18 -5.102291319755625e-19 -1.0
  outer loop
    vertex 4.345283803735807 12.221629400464856 0.0
    vertex 3.75000000000002 157.70000000000002 2.8199664825478975e-15
    vertex 4.345283803735818 157.77837059953512 2.8199664825478975e-15
  endloop
endfacet
facet normal 9.317768148199422e-18 -5.102291319755625e-19 -1.0
  outer loop
    vertex 4.345283803735807 12.221629400464856 0.0
    vertex 4.345283803735818 157.77837059953512 2.8199664825478975e-15
    vertex 4.900000000000009 11.991858428704209 0.0
  endloop
endfacet
facet normal 9.317768148199422e-18 -5.102291319755625e-19 -1.0
  outer loop
    vertex 4.900000000000009 11.991858428704209 0.0
    vertex 4.345283803735818 157.77837059953512 2.8199664825478975e-15
    vertex 4.90000000000002 158.0081415712958 2.8199664825478975e-15
  endloop
endfacet
facet normal 9.317768148199422e-18 -5.102291319755625e-19 -1.0
  outer loop
    vertex 4.900000000000009 11.991858428704209 0.0
    vertex 4.90000000000002 158.0081415712958 2.8199664825478975e-15
    vertex 5.3763455967290685 11.62634559672906 0.0
  endloop
endfacet
facet normal 9.317768148199422e-18 -5.102291319755625e-19 -1.0
  outer loop
    vertex 5.3763455967290685 11.62634559672906 0.0
    vertex 4.90000000000002 158.0081415712958 2.8199664825478975e-15
    vertex 5.376345596729079 158.37365440327093 2.8199664825478975e-15
  endloop
endfacet
facet normal 9.317768148199422e-18 -5.102291319755625e-19 -1.0
  outer loop
    vertex 5.3763455967290685 11.62634559672906 0.0
    vertex 5.376345596729079 158.37365440327093 2.8199664825478975e-15
    vertex 5.7418584287042185 11.149999999999999 0.0
  endloop
endfacet
facet normal 9.317768148199422e-18 -5.102291319755625e-19 -1.0
  outer loop
    vertex 5.7418584287042185 11.149999999999999 0.0
    vertex 5.376345596729079 158.37365440327093 2.8199664825478975e-15
    vertex 5.741858428704229 158.85 2.8199664825478975e-15
  endloop
endfacet
facet normal 9.317768148199422e-18 -5.102291319755625e-19 -1.0
  outer loop
    vertex 5.7418584287042185 11.149999999999999 0.0
    vertex 5.741858428704229 158.85 2.8199664825478975e-15
    vertex 5.971629400464866 10.595283803735798 0.0
  endloop
endfacet
facet normal 9.317768148199422e-18 -5.102291319755625e-19 -1.0
  outer loop
    vertex 5.971629400464866 10.595283803735798 0.0
    vertex 5.741858428704229 158.85 2.8199664825478975e-15
    vertex 5.971629400464877 159.4047161962642 2.8199664825478975e-15
  endloop
endfacet
facet normal 9.317768148199422e-18 -5.102291319755625e-19 -1.0
  outer loop
    vertex 5.971629400464866 10.595283803735798 0.0
    vertex 5.971629400464877 159.4047161962642 2.8199664825478975e-15
    vertex 6.0500000000000105 9.999999999999998 0.0
  endloop
endfacet
facet normal 9.317768148199422e-18 -5.102291319755625e-19 -1.0
  outer loop
    vertex 6.0500000000000105 9.999999999999998 0.0
    vertex 5.971629400464877 159.4047161962642 2.8199664825478975e-15
    vertex 6.05000000000002 160.0 2.8199664825478975e-15
  endloop
endfacet
facet normal 9.317768148199422e-18 -5.102291319755625e-19 -1.0
  outer loop
    vertex 2.255973186038318e-14 170.0 0.0
    vertex 1.45000000000002 160.0 2.8199664825478975e-15
    vertex 1.45000000000001 9.999999999999998 0.0
  endloop
endfacet
facet normal 9.317768148199422e-18 -5.102291319755625e-19 -1.0
  outer loop
    vertex 1.45000000000002 160.0 2.8199664825478975e-15
    vertex 2.255973186038318e-14 170.0 0.0
    vertex 1.5283705995351624 160.5952838037358 2.8199664825478975e-15
  endloop
endfacet
facet normal 9.317768148199422e-18 -5.102291319755625e-19 -1.0
  outer loop
    vertex 1.5283705995351624 160.5952838037358 2.8199664825478975e-15
    vertex 2.255973186038318e-14 170.0 0.0
    vertex 1.7581415712958108 161.15 2.8199664825478975e-15
  endloop
endfacet
facet normal 9.317768148199422e-18 -5.102291319755625e-19 -1.0
  outer loop
    vertex 1.7581415712958108 161.15 2.8199664825478975e-15
    vertex 2.255973186038318e-14 170.0 0.0
    vertex 7.50000000000002 170.0 0.0
  endloop
endfacet
facet normal 9.317768148199422e-18 -5.102291319755625e-19 -1.0
  outer loop
    vertex 1.7581415712958108 161.15 2.8199664825478975e-15
    vertex 7.50000000000002 170.0 0.0
    vertex 2.1236544032709594 161.62634559672907 2.8199664825478975e-15
  endloop
endfacet
facet normal 9.317768148199422e-18 -5.102291319755625e-19 -1.0
  outer loop
    vertex 2.1236544032709594 161.62634559672907 2.8199664825478975e-15
    vertex 7.50000000000002 170.0 0.0
    vertex 2.6000000000000187 161.9918584287042 2.8199664825478975e-15
  endloop
endfacet
facet normal 9.317768148199422e-18 -5.102291319755625e-19 -1.0
  outer loop
    vertex 2.6000000000000187 161.9918584287042 2.8199664825478975e-15
    vertex 7.50000000000002 170.0 0.0
    vertex 3.1547161962642205 162.22162940046488 2.8199664825478975e-15
  endloop
endfacet
facet normal 9.317768148199422e-18 -5.102291319755625e-19 -1.0
  outer loop
    vertex 3.1547161962642205 162.22162940046488 2.8199664825478975e-15
    vertex 7.50000000000002 170.0 0.0
    vertex 3.750000000000019 162.29999999999998 2.8199664825478975e-15
  endloop
endfacet
facet normal 9.317768148199422e-18 -5.102291319755625e-19 -1.0
  outer loop
    vertex 3.750000000000019 162.29999999999998 2.8199664825478975e-15
    vertex 7.50000000000002 170.0 0.0
    vertex 4.345283803735817 162.22162940046488 2.8199664825478975e-15
  endloop
endfacet
facet normal 9.317768148199422e-18 -5.102291319755625e-19 -1.0
  outer loop
    vertex 4.345283803735817 162.22162940046488 2.8199664825478975e-15
    vertex 7.50000000000002 170.0 0.0
    vertex 4.900000000000018 161.9918584287042 2.8199664825478975e-15
  endloop
endfacet
facet normal 9.317768148199422e-18 -5.102291319755625e-19 -1.0
  outer loop
    vertex 4.900000000000018 161.9918584287042 2.8199664825478975e-15
    vertex 7.50000000000002 170.0 0.0
    vertex 5.376345596729079 161.62634559672907 2.8199664825478975e-15
  endloop
endfacet
facet normal 9.317768148199422e-18 -5.102291319755625e-19 -1.0
  outer loop
    vertex 5.376345596729079 161.62634559672907 2.8199664825478975e-15
    vertex 7.50000000000002 170.0 0.0
    vertex 5.741858428704228 161.15 2.8199664825478975e-15
  endloop
endfacet
facet normal 9.317768148199422e-18 -5.102291319755625e-19 -1.0
  outer loop
    vertex 5.741858428704228 161.15 2.8199664825478975e-15
    vertex 7.50000000000002 170.0 0.0
    vertex 5.9716294004648764 160.5952838037358 2.8199664825478975e-15
  endloop
endfacet
facet normal 9.317768148199422e-18 -5.102291319755625e-19 -1.0
  outer loop
    vertex 5.9716294004648764 160.5952838037358 2.8199664825478975e-15
    vertex 7.50000000000002 170.0 0.0
    vertex 6.05000000000002 160.0 2.8199664825478975e-15
  endloop
endfacet
facet normal 9.317768148199422e-18 -5.102291319755625e-19 -1.0
  outer loop
    vertex 6.05000000000002 160.0 2.8199664825478975e-15
    vertex 7.50000000000002 170.0 0.0
    vertex 7.500000000000009 0.0 3.524958103184872e-16
  endloop
endfacet
facet normal 9.317768148199422e-18 -5.102291319755625e-19 -1.0
  outer loop
    vertex 0.0 0.0 0.0
    vertex 1.7581415712958013 8.849999999999998 0.0
    vertex 7.500000000000009 0.0 3.524958103184872e-16
  endloop
endfacet
facet normal 9.317768148199422e-18 -5.102291319755625e-19 -1.0
  outer loop
    vertex 1.7581415712958013 8.849999999999998 0.0
    vertex 0.0 0.0 0.0
    vertex 1.5283705995351533 9.4047161962642 0.0
  endloop
endfacet
facet normal 9.317768148199422e-18 -5.102291319755625e-19 -1.0
  outer loop
    vertex 1.5283705995351533 9.4047161962642 0.0
    vertex 0.0 0.0 0.0
    vertex 1.45000000000001 9.999999999999998 0.0
  endloop
endfacet
facet normal 9.317768148199422e-18 -5.102291319755625e-19 -1.0
  outer loop
    vertex 1.45000000000001 9.999999999999998 0.0
    vertex 0.0 0.0 0.0
    vertex 2.255973186038318e-14 170.0 0.0
  endloop
endfacet
facet normal 9.317768148199422e-18 -5.102291319755625e-19 -1.0
  outer loop
    vertex 7.500000000000009 0.0 3.524958103184872e-16
    vertex 1.7581415712958013 8.849999999999998 0.0
    vertex 2.1236544032709506 8.37365440327094 0.0
  endloop
endfacet
facet normal 9.317768148199422e-18 -5.102291319755625e-19 -1.0
  outer loop
    vertex 7.500000000000009 0.0 3.524958103184872e-16
    vertex 2.1236544032709506 8.37365440327094 0.0
    vertex 2.60000000000001 8.00814157129579 0.0
  endloop
endfacet
facet normal 9.317768148199422e-18 -5.102291319755625e-19 -1.0
  outer loop
    vertex 7.500000000000009 0.0 3.524958103184872e-16
    vertex 2.60000000000001 8.00814157129579 0.0
    vertex 3.1547161962642125 7.778370599535141 0.0
  endloop
endfacet
facet normal 9.317768148199422e-18 -5.102291319755625e-19 -1.0
  outer loop
    vertex 7.500000000000009 0.0 3.524958103184872e-16
    vertex 3.1547161962642125 7.778370599535141 0.0
    vertex 3.75000000000001 7.699999999999998 0.0
  endloop
endfacet
facet normal 9.317768148199422e-18 -5.102291319755625e-19 -1.0
  outer loop
    vertex 7.500000000000009 0.0 3.524958103184872e-16
    vertex 3.75000000000001 7.699999999999998 0.0
    vertex 4.34528380373581 7.778370599535142 0.0
  endloop
endfacet
facet normal 9.317768148199422e-18 -5.102291319755625e-19 -1.0
  outer loop
    vertex 7.500000000000009 0.0 3.524958103184872e-16
    vertex 4.34528380373581 7.778370599535142 0.0
    vertex 4.900000000000011 8.008141571295791 0.0
  endloop
endfacet
facet normal 9.317768148199422e-18 -5.102291319755625e-19 -1.0
  outer loop
    vertex 7.500000000000009 0.0 3.524958103184872e-16
    vertex 4.900000000000011 8.008141571295791 0.0
    vertex 5.376345596729069 8.37365440327094 0.0
  endloop
endfacet
facet normal 9.317768148199422e-18 -5.102291319755625e-19 -1.0
  outer loop
    vertex 7.500000000000009 0.0 3.524958103184872e-16
    vertex 5.376345596729069 8.37365440327094 0.0
    vertex 5.741858428704219 8.850000000000001 0.0
  endloop
endfacet
facet normal 9.317768148199422e-18 -5.102291319755625e-19 -1.0
  outer loop
    vertex 7.500000000000009 0.0 3.524958103184872e-16
    vertex 5.741858428704219 8.850000000000001 0.0
    vertex 5.971629400464868 9.404716196264202 0.0
  endloop
endfacet
facet normal 9.317768148199422e-18 -5.102291319755625e-19 -1.0
  outer loop
    vertex 7.500000000000009 0.0 3.524958103184872e-16
    vertex 5.971629400464868 9.404716196264202 0.0
    vertex 6.0500000000000105 9.999999999999998 0.0
  endloop
endfacet
facet normal 9.317768148199422e-18 -5.102291319755625e-19 -1.0
  outer loop
    vertex 7.500000000000009 0.0 3.524958103184872e-16
    vertex 6.0500000000000105 9.999999999999998 0.0
    vertex 6.05000000000002 160.0 2.8199664825478975e-15
  endloop
endfacet
facet normal -1.3005447005450075e-38 -1.0 1.0003274149437105e-20
  outer loop
    vertex 7.500000000000009 0.0 3.524958103184872e-16
    vertex 0.0 7.502455612077836e-20 7.500000000000009
    vertex 0.0 0.0 0.0
  endloop
endfacet
facet normal -1.3005447005450075e-38 -1.0 1.0003274149437105e-20
  outer loop
    vertex 0.0 7.502455612077836e-20 7.500000000000009
    vertex 7.500000000000009 0.0 3.524958103184872e-16
    vertex 7.50000000000002 7.502455612077836e-20 7.500000000000009
  endloop
endfacet
facet normal 0.9914448613738107 -0.1305261922200491 -0.0
  outer loop
    vertex 1.5283705995351624 160.5952838037358 2.8199664825478975e-15
    vertex 1.45000000000002 160.0 7.5
    vertex 1.45000000000002 160.0 2.8199664825478975e-15
  endloop
endfacet
facet normal 0.9914448613738107 -0.1305261922200491 -0.0
  outer loop
    vertex 1.45000000000002 160.0 7.5
    vertex 1.5283705995351624 160.5952838037358 2.8199664825478975e-15
    vertex 1.5283705995351624 160.5952838037358 7.5
  endloop
endfacet
facet normal 0.9914448613738106 0.13052619222005024 0.0
  outer loop
    vertex 1.45000000000002 160.0 2.8199664825478975e-15
    vertex 1.528370599535163 159.4047161962642 7.5
    vertex 1.528370599535163 159.4047161962642 2.8199664825478975e-15
  endloop
endfacet
facet normal 0.9914448613738106 0.13052619222005024 0.0
  outer loop
    vertex 1.528370599535163 159.4047161962642 7.5
    vertex 1.45000000000002 160.0 2.8199664825478975e-15
    vertex 1.45000000000002 160.0 7.5
  endloop
endfacet
facet normal 0.9238795325112871 0.38268343236508945 0.0
  outer loop
    vertex 1.528370599535163 159.4047161962642 2.8199664825478975e-15
    vertex 1.7581415712958115 158.85 7.5
    vertex 1.7581415712958115 158.85 2.8199664825478975e-15
  endloop
endfacet
facet normal 0.9238795325112871 0.38268343236508945 0.0
  outer loop
    vertex 1.7581415712958115 158.85 7.5
    vertex 1.528370599535163 159.4047161962642 2.8199664825478975e-15
    vertex 1.528370599535163 159.4047161962642 7.5
  endloop
endfacet
facet normal 0.7933533402912295 0.6087614290087281 0.0
  outer loop
    vertex 1.7581415712958115 158.85 2.8199664825478975e-15
    vertex 2.1236544032709608 158.37365440327093 7.5
    vertex 2.1236544032709608 158.37365440327093 2.8199664825478975e-15
  endloop
endfacet
facet normal 0.7933533402912295 0.6087614290087281 0.0
  outer loop
    vertex 2.1236544032709608 158.37365440327093 7.5
    vertex 1.7581415712958115 158.85 2.8199664825478975e-15
    vertex 1.7581415712958115 158.85 7.5
  endloop
endfacet
facet normal 0.6087614290087272 0.7933533402912303 0.0
  outer loop
    vertex 2.1236544032709608 158.37365440327093 7.5
    vertex 2.6000000000000205 158.0081415712958 2.8199664825478975e-15
    vertex 2.1236544032709608 158.37365440327093 2.8199664825478975e-15
  endloop
endfacet
facet normal 0.6087614290087272 0.7933533402912303 0.0
  outer loop
    vertex 2.6000000000000205 158.0081415712958 2.8199664825478975e-15
    vertex 2.1236544032709608 158.37365440327093 7.5
    vertex 2.6000000000000205 158.0081415712958 7.5
  endloop
endfacet
facet normal 0.3826834323650918 0.9238795325112861 0.0
  outer loop
    vertex 2.6000000000000205 158.0081415712958 7.5
    vertex 3.1547161962642227 157.77837059953512 2.8199664825478975e-15
    vertex 2.6000000000000205 158.0081415712958 2.8199664825478975e-15
  endloop
endfacet
facet normal 0.3826834323650918 0.9238795325112861 0.0
  outer loop
    vertex 3.1547161962642227 157.77837059953512 2.8199664825478975e-15
    vertex 2.6000000000000205 158.0081415712958 7.5
    vertex 3.1547161962642227 157.77837059953512 7.5
  endloop
endfacet
facet normal 0.13052619222003245 0.9914448613738129 0.0
  outer loop
    vertex 3.1547161962642227 157.77837059953512 7.5
    vertex 3.75000000000002 157.70000000000002 2.8199664825478975e-15
    vertex 3.1547161962642227 157.77837059953512 2.8199664825478975e-15
  endloop
endfacet
facet normal 0.13052619222003245 0.9914448613738129 0.0
  outer loop
    vertex 3.75000000000002 157.70000000000002 2.8199664825478975e-15
    vertex 3.1547161962642227 157.77837059953512 7.5
    vertex 3.75000000000002 157.70000000000002 7.5
  endloop
endfacet
facet normal -0.13052619222003234 0.9914448613738132 -0.0
  outer loop
    vertex 3.75000000000002 157.70000000000002 7.5
    vertex 4.345283803735818 157.77837059953512 2.8199664825478975e-15
    vertex 3.75000000000002 157.70000000000002 2.8199664825478975e-15
  endloop
endfacet
facet normal -0.13052619222003234 0.9914448613738132 -0.0
  outer loop
    vertex 4.345283803735818 157.77837059953512 2.8199664825478975e-15
    vertex 3.75000000000002 157.70000000000002 7.5
    vertex 4.345283803735818 157.77837059953512 7.5
  endloop
endfacet
facet normal -0.3826834323650918 0.9238795325112861 -0.0
  outer loop
    vertex 4.345283803735818 157.77837059953512 7.5
    vertex 4.90000000000002 158.0081415712958 2.8199664825478975e-15
    vertex 4.345283803735818 157.77837059953512 2.8199664825478975e-15
  endloop
endfacet
facet normal -0.3826834323650918 0.9238795325112861 -0.0
  outer loop
    vertex 4.90000000000002 158.0081415712958 2.8199664825478975e-15
    vertex 4.345283803735818 157.77837059953512 7.5
    vertex 4.90000000000002 158.0081415712958 7.5
  endloop
endfacet
facet normal -0.6087614290087275 0.79335334029123 -0.0
  outer loop
    vertex 4.90000000000002 158.0081415712958 7.5
    vertex 5.376345596729079 158.37365440327093 2.8199664825478975e-15
    vertex 4.90000000000002 158.0081415712958 2.8199664825478975e-15
  endloop
endfacet
facet normal -0.6087614290087275 0.79335334029123 -0.0
  outer loop
    vertex 5.376345596729079 158.37365440327093 2.8199664825478975e-15
    vertex 4.90000000000002 158.0081415712958 7.5
    vertex 5.376345596729079 158.37365440327093 7.5
  endloop
endfacet
facet normal -0.793353340291229 0.6087614290087289 -0.0
  outer loop
    vertex 5.741858428704229 158.85 7.5
    vertex 5.376345596729079 158.37365440327093 2.8199664825478975e-15
    vertex 5.376345596729079 158.37365440327093 7.5
  endloop
endfacet
facet normal -0.793353340291229 0.6087614290087289 -0.0
  outer loop
    vertex 5.376345596729079 158.37365440327093 2.8199664825478975e-15
    vertex 5.741858428704229 158.85 7.5
    vertex 5.741858428704229 158.85 2.8199664825478975e-15
  endloop
endfacet
facet normal -0.9238795325112872 0.3826834323650889 -0.0
  outer loop
    vertex 5.971629400464877 159.4047161962642 7.5
    vertex 5.741858428704229 158.85 2.8199664825478975e-15
    vertex 5.741858428704229 158.85 7.5
  endloop
endfacet
facet normal -0.9238795325112872 0.3826834323650889 -0.0
  outer loop
    vertex 5.741858428704229 158.85 2.8199664825478975e-15
    vertex 5.971629400464877 159.4047161962642 7.5
    vertex 5.971629400464877 159.4047161962642 2.8199664825478975e-15
  endloop
endfacet
facet normal -0.9914448613738107 0.1305261922200491 -0.0
  outer loop
    vertex 6.05000000000002 160.0 7.5
    vertex 5.971629400464877 159.4047161962642 2.8199664825478975e-15
    vertex 5.971629400464877 159.4047161962642 7.5
  endloop
endfacet
facet normal -0.9914448613738107 0.1305261922200491 -0.0
  outer loop
    vertex 5.971629400464877 159.4047161962642 2.8199664825478975e-15
    vertex 6.05000000000002 160.0 7.5
    vertex 6.05000000000002 160.0 2.8199664825478975e-15
  endloop
endfacet
facet normal -0.9914448613738106 -0.13052619222005143 -0.0
  outer loop
    vertex 5.9716294004648764 160.5952838037358 7.5
    vertex 6.05000000000002 160.0 2.8199664825478975e-15
    vertex 6.05000000000002 160.0 7.5
  endloop
endfacet
facet normal -0.9914448613738106 -0.13052619222005143 -0.0
  outer loop
    vertex 6.05000000000002 160.0 2.8199664825478975e-15
    vertex 5.9716294004648764 160.5952838037358 7.5
    vertex 5.9716294004648764 160.5952838037358 2.8199664825478975e-15
  endloop
endfacet
facet normal -0.9238795325112872 -0.3826834323650889 -0.0
  outer loop
    vertex 5.741858428704228 161.15 7.5
    vertex 5.9716294004648764 160.5952838037358 2.8199664825478975e-15
    vertex 5.9716294004648764 160.5952838037358 7.5
  endloop
endfacet
facet normal -0.9238795325112872 -0.3826834323650889 -0.0
  outer loop
    vertex 5.9716294004648764 160.5952838037358 2.8199664825478975e-15
    vertex 5.741858428704228 161.15 7.5
    vertex 5.741858428704228 161.15 2.8199664825478975e-15
  endloop
endfacet
facet normal -0.7933533402912295 -0.6087614290087281 -0.0
  outer loop
    vertex 5.376345596729079 161.62634559672907 7.5
    vertex 5.741858428704228 161.15 2.8199664825478975e-15
    vertex 5.741858428704228 161.15 7.5
  endloop
endfacet
facet normal -0.7933533402912295 -0.6087614290087281 -0.0
  outer loop
    vertex 5.741858428704228 161.15 2.8199664825478975e-15
    vertex 5.376345596729079 161.62634559672907 7.5
    vertex 5.376345596729079 161.62634559672907 2.8199664825478975e-15
  endloop
endfacet
facet normal -0.608761429008727 -0.7933533402912303 -0.0
  outer loop
    vertex 5.376345596729079 161.62634559672907 7.5
    vertex 4.900000000000018 161.9918584287042 2.8199664825478975e-15
    vertex 5.376345596729079 161.62634559672907 2.8199664825478975e-15
  endloop
endfacet
facet normal -0.608761429008727 -0.7933533402912303 -0.0
  outer loop
    vertex 4.900000000000018 161.9918584287042 2.8199664825478975e-15
    vertex 5.376345596729079 161.62634559672907 7.5
    vertex 4.900000000000018 161.9918584287042 7.5
  endloop
endfacet
facet normal -0.3826834323650918 -0.9238795325112861 -0.0
  outer loop
    vertex 4.900000000000018 161.9918584287042 7.5
    vertex 4.345283803735817 162.22162940046488 2.8199664825478975e-15
    vertex 4.900000000000018 161.9918584287042 2.8199664825478975e-15
  endloop
endfacet
facet normal -0.3826834323650918 -0.9238795325112861 -0.0
  outer loop
    vertex 4.345283803735817 162.22162940046488 2.8199664825478975e-15
    vertex 4.900000000000018 161.9918584287042 7.5
    vertex 4.345283803735817 162.22162940046488 7.5
  endloop
endfacet
facet normal -0.13052619222003245 -0.9914448613738129 -0.0
  outer loop
    vertex 4.345283803735817 162.22162940046488 7.5
    vertex 3.750000000000019 162.29999999999998 2.8199664825478975e-15
    vertex 4.345283803735817 162.22162940046488 2.8199664825478975e-15
  endloop
endfacet
facet normal -0.13052619222003245 -0.9914448613738129 -0.0
  outer loop
    vertex 3.750000000000019 162.29999999999998 2.8199664825478975e-15
    vertex 4.345283803735817 162.22162940046488 7.5
    vertex 3.750000000000019 162.29999999999998 7.5
  endloop
endfacet
facet normal 0.13052619222003217 -0.9914448613738132 -0.0
  outer loop
    vertex 3.750000000000019 162.29999999999998 7.5
    vertex 3.1547161962642205 162.22162940046488 2.8199664825478975e-15
    vertex 3.750000000000019 162.29999999999998 2.8199664825478975e-15
  endloop
endfacet
facet normal 0.13052619222003217 -0.9914448613738132 -0.0
  outer loop
    vertex 3.1547161962642205 162.22162940046488 2.8199664825478975e-15
    vertex 3.750000000000019 162.29999999999998 7.5
    vertex 3.1547161962642205 162.22162940046488 7.5
  endloop
endfacet
facet normal 0.38268343236509195 -0.923879532511286 -0.0
  outer loop
    vertex 3.1547161962642205 162.22162940046488 7.5
    vertex 2.6000000000000187 161.9918584287042 2.8199664825478975e-15
    vertex 3.1547161962642205 162.22162940046488 2.8199664825478975e-15
  endloop
endfacet
facet normal 0.38268343236509195 -0.923879532511286 -0.0
  outer loop
    vertex 2.6000000000000187 161.9918584287042 2.8199664825478975e-15
    vertex 3.1547161962642205 162.22162940046488 7.5
    vertex 2.6000000000000187 161.9918584287042 7.5
  endloop
endfacet
facet normal 0.6087614290087279 -0.7933533402912298 -0.0
  outer loop
    vertex 2.6000000000000187 161.9918584287042 7.5
    vertex 2.1236544032709594 161.62634559672907 2.8199664825478975e-15
    vertex 2.6000000000000187 161.9918584287042 2.8199664825478975e-15
  endloop
endfacet
facet normal 0.6087614290087279 -0.7933533402912298 -0.0
  outer loop
    vertex 2.1236544032709594 161.62634559672907 2.8199664825478975e-15
    vertex 2.6000000000000187 161.9918584287042 7.5
    vertex 2.1236544032709594 161.62634559672907 7.5
  endloop
endfacet
facet normal 0.79335334029123 -0.6087614290087278 -0.0
  outer loop
    vertex 2.1236544032709594 161.62634559672907 2.8199664825478975e-15
    vertex 1.7581415712958108 161.15 7.5
    vertex 1.7581415712958108 161.15 2.8199664825478975e-15
  endloop
endfacet
facet normal 0.79335334029123 -0.6087614290087278 -0.0
  outer loop
    vertex 1.7581415712958108 161.15 7.5
    vertex 2.1236544032709594 161.62634559672907 2.8199664825478975e-15
    vertex 2.1236544032709594 161.62634559672907 7.5
  endloop
endfacet
facet normal 0.9238795325112871 -0.38268343236508945 -0.0
  outer loop
    vertex 1.7581415712958108 161.15 2.8199664825478975e-15
    vertex 1.5283705995351624 160.5952838037358 7.5
    vertex 1.5283705995351624 160.5952838037358 2.8199664825478975e-15
  endloop
endfacet
facet normal 0.9238795325112871 -0.38268343236508945 -0.0
  outer loop
    vertex 1.5283705995351624 160.5952838037358 7.5
    vertex 1.7581415712958108 161.15 2.8199664825478975e-15
    vertex 1.7581415712958108 161.15 7.5
  endloop
endfacet
facet normal 0.13052619222005085 0.9914448613738105 0.0
  outer loop
    vertex 3.1547161962642125 7.778370599535141 7.500000000000009
    vertex 3.75000000000001 7.699999999999998 0.0
    vertex 3.1547161962642125 7.778370599535141 0.0
  endloop
endfacet
facet normal 0.13052619222005085 0.9914448613738105 0.0
  outer loop
    vertex 3.75000000000001 7.699999999999998 0.0
    vertex 3.1547161962642125 7.778370599535141 7.500000000000009
    vertex 3.75000000000001 7.699999999999998 7.500000000000009
  endloop
endfacet
facet normal -0.1305261922200528 0.9914448613738104 -0.0
  outer loop
    vertex 3.75000000000001 7.699999999999998 7.500000000000009
    vertex 4.34528380373581 7.778370599535142 0.0
    vertex 3.75000000000001 7.699999999999998 0.0
  endloop
endfacet
facet normal -0.1305261922200528 0.9914448613738104 -0.0
  outer loop
    vertex 4.34528380373581 7.778370599535142 0.0
    vertex 3.75000000000001 7.699999999999998 7.500000000000009
    vertex 4.34528380373581 7.778370599535142 7.500000000000009
  endloop
endfacet
facet normal -0.3826834323650902 0.9238795325112867 -0.0
  outer loop
    vertex 4.34528380373581 7.778370599535142 7.500000000000009
    vertex 4.900000000000011 8.008141571295791 0.0
    vertex 4.34528380373581 7.778370599535142 0.0
  endloop
endfacet
facet normal -0.3826834323650902 0.9238795325112867 -0.0
  outer loop
    vertex 4.900000000000011 8.008141571295791 0.0
    vertex 4.34528380373581 7.778370599535142 7.500000000000009
    vertex 4.900000000000011 8.008141571295791 7.500000000000009
  endloop
endfacet
facet normal -0.6087614290087208 0.7933533402912352 -0.0
  outer loop
    vertex 4.900000000000011 8.008141571295791 7.500000000000009
    vertex 5.376345596729069 8.37365440327094 0.0
    vertex 4.900000000000011 8.008141571295791 0.0
  endloop
endfacet
facet normal -0.6087614290087208 0.7933533402912352 -0.0
  outer loop
    vertex 5.376345596729069 8.37365440327094 0.0
    vertex 4.900000000000011 8.008141571295791 7.500000000000009
    vertex 5.376345596729069 8.37365440327094 7.500000000000009
  endloop
endfacet
facet normal -0.7933533402912359 0.6087614290087198 -0.0
  outer loop
    vertex 5.741858428704219 8.850000000000001 7.500000000000009
    vertex 5.376345596729069 8.37365440327094 0.0
    vertex 5.376345596729069 8.37365440327094 7.500000000000009
  endloop
endfacet
facet normal -0.7933533402912359 0.6087614290087198 -0.0
  outer loop
    vertex 5.376345596729069 8.37365440327094 0.0
    vertex 5.741858428704219 8.850000000000001 7.500000000000009
    vertex 5.741858428704219 8.850000000000001 0.0
  endloop
endfacet
facet normal -0.9238795325112865 0.3826834323650906 -0.0
  outer loop
    vertex 5.971629400464868 9.404716196264202 7.500000000000009
    vertex 5.741858428704219 8.850000000000001 0.0
    vertex 5.741858428704219 8.850000000000001 7.500000000000009
  endloop
endfacet
facet normal -0.9238795325112865 0.3826834323650906 -0.0
  outer loop
    vertex 5.741858428704219 8.850000000000001 0.0
    vertex 5.971629400464868 9.404716196264202 7.500000000000009
    vertex 5.971629400464868 9.404716196264202 0.0
  endloop
endfacet
facet normal -0.9914448613738106 0.13052619222005094 -0.0
  outer loop
    vertex 6.0500000000000105 9.999999999999998 7.500000000000009
    vertex 5.971629400464868 9.404716196264202 0.0
    vertex 5.971629400464868 9.404716196264202 7.500000000000009
  endloop
endfacet
facet normal -0.9914448613738106 0.13052619222005094 -0.0
  outer loop
    vertex 5.971629400464868 9.404716196264202 0.0
    vertex 6.0500000000000105 9.999999999999998 7.500000000000009
    vertex 6.0500000000000105 9.999999999999998 0.0
  endloop
endfacet
facet normal -0.9914448613738104 -0.13052619222005263 -0.0
  outer loop
    vertex 5.971629400464866 10.595283803735798 7.500000000000009
    vertex 6.0500000000000105 9.999999999999998 0.0
    vertex 6.0500000000000105 9.999999999999998 7.500000000000009
  endloop
endfacet
facet normal -0.9914448613738104 -0.13052619222005263 -0.0
  outer loop
    vertex 6.0500000000000105 9.999999999999998 0.0
    vertex 5.971629400464866 10.595283803735798 7.500000000000009
    vertex 5.971629400464866 10.595283803735798 0.0
  endloop
endfacet
facet normal -0.9238795325112865 -0.3826834323650906 -0.0
  outer loop
    vertex 5.7418584287042185 11.149999999999999 7.500000000000009
    vertex 5.971629400464866 10.595283803735798 0.0
    vertex 5.971629400464866 10.595283803735798 7.500000000000009
  endloop
endfacet
facet normal -0.9238795325112865 -0.3826834323650906 -0.0
  outer loop
    vertex 5.971629400464866 10.595283803735798 0.0
    vertex 5.7418584287042185 11.149999999999999 7.500000000000009
    vertex 5.7418584287042185 11.149999999999999 0.0
  endloop
endfacet
facet normal -0.7933533402912357 -0.6087614290087202 -0.0
  outer loop
    vertex 5.3763455967290685 11.62634559672906 7.500000000000009
    vertex 5.7418584287042185 11.149999999999999 0.0
    vertex 5.7418584287042185 11.149999999999999 7.500000000000009
  endloop
endfacet
facet normal -0.7933533402912357 -0.6087614290087202 -0.0
  outer loop
    vertex 5.7418584287042185 11.149999999999999 0.0
    vertex 5.3763455967290685 11.62634559672906 7.500000000000009
    vertex 5.3763455967290685 11.62634559672906 0.0
  endloop
endfacet
facet normal -0.6087614290087202 -0.7933533402912357 -0.0
  outer loop
    vertex 5.3763455967290685 11.62634559672906 7.500000000000009
    vertex 4.900000000000009 11.991858428704209 0.0
    vertex 5.3763455967290685 11.62634559672906 0.0
  endloop
endfacet
facet normal -0.6087614290087202 -0.7933533402912357 -0.0
  outer loop
    vertex 4.900000000000009 11.991858428704209 0.0
    vertex 5.3763455967290685 11.62634559672906 7.500000000000009
    vertex 4.900000000000009 11.991858428704209 7.500000000000009
  endloop
endfacet
facet normal -0.3826834323650894 -0.9238795325112871 -0.0
  outer loop
    vertex 4.900000000000009 11.991858428704209 7.500000000000009
    vertex 4.345283803735807 12.221629400464856 0.0
    vertex 4.900000000000009 11.991858428704209 0.0
  endloop
endfacet
facet normal -0.3826834323650894 -0.9238795325112871 -0.0
  outer loop
    vertex 4.345283803735807 12.221629400464856 0.0
    vertex 4.900000000000009 11.991858428704209 7.500000000000009
    vertex 4.345283803735807 12.221629400464856 7.500000000000009
  endloop
endfacet
facet normal -0.13052619222005107 -0.9914448613738106 -0.0
  outer loop
    vertex 4.345283803735807 12.221629400464856 7.500000000000009
    vertex 3.75000000000001 12.299999999999999 0.0
    vertex 4.345283803735807 12.221629400464856 0.0
  endloop
endfacet
facet normal -0.13052619222005107 -0.9914448613738106 -0.0
  outer loop
    vertex 3.75000000000001 12.299999999999999 0.0
    vertex 4.345283803735807 12.221629400464856 7.500000000000009
    vertex 3.75000000000001 12.299999999999999 7.500000000000009
  endloop
endfacet
facet normal 0.130526192220053 -0.9914448613738103 -0.0
  outer loop
    vertex 3.75000000000001 12.299999999999999 7.500000000000009
    vertex 3.1547161962642116 12.221629400464854 0.0
    vertex 3.75000000000001 12.299999999999999 0.0
  endloop
endfacet
facet normal 0.130526192220053 -0.9914448613738103 -0.0
  outer loop
    vertex 3.1547161962642116 12.221629400464854 0.0
    vertex 3.75000000000001 12.299999999999999 7.500000000000009
    vertex 3.1547161962642116 12.221629400464854 7.500000000000009
  endloop
endfacet
facet normal 0.3826834323650895 -0.923879532511287 -0.0
  outer loop
    vertex 3.1547161962642116 12.221629400464854 7.500000000000009
    vertex 2.6000000000000094 11.991858428704207 0.0
    vertex 3.1547161962642116 12.221629400464854 0.0
  endloop
endfacet
facet normal 0.3826834323650895 -0.923879532511287 -0.0
  outer loop
    vertex 2.6000000000000094 11.991858428704207 0.0
    vertex 3.1547161962642116 12.221629400464854 7.500000000000009
    vertex 2.6000000000000094 11.991858428704207 7.500000000000009
  endloop
endfacet
facet normal 0.6087614290087208 -0.7933533402912352 -0.0
  outer loop
    vertex 2.6000000000000094 11.991858428704207 7.500000000000009
    vertex 2.1236544032709506 11.626345596729058 0.0
    vertex 2.6000000000000094 11.991858428704207 0.0
  endloop
endfacet
facet normal 0.6087614290087208 -0.7933533402912352 -0.0
  outer loop
    vertex 2.1236544032709506 11.626345596729058 0.0
    vertex 2.6000000000000094 11.991858428704207 7.500000000000009
    vertex 2.1236544032709506 11.626345596729058 7.500000000000009
  endloop
endfacet
facet normal 0.7933533402912353 -0.6087614290087204 -0.0
  outer loop
    vertex 2.1236544032709506 11.626345596729058 0.0
    vertex 1.7581415712958008 11.149999999999999 7.500000000000009
    vertex 1.7581415712958008 11.149999999999999 0.0
  endloop
endfacet
facet normal 0.7933533402912353 -0.6087614290087204 -0.0
  outer loop
    vertex 1.7581415712958008 11.149999999999999 7.500000000000009
    vertex 2.1236544032709506 11.626345596729058 0.0
    vertex 2.1236544032709506 11.626345596729058 7.500000000000009
  endloop
endfacet
facet normal 0.9238795325112868 -0.3826834323650897 -0.0
  outer loop
    vertex 1.7581415712958008 11.149999999999999 0.0
    vertex 1.5283705995351529 10.595283803735796 7.500000000000009
    vertex 1.5283705995351529 10.595283803735796 0.0
  endloop
endfacet
facet normal 0.9238795325112868 -0.3826834323650897 -0.0
  outer loop
    vertex 1.5283705995351529 10.595283803735796 7.500000000000009
    vertex 1.7581415712958008 11.149999999999999 0.0
    vertex 1.7581415712958008 11.149999999999999 7.500000000000009
  endloop
endfacet
facet normal 0.9914448613738105 -0.1305261922200515 -0.0
  outer loop
    vertex 1.5283705995351529 10.595283803735796 0.0
    vertex 1.45000000000001 9.999999999999998 7.500000000000009
    vertex 1.45000000000001 9.999999999999998 0.0
  endloop
endfacet
facet normal 0.9914448613738105 -0.1305261922200515 -0.0
  outer loop
    vertex 1.45000000000001 9.999999999999998 7.500000000000009
    vertex 1.5283705995351529 10.595283803735796 0.0
    vertex 1.5283705995351529 10.595283803735796 7.500000000000009
  endloop
endfacet
facet normal 0.9914448613738105 0.1305261922200518 0.0
  outer loop
    vertex 1.45000000000001 9.999999999999998 0.0
    vertex 1.5283705995351533 9.4047161962642 7.500000000000009
    vertex 1.5283705995351533 9.4047161962642 0.0
  endloop
endfacet
facet normal 0.9914448613738105 0.1305261922200518 0.0
  outer loop
    vertex 1.5283705995351533 9.4047161962642 7.500000000000009
    vertex 1.45000000000001 9.999999999999998 0.0
    vertex 1.45000000000001 9.999999999999998 7.500000000000009
  endloop
endfacet
facet normal 0.9238795325112868 0.3826834323650897 0.0
  outer loop
    vertex 1.5283705995351533 9.4047161962642 0.0
    vertex 1.7581415712958013 8.849999999999998 7.500000000000009
    vertex 1.7581415712958013 8.849999999999998 0.0
  endloop
endfacet
facet normal 0.9238795325112868 0.3826834323650897 0.0
  outer loop
    vertex 1.7581415712958013 8.849999999999998 7.500000000000009
    vertex 1.5283705995351533 9.4047161962642 0.0
    vertex 1.5283705995351533 9.4047161962642 7.500000000000009
  endloop
endfacet
facet normal 0.7933533402912347 0.6087614290087212 0.0
  outer loop
    vertex 1.7581415712958013 8.849999999999998 0.0
    vertex 2.1236544032709506 8.37365440327094 7.500000000000009
    vertex 2.1236544032709506 8.37365440327094 0.0
  endloop
endfacet
facet normal 0.7933533402912347 0.6087614290087212 0.0
  outer loop
    vertex 2.1236544032709506 8.37365440327094 7.500000000000009
    vertex 1.7581415712958013 8.849999999999998 0.0
    vertex 1.7581415712958013 8.849999999999998 7.500000000000009
  endloop
endfacet
facet normal 0.6087614290087217 0.7933533402912345 0.0
  outer loop
    vertex 2.1236544032709506 8.37365440327094 7.500000000000009
    vertex 2.60000000000001 8.00814157129579 0.0
    vertex 2.1236544032709506 8.37365440327094 0.0
  endloop
endfacet
facet normal 0.6087614290087217 0.7933533402912345 0.0
  outer loop
    vertex 2.60000000000001 8.00814157129579 0.0
    vertex 2.1236544032709506 8.37365440327094 7.500000000000009
    vertex 2.60000000000001 8.00814157129579 7.500000000000009
  endloop
endfacet
facet normal 0.3826834323650895 0.923879532511287 0.0
  outer loop
    vertex 2.60000000000001 8.00814157129579 7.500000000000009
    vertex 3.1547161962642125 7.778370599535141 0.0
    vertex 2.60000000000001 8.00814157129579 0.0
  endloop
endfacet
facet normal 0.3826834323650895 0.923879532511287 0.0
  outer loop
    vertex 3.1547161962642125 7.778370599535141 0.0
    vertex 2.60000000000001 8.00814157129579 7.500000000000009
    vertex 3.1547161962642125 7.778370599535141 7.500000000000009
  endloop
endfacet
endsolid Leg
