solid Leg
facet normal -1.0 6.015928496102201e-15 0.0
  outer loop
    vertex 170.0 7.499999999999927 7.5
    vertex 169.99999999999997 -4.864442182395123e-14 -3.524958103184872e-16
    vertex 169.99999999999997 -4.864442182395123e-14 7.5
  endloop
endfacet
facet normal -1.0 6.015928496102201e-15 0.0
  outer loop
    vertex 169.99999999999997 -4.864442182395123e-14 -3.524958103184872e-16
    vertex 170.0 7.499999999999927 7.5
    vertex 170.0 7.499999999999927 -3.524958103184872e-16
  endloop
endfacet
facet normal -2.529675815226791e-16 -1.0 -7.519910620127723e-16
  outer loop
    vertex 169.99999999999997 -4.864442182395123e-14 7.5
    vertex 0.0 0.0 0.0
    vertex 169.99999999999997 -4.864442182395123e-14 -3.524958103184872e-16
  endloop
endfacet
facet normal -2.529675815226791e-16 -1.0 -7.519910620127723e-16
  outer loop
    vertex 0.0 0.0 0.0
    vertex 169.99999999999997 -4.864442182395123e-14 7.5
    vertex 1.4099832412739487e-15 -1.127986593019159e-14 7.500000000000009
  endloop
endfacet
facet normal 4.9764114397904076e-17 -1.896888178395202e-31 1.0
  outer loop
    vertex 1.4099832412739487e-15 -1.127986593019159e-14 7.500000000000009
    vertex 7.778370599535142 3.1547161962641974 7.500000000000009
    vertex 7.7 3.7500000000000018 7.500000000000009
  endloop
endfacet
facet normal 4.9764114397904076e-17 -1.896888178395202e-31 1.0
  outer loop
    vertex 7.778370599535142 3.1547161962641974 7.500000000000009
    vertex 1.4099832412739487e-15 -1.127986593019159e-14 7.500000000000009
    vertex 8.008141571295786 2.5999999999999965 7.500000000000009
  endloop
endfacet
facet normal 4.9764114397904076e-17 -1.896888178395202e-31 1.0
  outer loop
    vertex 8.008141571295786 2.5999999999999965 7.500000000000009
    vertex 1.4099832412739487e-15 -1.127986593019159e-14 7.500000000000009
    vertex 8.373654403270937 2.123654403270938 7.500000000000009
  endloop
endfacet
facet normal 4.9764114397904076e-17 -1.896888178395202e-31 1.0
  outer loop
    vertex 8.373654403270937 2.123654403270938 7.500000000000009
    vertex 1.4099832412739487e-15 -1.127986593019159e-14 7.500000000000009
    vertex 8.849999999999998 1.7581415712957877 7.500000000000009
  endloop
endfacet
facet normal 4.9764114397904076e-17 -1.896888178395202e-31 1.0
  outer loop
    vertex 8.849999999999998 1.7581415712957877 7.500000000000009
    vertex 1.4099832412739487e-15 -1.127986593019159e-14 7.500000000000009
    vertex 9.404716196264204 1.5283705995351384 7.500000000000009
  endloop
endfacet
facet normal 4.9764114397904076e-17 -1.896888178395202e-31 1.0
  outer loop
    vertex 9.404716196264204 1.5283705995351384 7.500000000000009
    vertex 1.4099832412739487e-15 -1.127986593019159e-14 7.500000000000009
    vertex 9.999999999999998 1.4500000000000006 7.500000000000009
  endloop
endfacet
facet normal 4.9764114397904076e-17 -1.896888178395202e-31 1.0
  outer loop
    vertex 9.999999999999998 1.4500000000000006 7.500000000000009
    vertex 1.4099832412739487e-15 -1.127986593019159e-14 7.500000000000009
    vertex 169.99999999999997 -4.864442182395123e-14 7.5
  endloop
endfacet
facet normal 4.9764114397904076e-17 -1.896888178395202e-31 1.0
  outer loop
    vertex 9.999999999999998 1.4500000000000006 7.500000000000009
    vertex 169.99999999999997 -4.864442182395123e-14 7.5
    vertex 10.595283803735798 1.528370599535139 7.500000000000009
  endloop
endfacet
facet normal 4.9764114397904076e-17 -1.896888178395202e-31 1.0
  outer loop
    vertex 10.595283803735798 1.528370599535139 7.500000000000009
    vertex 169.99999999999997 -4.864442182395123e-14 7.5
    vertex 11.149999999999997 1.758141571295787 7.500000000000009
  endloop
endfacet
facet normal 4.9764114397904076e-17 -1.896888178395202e-31 1.0
  outer loop
    vertex 11.149999999999997 1.758141571295787 7.500000000000009
    vertex 169.99999999999997 -4.864442182395123e-14 7.5
    vertex 11.626345596729063 2.123654403270937 7.500000000000009
  endloop
endfacet
facet normal 4.9764114397904076e-17 -1.896888178395202e-31 1.0
  outer loop
    vertex 11.626345596729063 2.123654403270937 7.500000000000009
    vertex 169.99999999999997 -4.864442182395123e-14 7.5
    vertex 11.991858428704214 2.599999999999994 7.500000000000009
  endloop
endfacet
facet normal 4.9764114397904076e-17 -1.896888178395202e-31 1.0
  outer loop
    vertex 11.991858428704214 2.599999999999994 7.500000000000009
    vertex 169.99999999999997 -4.864442182395123e-14 7.5
    vertex 12.221629400464858 3.1547161962641943 7.500000000000009
  endloop
endfacet
facet normal 4.9764114397904076e-17 -1.896888178395202e-31 1.0
  outer loop
    vertex 12.221629400464858 3.1547161962641943 7.500000000000009
    vertex 169.99999999999997 -4.864442182395123e-14 7.5
    vertex 12.3 3.7499999999999973 7.500000000000009
  endloop
endfacet
facet normal 4.9764114397904076e-17 -1.896888178395202e-31 1.0
  outer loop
    vertex 12.3 3.7499999999999973 7.500000000000009
    vertex 169.99999999999997 -4.864442182395123e-14 7.5
    vertex 159.4047161962642 1.5283705995350911 7.5
  endloop
endfacet
facet normal 4.9764114397904076e-17 -1.896888178395202e-31 1.0
  outer loop
    vertex 12.3 3.7499999999999973 7.500000000000009
    vertex 159.4047161962642 1.5283705995350911 7.5
    vertex 158.85000000000002 1.7581415712956898 7.5
  endloop
endfacet
facet normal 4.9764114397904076e-17 -1.896888178395202e-31 1.0
  outer loop
    vertex 12.3 3.7499999999999973 7.500000000000009
    vertex 158.85000000000002 1.7581415712956898 7.5
    vertex 158.3736544032709 2.1236544032709026 7.5
  endloop
endfacet
facet normal 4.9764114397904076e-17 -1.896888178395202e-31 1.0
  outer loop
    vertex 12.3 3.7499999999999973 7.500000000000009
    vertex 158.3736544032709 2.1236544032709026 7.5
    vertex 158.00814157129582 2.599999999999941 7.5
  endloop
endfacet
facet normal 4.9764114397904076e-17 -1.896888178395202e-31 1.0
  outer loop
    vertex 12.3 3.7499999999999973 7.500000000000009
    vertex 158.00814157129582 2.599999999999941 7.5
    vertex 157.77837059953512 3.1547161962641446 7.5
  endloop
endfacet
facet normal 4.9764114397904076e-17 -1.896888178395202e-31 1.0
  outer loop
    vertex 12.3 3.7499999999999973 7.500000000000009
    vertex 157.77837059953512 3.1547161962641446 7.5
    vertex 157.70000000000002 3.749999999999894 7.5
  endloop
endfacet
facet normal 4.9764114397904076e-17 -1.896888178395202e-31 1.0
  outer loop
    vertex 159.4047161962642 1.5283705995350911 7.5
    vertex 169.99999999999997 -4.864442182395123e-14 7.5
    vertex 159.99999999999994 1.4499999999999262 7.5
  endloop
endfacet
facet normal 4.9764114397904076e-17 -1.896888178395202e-31 1.0
  outer loop
    vertex 159.99999999999994 1.4499999999999262 7.5
    vertex 169.99999999999997 -4.864442182395123e-14 7.5
    vertex 160.59528380373584 1.5283705995350798 7.5
  endloop
endfacet
facet normal 4.9764114397904076e-17 -1.896888178395202e-31 1.0
  outer loop
    vertex 160.59528380373584 1.5283705995350798 7.5
    vertex 169.99999999999997 -4.864442182395123e-14 7.5
    vertex 161.14999999999998 1.758141571295718 7.5
  endloop
endfacet
facet normal 4.9764114397904076e-17 -1.896888178395202e-31 1.0
  outer loop
    vertex 161.14999999999998 1.758141571295718 7.5
    vertex 169.99999999999997 -4.864442182395123e-14 7.5
    vertex 161.6263455967291 2.123654403270897 7.5
  endloop
endfacet
facet normal 4.9764114397904076e-17 -1.896888178395202e-31 1.0
  outer loop
    vertex 161.6263455967291 2.123654403270897 7.5
    vertex 169.99999999999997 -4.864442182395123e-14 7.5
    vertex 161.99185842870426 2.599999999999958 7.5
  endloop
endfacet
facet normal 4.9764114397904076e-17 -1.896888178395202e-31 1.0
  outer loop
    vertex 161.99185842870426 2.599999999999958 7.5
    vertex 169.99999999999997 -4.864442182395123e-14 7.5
    vertex 162.22162940046488 3.1547161962641272 7.5
  endloop
endfacet
facet normal 4.9764114397904076e-17 -1.896888178395202e-31 1.0
  outer loop
    vertex 162.22162940046488 3.1547161962641272 7.5
    vertex 169.99999999999997 -4.864442182395123e-14 7.5
    vertex 162.29999999999998 3.7499999999999556 7.5
  endloop
endfacet
facet normal 4.9764114397904076e-17 -1.896888178395202e-31 1.0
  outer loop
    vertex 0.0 7.500000000000007 7.500000000000009
    vertex 9.999999999999998 6.049999999999998 7.500000000000009
    vertex 170.0 7.499999999999927 7.5
  endloop
endfacet
facet normal 4.9764114397904076e-17 -1.896888178395202e-31 1.0
  outer loop
    vertex 9.999999999999998 6.049999999999998 7.500000000000009
    vertex 0.0 7.500000000000007 7.500000000000009
    vertex 9.404716196264204 5.971629400464854 7.500000000000009
  endloop
endfacet
facet normal 4.9764114397904076e-17 -1.896888178395202e-31 1.0
  outer loop
    vertex 9.404716196264204 5.971629400464854 7.500000000000009
    vertex 0.0 7.500000000000007 7.500000000000009
    vertex 8.849999999999998 5.74185842870421 7.500000000000009
  endloop
endfacet
facet normal 4.9764114397904076e-17 -1.896888178395202e-31 1.0
  outer loop
    vertex 8.849999999999998 5.74185842870421 7.500000000000009
    vertex 0.0 7.500000000000007 7.500000000000009
    vertex 1.4099832412739487e-15 -1.127986593019159e-14 7.500000000000009
  endloop
endfacet
facet normal 4.9764114397904076e-17 -1.896888178395202e-31 1.0
  outer loop
    vertex 8.849999999999998 5.74185842870421 7.500000000000009
    vertex 1.4099832412739487e-15 -1.127986593019159e-14 7.500000000000009
    vertex 8.373654403270942 5.37634559672906 7.500000000000009
  endloop
endfacet
facet normal 4.9764114397904076e-17 -1.896888178395202e-31 1.0
  outer loop
    vertex 8.373654403270942 5.37634559672906 7.500000000000009
    vertex 1.4099832412739487e-15 -1.127986593019159e-14 7.500000000000009
    vertex 8.008141571295791 4.9 7.500000000000009
  endloop
endfacet
facet normal 4.9764114397904076e-17 -1.896888178395202e-31 1.0
  outer loop
    vertex 8.008141571295791 4.9 7.500000000000009
    vertex 1.4099832412739487e-15 -1.127986593019159e-14 7.500000000000009
    vertex 7.778370599535142 4.345283803735796 7.500000000000009
  endloop
endfacet
facet normal 4.9764114397904076e-17 -1.896888178395202e-31 1.0
  outer loop
    vertex 7.778370599535142 4.345283803735796 7.500000000000009
    vertex 1.4099832412739487e-15 -1.127986593019159e-14 7.500000000000009
    vertex 7.7 3.7500000000000018 7.500000000000009
  endloop
endfacet
facet normal 4.9764114397904076e-17 -1.896888178395202e-31 1.0
  outer loop
    vertex 170.0 7.499999999999927 7.5
    vertex 9.999999999999998 6.049999999999998 7.500000000000009
    vertex 10.595283803735798 5.971629400464854 7.500000000000009
  endloop
endfacet
facet normal 4.9764114397904076e-17 -1.896888178395202e-31 1.0
  outer loop
    vertex 170.0 7.499999999999927 7.5
    vertex 10.595283803735798 5.971629400464854 7.500000000000009
    vertex 11.150000000000002 5.741858428704207 7.500000000000009
  endloop
endfacet
facet normal 4.9764114397904076e-17 -1.896888178395202e-31 1.0
  outer loop
    vertex 170.0 7.499999999999927 7.5
    vertex 11.150000000000002 5.741858428704207 7.500000000000009
    vertex 11.626345596729063 5.376345596729059 7.500000000000009
  endloop
endfacet
facet normal 4.9764114397904076e-17 -1.896888178395202e-31 1.0
  outer loop
    vertex 170.0 7.499999999999927 7.5
    vertex 11.626345596729063 5.376345596729059 7.500000000000009
    vertex 11.99185842870422 4.899999999999996 7.500000000000009
  endloop
endfacet
facet normal 4.9764114397904076e-17 -1.896888178395202e-31 1.0
  outer loop
    vertex 170.0 7.499999999999927 7.5
    vertex 11.99185842870422 4.899999999999996 7.500000000000009
    vertex 12.221629400464852 4.345283803735799 7.500000000000009
  endloop
endfacet
facet normal 4.9764114397904076e-17 -1.896888178395202e-31 1.0
  outer loop
    vertex 170.0 7.499999999999927 7.5
    vertex 12.221629400464852 4.345283803735799 7.500000000000009
    vertex 12.3 3.7499999999999973 7.500000000000009
  endloop
endfacet
facet normal 4.9764114397904076e-17 -1.896888178395202e-31 1.0
  outer loop
    vertex 170.0 7.499999999999927 7.5
    vertex 12.3 3.7499999999999973 7.500000000000009
    vertex 159.40471619626416 5.971629400464775 7.5
  endloop
endfacet
facet normal 4.9764114397904076e-17 -1.896888178395202e-31 1.0
  outer loop
    vertex 159.40471619626416 5.971629400464775 7.5
    vertex 12.3 3.7499999999999973 7.500000000000009
    vertex 158.85000000000002 5.741858428704143 7.5
  endloop
endfacet
facet normal 4.9764114397904076e-17 -1.896888178395202e-31 1.0
  outer loop
    vertex 158.85000000000002 5.741858428704143 7.5
    vertex 12.3 3.7499999999999973 7.500000000000009
    vertex 158.37365440327096 5.376345596729009 7.5
  endloop
endfacet
facet normal 4.9764114397904076e-17 -1.896888178395202e-31 1.0
  outer loop
    vertex 158.37365440327096 5.376345596729009 7.5
    vertex 12.3 3.7499999999999973 7.500000000000009
    vertex 158.0081415712958 4.899999999999914 7.5
  endloop
endfacet
facet normal 4.9764114397904076e-17 -1.896888178395202e-31 1.0
  outer loop
    vertex 158.0081415712958 4.899999999999914 7.5
    vertex 12.3 3.7499999999999973 7.500000000000009
    vertex 157.77837059953518 4.345283803735733 7.5
  endloop
endfacet
facet normal 4.9764114397904076e-17 -1.896888178395202e-31 1.0
  outer loop
    vertex 157.77837059953518 4.345283803735733 7.5
    vertex 12.3 3.7499999999999973 7.500000000000009
    vertex 157.70000000000002 3.749999999999894 7.5
  endloop
endfacet
facet normal 4.9764114397904076e-17 -1.896888178395202e-31 1.0
  outer loop
    vertex 170.0 7.499999999999927 7.5
    vertex 159.40471619626416 5.971629400464775 7.5
    vertex 160.00000000000003 6.049999999999952 7.5
  endloop
endfacet
facet normal 4.9764114397904076e-17 -1.896888178395202e-31 1.0
  outer loop
    vertex 170.0 7.499999999999927 7.5
    vertex 160.00000000000003 6.049999999999952 7.5
    vertex 160.5952838037358 5.971629400464804 7.5
  endloop
endfacet
facet normal 4.9764114397904076e-17 -1.896888178395202e-31 1.0
  outer loop
    vertex 170.0 7.499999999999927 7.5
    vertex 160.5952838037358 5.971629400464804 7.5
    vertex 161.15000000000003 5.741858428704126 7.5
  endloop
endfacet
facet normal 4.9764114397904076e-17 -1.896888178395202e-31 1.0
  outer loop
    vertex 170.0 7.499999999999927 7.5
    vertex 161.15000000000003 5.741858428704126 7.5
    vertex 161.62634559672904 5.376345596728975 7.5
  endloop
endfacet
facet normal 4.9764114397904076e-17 -1.896888178395202e-31 1.0
  outer loop
    vertex 170.0 7.499999999999927 7.5
    vertex 161.62634559672904 5.376345596728975 7.5
    vertex 161.99185842870418 4.899999999999926 7.5
  endloop
endfacet
facet normal 4.9764114397904076e-17 -1.896888178395202e-31 1.0
  outer loop
    vertex 170.0 7.499999999999927 7.5
    vertex 161.99185842870418 4.899999999999926 7.5
    vertex 162.22162940046488 4.345283803735728 7.5
  endloop
endfacet
facet normal 4.9764114397904076e-17 -1.896888178395202e-31 1.0
  outer loop
    vertex 170.0 7.499999999999927 7.5
    vertex 162.22162940046488 4.345283803735728 7.5
    vertex 162.29999999999998 3.7499999999999556 7.5
  endloop
endfacet
facet normal 4.9764114397904076e-17 -1.896888178395202e-31 1.0
  outer loop
    vertex 170.0 7.499999999999927 7.5
    vertex 162.29999999999998 3.7499999999999556 7.5
    vertex 169.99999999999997 -4.864442182395123e-14 7.5
  endloop
endfacet
facet normal 4.727590867800887e-16 1.0 -2.1808808627099495e-31
  outer loop
    vertex 0.0 7.500000000000007 7.500000000000009
    vertex 170.0 7.499999999999927 -3.524958103184872e-16
    vertex 0.0 7.500000000000007 -3.524958103184872e-16
  endloop
endfacet
facet normal 4.727590867800887e-16 1.0 -2.1808808627099495e-31
  outer loop
    vertex 170.0 7.499999999999927 -3.524958103184872e-16
    vertex 0.0 7.500000000000007 7.500000000000009
    vertex 170.0 7.499999999999927 7.5
  endloop
endfacet
facet normal -1.0367523832896775e-18 -2.3499720687899227e-17 -1.0
  outer loop
    vertex 0.0 7.500000000000007 -3.524958103184872e-16
    vertex 8.849999999999998 5.74185842870421 -3.524958103184872e-16
    vertex 0.0 0.0 0.0
  endloop
endfacet
facet normal -1.0367523832896775e-18 -2.3499720687899227e-17 -1.0
  outer loop
    vertex 8.849999999999998 5.74185842870421 -3.524958103184872e-16
    vertex 0.0 7.500000000000007 -3.524958103184872e-16
    vertex 9.404716196264204 5.971629400464854 -3.524958103184872e-16
  endloop
endfacet
facet normal -1.0367523832896775e-18 -2.3499720687899227e-17 -1.0
  outer loop
    vertex 9.404716196264204 5.971629400464854 -3.524958103184872e-16
    vertex 0.0 7.500000000000007 -3.524958103184872e-16
    vertex 9.999999999999998 6.049999999999998 -3.524958103184872e-16
  endloop
endfacet
facet normal -1.0367523832896775e-18 -2.3499720687899227e-17 -1.0
  outer loop
    vertex 9.999999999999998 6.049999999999998 -3.524958103184872e-16
    vertex 0.0 7.500000000000007 -3.524958103184872e-16
    vertex 170.0 7.499999999999927 -3.524958103184872e-16
  endloop
endfacet
facet normal -1.0367523832896775e-18 -2.3499720687899227e-17 -1.0
  outer loop
    vertex 0.0 0.0 0.0
    vertex 8.849999999999998 5.74185842870421 -3.524958103184872e-16
    vertex 8.373654403270942 5.37634559672906 -3.524958103184872e-16
  endloop
endfacet
facet normal -1.0367523832896775e-18 -2.3499720687899227e-17 -1.0
  outer loop
    vertex 0.0 0.0 0.0
    vertex 8.373654403270942 5.37634559672906 -3.524958103184872e-16
    vertex 8.008141571295791 4.9 -3.524958103184872e-16
  endloop
endfacet
facet normal -1.0367523832896775e-18 -2.3499720687899227e-17 -1.0
  outer loop
    vertex 0.0 0.0 0.0
    vertex 8.008141571295791 4.9 -3.524958103184872e-16
    vertex 7.778370599535142 4.345283803735796 -3.524958103184872e-16
  endloop
endfacet
facet normal -1.0367523832896775e-18 -2.3499720687899227e-17 -1.0
  outer loop
    vertex 0.0 0.0 0.0
    vertex 7.778370599535142 4.345283803735796 -3.524958103184872e-16
    vertex 7.7 3.7500000000000018 -3.524958103184872e-16
  endloop
endfacet
facet normal -1.0367523832896775e-18 -2.3499720687899227e-17 -1.0
  outer loop
    vertex 9.999999999999998 6.049999999999998 -3.524958103184872e-16
    vertex 170.0 7.499999999999927 -3.524958103184872e-16
    vertex 10.595283803735798 5.971629400464854 -3.524958103184872e-16
  endloop
endfacet
facet normal -1.0367523832896775e-18 -2.3499720687899227e-17 -1.0
  outer loop
    vertex 10.595283803735798 5.971629400464854 -3.524958103184872e-16
    vertex 170.0 7.499999999999927 -3.524958103184872e-16
    vertex 11.150000000000002 5.741858428704207 -3.524958103184872e-16
  endloop
endfacet
facet normal -1.0367523832896775e-18 -2.3499720687899227e-17 -1.0
  outer loop
    vertex 11.150000000000002 5.741858428704207 -3.524958103184872e-16
    vertex 170.0 7.499999999999927 -3.524958103184872e-16
    vertex 11.626345596729063 5.376345596729059 -3.524958103184872e-16
  endloop
endfacet
facet normal -1.0367523832896775e-18 -2.3499720687899227e-17 -1.0
  outer loop
    vertex 11.626345596729063 5.376345596729059 -3.524958103184872e-16
    vertex 170.0 7.499999999999927 -3.524958103184872e-16
    vertex 11.99185842870422 4.899999999999996 -3.524958103184872e-16
  endloop
endfacet
facet normal -1.0367523832896775e-18 -2.3499720687899227e-17 -1.0
  outer loop
    vertex 11.99185842870422 4.899999999999996 -3.524958103184872e-16
    vertex 170.0 7.499999999999927 -3.524958103184872e-16
    vertex 12.221629400464852 4.345283803735799 -3.524958103184872e-16
  endloop
endfacet
facet normal -1.0367523832896775e-18 -2.3499720687899227e-17 -1.0
  outer loop
    vertex 12.221629400464852 4.345283803735799 -3.524958103184872e-16
    vertex 170.0 7.499999999999927 -3.524958103184872e-16
    vertex 12.3 3.7499999999999973 -3.524958103184872e-16
  endloop
endfacet
facet normal -1.0367523832896775e-18 -2.3499720687899227e-17 -1.0
  outer loop
    vertex 12.3 3.7499999999999973 -3.524958103184872e-16
    vertex 170.0 7.499999999999927 -3.524958103184872e-16
    vertex 159.40471619626416 5.971629400464775 2.46747067222941e-15
  endloop
endfacet
facet normal -1.0367523832896775e-18 -2.3499720687899227e-17 -1.0
  outer loop
    vertex 12.3 3.7499999999999973 -3.524958103184872e-16
    vertex 159.40471619626416 5.971629400464775 2.46747067222941e-15
    vertex 158.85000000000002 5.741858428704143 2.46747067222941e-15
  endloop
endfacet
facet normal -1.0367523832896775e-18 -2.3499720687899227e-17 -1.0
  outer loop
    vertex 12.3 3.7499999999999973 -3.524958103184872e-16
    vertex 158.85000000000002 5.741858428704143 2.46747067222941e-15
    vertex 158.37365440327096 5.376345596729009 2.46747067222941e-15
  endloop
endfacet
facet normal -1.0367523832896775e-18 -2.3499720687899227e-17 -1.0
  outer loop
    vertex 12.3 3.7499999999999973 -3.524958103184872e-16
    vertex 158.37365440327096 5.376345596729009 2.46747067222941e-15
    vertex 158.0081415712958 4.899999999999914 2.46747067222941e-15
  endloop
endfacet
facet normal -1.0367523832896775e-18 -2.3499720687899227e-17 -1.0
  outer loop
    vertex 12.3 3.7499999999999973 -3.524958103184872e-16
    vertex 158.0081415712958 4.899999999999914 2.46747067222941e-15
    vertex 157.77837059953518 4.345283803735733 2.46747067222941e-15
  endloop
endfacet
facet normal -1.0367523832896775e-18 -2.3499720687899227e-17 -1.0
  outer loop
    vertex 12.3 3.7499999999999973 -3.524958103184872e-16
    vertex 157.77837059953518 4.345283803735733 2.46747067222941e-15
    vertex 157.70000000000002 3.749999999999894 2.46747067222941e-15
  endloop
endfacet
facet normal -1.0367523832896775e-18 -2.3499720687899227e-17 -1.0
  outer loop
    vertex 159.40471619626416 5.971629400464775 2.46747067222941e-15
    vertex 170.0 7.499999999999927 -3.524958103184872e-16
    vertex 160.00000000000003 6.049999999999952 2.46747067222941e-15
  endloop
endfacet
facet normal -1.0367523832896775e-18 -2.3499720687899227e-17 -1.0
  outer loop
    vertex 160.00000000000003 6.049999999999952 2.46747067222941e-15
    vertex 170.0 7.499999999999927 -3.524958103184872e-16
    vertex 160.5952838037358 5.971629400464804 2.46747067222941e-15
  endloop
endfacet
facet normal -1.0367523832896775e-18 -2.3499720687899227e-17 -1.0
  outer loop
    vertex 160.5952838037358 5.971629400464804 2.46747067222941e-15
    vertex 170.0 7.499999999999927 -3.524958103184872e-16
    vertex 161.15000000000003 5.741858428704126 2.46747067222941e-15
  endloop
endfacet
facet normal -1.0367523832896775e-18 -2.3499720687899227e-17 -1.0
  outer loop
    vertex 161.15000000000003 5.741858428704126 2.46747067222941e-15
    vertex 170.0 7.499999999999927 -3.524958103184872e-16
    vertex 161.62634559672904 5.376345596728975 2.46747067222941e-15
  endloop
endfacet
facet normal -1.0367523832896775e-18 -2.3499720687899227e-17 -1.0
  outer loop
    vertex 161.62634559672904 5.376345596728975 2.46747067222941e-15
    vertex 170.0 7.499999999999927 -3.524958103184872e-16
    vertex 161.99185842870418 4.899999999999926 2.46747067222941e-15
  endloop
endfacet
facet normal -1.0367523832896775e-18 -2.3499720687899227e-17 -1.0
  outer loop
    vertex 161.99185842870418 4.899999999999926 2.46747067222941e-15
    vertex 170.0 7.499999999999927 -3.524958103184872e-16
    vertex 162.22162940046488 4.345283803735728 2.46747067222941e-15
  endloop
endfacet
facet normal -1.0367523832896775e-18 -2.3499720687899227e-17 -1.0
  outer loop
    vertex 162.22162940046488 4.345283803735728 2.46747067222941e-15
    vertex 170.0 7.499999999999927 -3.524958103184872e-16
    vertex 162.29999999999998 3.7499999999999556 2.46747067222941e-15
  endloop
endfacet
facet normal -1.0367523832896775e-18 -2.3499720687899227e-17 -1.0
  outer loop
    vertex 162.29999999999998 3.7499999999999556 2.46747067222941e-15
    vertex 170.0 7.499999999999927 -3.524958103184872e-16
    vertex 169.99999999999997 -4.864442182395123e-14 -3.524958103184872e-16
  endloop
endfacet
facet normal -1.0367523832896775e-18 -2.3499720687899227e-17 -1.0
  outer loop
    vertex 0.0 0.0 0.0
    vertex 9.999999999999998 1.4500000000000006 -3.524958103184872e-16
    vertex 169.99999999999997 -4.864442182395123e-14 -3.524958103184872e-16
  endloop
endfacet
facet normal -1.0367523832896775e-18 -2.3499720687899227e-17 -1.0
  outer loop
    vertex 9.999999999999998 1.4500000000000006 -3.524958103184872e-16
    vertex 0.0 0.0 0.0
    vertex 9.404716196264204 1.5283705995351384 -3.524958103184872e-16
  endloop
endfacet
facet normal -1.0367523832896775e-18 -2.3499720687899227e-17 -1.0
  outer loop
    vertex 9.404716196264204 1.5283705995351384 -3.524958103184872e-16
    vertex 0.0 0.0 0.0
    vertex 8.849999999999998 1.7581415712957877 -3.524958103184872e-16
  endloop
endfacet
facet normal -1.0367523832896775e-18 -2.3499720687899227e-17 -1.0
  outer loop
    vertex 8.849999999999998 1.7581415712957877 -3.524958103184872e-16
    vertex 0.0 0.0 0.0
    vertex 8.373654403270937 2.123654403270938 -3.524958103184872e-16
  endloop
endfacet
facet normal -1.0367523832896775e-18 -2.3499720687899227e-17 -1.0
  outer loop
    vertex 8.373654403270937 2.123654403270938 -3.524958103184872e-16
    vertex 0.0 0.0 0.0
    vertex 8.008141571295786 2.5999999999999965 -3.524958103184872e-16
  endloop
endfacet
facet normal -1.0367523832896775e-18 -2.3499720687899227e-17 -1.0
  outer loop
    vertex 8.008141571295786 2.5999999999999965 -3.524958103184872e-16
    vertex 0.0 0.0 0.0
    vertex 7.778370599535142 3.1547161962641974 -3.524958103184872e-16
  endloop
endfacet
facet normal -1.0367523832896775e-18 -2.3499720687899227e-17 -1.0
  outer loop
    vertex 7.778370599535142 3.1547161962641974 -3.524958103184872e-16
    vertex 0.0 0.0 0.0
    vertex 7.7 3.7500000000000018 -3.524958103184872e-16
  endloop
endfacet
facet normal -1.0367523832896775e-18 -2.3499720687899227e-17 -1.0
  outer loop
    vertex 169.99999999999997 -4.864442182395123e-14 -3.524958103184872e-16
    vertex 9.999999999999998 1.4500000000000006 -3.524958103184872e-16
    vertex 10.595283803735798 1.528370599535139 -3.524958103184872e-16
  endloop
endfacet
facet normal -1.0367523832896775e-18 -2.3499720687899227e-17 -1.0
  outer loop
    vertex 169.99999999999997 -4.864442182395123e-14 -3.524958103184872e-16
    vertex 10.595283803735798 1.528370599535139 -3.524958103184872e-16
    vertex 11.149999999999997 1.758141571295787 -3.524958103184872e-16
  endloop
endfacet
facet normal -1.0367523832896775e-18 -2.3499720687899227e-17 -1.0
  outer loop
    vertex 169.99999999999997 -4.864442182395123e-14 -3.524958103184872e-16
    vertex 11.149999999999997 1.758141571295787 -3.524958103184872e-16
    vertex 11.626345596729063 2.123654403270937 -3.524958103184872e-16
  endloop
endfacet
facet normal -1.0367523832896775e-18 -2.3499720687899227e-17 -1.0
  outer loop
    vertex 169.99999999999997 -4.864442182395123e-14 -3.524958103184872e-16
    vertex 11.626345596729063 2.123654403270937 -3.524958103184872e-16
    vertex 11.991858428704214 2.599999999999994 -3.524958103184872e-16
  endloop
endfacet
facet normal -1.0367523832896775e-18 -2.3499720687899227e-17 -1.0
  outer loop
    vertex 169.99999999999997 -4.864442182395123e-14 -3.524958103184872e-16
    vertex 11.991858428704214 2.599999999999994 -3.524958103184872e-16
    vertex 12.221629400464858 3.1547161962641943 -3.524958103184872e-16
  endloop
endfacet
facet normal -1.0367523832896775e-18 -2.3499720687899227e-17 -1.0
  outer loop
    vertex 169.99999999999997 -4.864442182395123e-14 -3.524958103184872e-16
    vertex 12.221629400464858 3.1547161962641943 -3.524958103184872e-16
    vertex 12.3 3.7499999999999973 -3.524958103184872e-16
  endloop
endfacet
facet normal -1.0367523832896775e-18 -2.3499720687899227e-17 -1.0
  outer loop
    vertex 169.99999999999997 -4.864442182395123e-14 -3.524958103184872e-16
    vertex 12.3 3.7499999999999973 -3.524958103184872e-16
    vertex 159.4047161962642 1.5283705995350911 2.46747067222941e-15
  endloop
endfacet
facet normal -1.0367523832896775e-18 -2.3499720687899227e-17 -1.0
  outer loop
    vertex 159.4047161962642 1.5283705995350911 2.46747067222941e-15
    vertex 12.3 3.7499999999999973 -3.524958103184872e-16
    vertex 158.85000000000002 1.7581415712956898 2.46747067222941e-15
  endloop
endfacet
facet normal -1.0367523832896775e-18 -2.3499720687899227e-17 -1.0
  outer loop
    vertex 158.85000000000002 1.7581415712956898 2.46747067222941e-15
    vertex 12.3 3.7499999999999973 -3.524958103184872e-16
    vertex 158.3736544032709 2.1236544032709026 2.46747067222941e-15
  endloop
endfacet
facet normal -1.0367523832896775e-18 -2.3499720687899227e-17 -1.0
  outer loop
    vertex 158.3736544032709 2.1236544032709026 2.46747067222941e-15
    vertex 12.3 3.7499999999999973 -3.524958103184872e-16
    vertex 158.00814157129582 2.599999999999941 2.46747067222941e-15
  endloop
endfacet
facet normal -1.0367523832896775e-18 -2.3499720687899227e-17 -1.0
  outer loop
    vertex 158.00814157129582 2.599999999999941 2.46747067222941e-15
    vertex 12.3 3.7499999999999973 -3.524958103184872e-16
    vertex 157.77837059953512 3.1547161962641446 2.46747067222941e-15
  endloop
endfacet
facet normal -1.0367523832896775e-18 -2.3499720687899227e-17 -1.0
  outer loop
    vertex 157.77837059953512 3.1547161962641446 2.46747067222941e-15
    vertex 12.3 3.7499999999999973 -3.524958103184872e-16
    vertex 157.70000000000002 3.749999999999894 2.46747067222941e-15
  endloop
endfacet
facet normal -1.0367523832896775e-18 -2.3499720687899227e-17 -1.0
  outer loop
    vertex 169.99999999999997 -4.864442182395123e-14 -3.524958103184872e-16
    vertex 159.4047161962642 1.5283705995350911 2.46747067222941e-15
    vertex 159.99999999999994 1.4499999999999262 2.46747067222941e-15
  endloop
endfacet
facet normal -1.0367523832896775e-18 -2.3499720687899227e-17 -1.0
  outer loop
    vertex 169.99999999999997 -4.864442182395123e-14 -3.524958103184872e-16
    vertex 159.99999999999994 1.4499999999999262 2.46747067222941e-15
    vertex 160.59528380373584 1.5283705995350798 2.46747067222941e-15
  endloop
endfacet
facet normal -1.0367523832896775e-18 -2.3499720687899227e-17 -1.0
  outer loop
    vertex 169.99999999999997 -4.864442182395123e-14 -3.524958103184872e-16
    vertex 160.59528380373584 1.5283705995350798 2.46747067222941e-15
    vertex 161.14999999999998 1.758141571295718 2.46747067222941e-15
  endloop
endfacet
facet normal -1.0367523832896775e-18 -2.3499720687899227e-17 -1.0
  outer loop
    vertex 169.99999999999997 -4.864442182395123e-14 -3.524958103184872e-16
    vertex 161.14999999999998 1.758141571295718 2.46747067222941e-15
    vertex 161.6263455967291 2.123654403270897 2.46747067222941e-15
  endloop
endfacet
facet normal -1.0367523832896775e-18 -2.3499720687899227e-17 -1.0
  outer loop
    vertex 169.99999999999997 -4.864442182395123e-14 -3.524958103184872e-16
    vertex 161.6263455967291 2.123654403270897 2.46747067222941e-15
    vertex 161.99185842870426 2.599999999999958 2.46747067222941e-15
  endloop
endfacet
facet normal -1.0367523832896775e-18 -2.3499720687899227e-17 -1.0
  outer loop
    vertex 169.99999999999997 -4.864442182395123e-14 -3.524958103184872e-16
    vertex 161.99185842870426 2.599999999999958 2.46747067222941e-15
    vertex 162.22162940046488 3.1547161962641272 2.46747067222941e-15
  endloop
endfacet
facet normal -1.0367523832896775e-18 -2.3499720687899227e-17 -1.0
  outer loop
    vertex 169.99999999999997 -4.864442182395123e-14 -3.524958103184872e-16
    vertex 162.22162940046488 3.1547161962641272 2.46747067222941e-15
    vertex 162.29999999999998 3.7499999999999556 2.46747067222941e-15
  endloop
endfacet
facet normal -1.0 -9.399888275159648e-17 9.399888275159639e-17
  outer loop
    vertex 0.0 7.500000000000007 7.500000000000009
    vertex 0.0 0.0 0.0
    vertex 1.4099832412739487e-15 -1.127986593019159e-14 7.500000000000009
  endloop
endfacet
facet normal -1.0 -9.399888275159648e-17 9.399888275159639e-17
  outer loop
    vertex 0.0 0.0 0.0
    vertex 0.0 7.500000000000007 7.500000000000009
    vertex 0.0 7.500000000000007 -3.524958103184872e-16
  endloop
endfacet
facet normal -0.1305261922200632 -0.9914448613738089 0.0
  outer loop
    vertex 160.5952838037358 5.971629400464804 7.5
    vertex 160.00000000000003 6.049999999999952 2.46747067222941e-15
    vertex 160.5952838037358 5.971629400464804 2.46747067222941e-15
  endloop
endfacet
facet normal -0.1305261922200632 -0.9914448613738089 0.0
  outer loop
    vertex 160.00000000000003 6.049999999999952 2.46747067222941e-15
    vertex 160.5952838037358 5.971629400464804 7.5
    vertex 160.00000000000003 6.049999999999952 7.5
  endloop
endfacet
facet normal 0.1305261922200899 -0.9914448613738055 0.0
  outer loop
    vertex 160.00000000000003 6.049999999999952 7.5
    vertex 159.40471619626416 5.971629400464775 2.46747067222941e-15
    vertex 160.00000000000003 6.049999999999952 2.46747067222941e-15
  endloop
endfacet
facet normal 0.1305261922200899 -0.9914448613738055 0.0
  outer loop
    vertex 159.40471619626416 5.971629400464775 2.46747067222941e-15
    vertex 160.00000000000003 6.049999999999952 7.5
    vertex 159.40471619626416 5.971629400464775 7.5
  endloop
endfacet
facet normal 0.38268343236510666 -0.9238795325112797 0.0
  outer loop
    vertex 159.40471619626416 5.971629400464775 7.5
    vertex 158.85000000000002 5.741858428704143 2.46747067222941e-15
    vertex 159.40471619626416 5.971629400464775 2.46747067222941e-15
  endloop
endfacet
facet normal 0.38268343236510666 -0.9238795325112797 0.0
  outer loop
    vertex 158.85000000000002 5.741858428704143 2.46747067222941e-15
    vertex 159.40471619626416 5.971629400464775 7.5
    vertex 158.85000000000002 5.741858428704143 7.5
  endloop
endfacet
facet normal 0.6087614290087118 -0.7933533402912419 0.0
  outer loop
    vertex 158.85000000000002 5.741858428704143 7.5
    vertex 158.37365440327096 5.376345596729009 2.46747067222941e-15
    vertex 158.85000000000002 5.741858428704143 2.46747067222941e-15
  endloop
endfacet
facet normal 0.6087614290087118 -0.7933533402912419 0.0
  outer loop
    vertex 158.37365440327096 5.376345596729009 2.46747067222941e-15
    vertex 158.85000000000002 5.741858428704143 7.5
    vertex 158.37365440327096 5.376345596729009 7.5
  endloop
endfacet
facet normal 0.7933533402912336 -0.6087614290087229 -0.0
  outer loop
    vertex 158.37365440327096 5.376345596729009 2.46747067222941e-15
    vertex 158.0081415712958 4.899999999999914 7.5
    vertex 158.0081415712958 4.899999999999914 2.46747067222941e-15
  endloop
endfacet
facet normal 0.7933533402912336 -0.6087614290087229 -0.0
  outer loop
    vertex 158.0081415712958 4.899999999999914 7.5
    vertex 158.37365440327096 5.376345596729009 2.46747067222941e-15
    vertex 158.37365440327096 5.376345596729009 7.5
  endloop
endfacet
facet normal 0.9238795325113074 -0.38268343236504 -0.0
  outer loop
    vertex 158.0081415712958 4.899999999999914 2.46747067222941e-15
    vertex 157.77837059953518 4.345283803735733 7.5
    vertex 157.77837059953518 4.345283803735733 2.46747067222941e-15
  endloop
endfacet
facet normal 0.9238795325113074 -0.38268343236504 -0.0
  outer loop
    vertex 157.77837059953518 4.345283803735733 7.5
    vertex 158.0081415712958 4.899999999999914 2.46747067222941e-15
    vertex 158.0081415712958 4.899999999999914 7.5
  endloop
endfacet
facet normal 0.9914448613738044 -0.1305261922200972 -0.0
  outer loop
    vertex 157.77837059953518 4.345283803735733 2.46747067222941e-15
    vertex 157.70000000000002 3.749999999999894 7.5
    vertex 157.70000000000002 3.749999999999894 2.46747067222941e-15
  endloop
endfacet
facet normal 0.9914448613738044 -0.1305261922200972 -0.0
  outer loop
    vertex 157.70000000000002 3.749999999999894 7.5
    vertex 157.77837059953518 4.345283803735733 2.46747067222941e-15
    vertex 157.77837059953518 4.345283803735733 7.5
  endloop
endfacet
facet normal 0.9914448613738116 0.13052619222004277 -0.0
  outer loop
    vertex 157.70000000000002 3.749999999999894 2.46747067222941e-15
    vertex 157.77837059953512 3.1547161962641446 7.5
    vertex 157.77837059953512 3.1547161962641446 2.46747067222941e-15
  endloop
endfacet
facet normal 0.9914448613738116 0.13052619222004277 -0.0
  outer loop
    vertex 157.77837059953512 3.1547161962641446 7.5
    vertex 157.70000000000002 3.749999999999894 2.46747067222941e-15
    vertex 157.70000000000002 3.749999999999894 7.5
  endloop
endfacet
facet normal 0.9238795325112599 0.38268343236515506 -0.0
  outer loop
    vertex 157.77837059953512 3.1547161962641446 2.46747067222941e-15
    vertex 158.00814157129582 2.599999999999941 7.5
    vertex 158.00814157129582 2.599999999999941 2.46747067222941e-15
  endloop
endfacet
facet normal 0.9238795325112599 0.38268343236515506 -0.0
  outer loop
    vertex 158.00814157129582 2.599999999999941 7.5
    vertex 157.77837059953512 3.1547161962641446 2.46747067222941e-15
    vertex 157.77837059953512 3.1547161962641446 7.5
  endloop
endfacet
facet normal 0.7933533402912714 0.6087614290086736 -0.0
  outer loop
    vertex 158.00814157129582 2.599999999999941 2.46747067222941e-15
    vertex 158.3736544032709 2.1236544032709026 7.5
    vertex 158.3736544032709 2.1236544032709026 2.46747067222941e-15
  endloop
endfacet
facet normal 0.7933533402912714 0.6087614290086736 -0.0
  outer loop
    vertex 158.3736544032709 2.1236544032709026 7.5
    vertex 158.00814157129582 2.599999999999941 2.46747067222941e-15
    vertex 158.00814157129582 2.599999999999941 7.5
  endloop
endfacet
facet normal 0.6087614290087583 0.7933533402912064 -0.0
  outer loop
    vertex 158.3736544032709 2.1236544032709026 7.5
    vertex 158.85000000000002 1.7581415712956898 2.46747067222941e-15
    vertex 158.3736544032709 2.1236544032709026 2.46747067222941e-15
  endloop
endfacet
facet normal 0.6087614290087583 0.7933533402912064 -0.0
  outer loop
    vertex 158.85000000000002 1.7581415712956898 2.46747067222941e-15
    vertex 158.3736544032709 2.1236544032709026 7.5
    vertex 158.85000000000002 1.7581415712956898 7.5
  endloop
endfacet
facet normal 0.382683432365032 0.9238795325113108 -0.0
  outer loop
    vertex 158.85000000000002 1.7581415712956898 7.5
    vertex 159.4047161962642 1.5283705995350911 2.46747067222941e-15
    vertex 158.85000000000002 1.7581415712956898 2.46747067222941e-15
  endloop
endfacet
facet normal 0.382683432365032 0.9238795325113108 -0.0
  outer loop
    vertex 159.4047161962642 1.5283705995350911 2.46747067222941e-15
    vertex 158.85000000000002 1.7581415712956898 7.5
    vertex 159.4047161962642 1.5283705995350911 7.5
  endloop
endfacet
facet normal 0.13052619222010062 0.9914448613738039 -0.0
  outer loop
    vertex 159.4047161962642 1.5283705995350911 7.5
    vertex 159.99999999999994 1.4499999999999262 2.46747067222941e-15
    vertex 159.4047161962642 1.5283705995350911 2.46747067222941e-15
  endloop
endfacet
facet normal 0.13052619222010062 0.9914448613738039 -0.0
  outer loop
    vertex 159.99999999999994 1.4499999999999262 2.46747067222941e-15
    vertex 159.4047161962642 1.5283705995350911 7.5
    vertex 159.99999999999994 1.4499999999999262 7.5
  endloop
endfacet
facet normal -0.13052619222004327 0.9914448613738116 -0.0
  outer loop
    vertex 159.99999999999994 1.4499999999999262 7.5
    vertex 160.59528380373584 1.5283705995350798 2.46747067222941e-15
    vertex 159.99999999999994 1.4499999999999262 2.46747067222941e-15
  endloop
endfacet
facet normal -0.13052619222004327 0.9914448613738116 -0.0
  outer loop
    vertex 160.59528380373584 1.5283705995350798 2.46747067222941e-15
    vertex 159.99999999999994 1.4499999999999262 7.5
    vertex 160.59528380373584 1.5283705995350798 7.5
  endloop
endfacet
facet normal -0.38268343236511465 0.9238795325112765 -0.0
  outer loop
    vertex 160.59528380373584 1.5283705995350798 7.5
    vertex 161.14999999999998 1.758141571295718 2.46747067222941e-15
    vertex 160.59528380373584 1.5283705995350798 2.46747067222941e-15
  endloop
endfacet
facet normal -0.38268343236511465 0.9238795325112765 -0.0
  outer loop
    vertex 161.14999999999998 1.758141571295718 2.46747067222941e-15
    vertex 160.59528380373584 1.5283705995350798 7.5
    vertex 161.14999999999998 1.758141571295718 7.5
  endloop
endfacet
facet normal -0.6087614290087229 0.7933533402912336 -0.0
  outer loop
    vertex 161.14999999999998 1.758141571295718 7.5
    vertex 161.6263455967291 2.123654403270897 2.46747067222941e-15
    vertex 161.14999999999998 1.758141571295718 2.46747067222941e-15
  endloop
endfacet
facet normal -0.6087614290087229 0.7933533402912336 -0.0
  outer loop
    vertex 161.6263455967291 2.123654403270897 2.46747067222941e-15
    vertex 161.14999999999998 1.758141571295718 7.5
    vertex 161.6263455967291 2.123654403270897 7.5
  endloop
endfacet
facet normal -0.7933533402912126 0.6087614290087501 0.0
  outer loop
    vertex 161.99185842870426 2.599999999999958 7.5
    vertex 161.6263455967291 2.123654403270897 2.46747067222941e-15
    vertex 161.6263455967291 2.123654403270897 7.5
  endloop
endfacet
facet normal -0.7933533402912126 0.6087614290087501 0.0
  outer loop
    vertex 161.6263455967291 2.123654403270897 2.46747067222941e-15
    vertex 161.99185842870426 2.599999999999958 7.5
    vertex 161.99185842870426 2.599999999999958 2.46747067222941e-15
  endloop
endfacet
facet normal -0.9238795325113047 0.3826834323650467 0.0
  outer loop
    vertex 162.22162940046488 3.1547161962641272 7.5
    vertex 161.99185842870426 2.599999999999958 2.46747067222941e-15
    vertex 161.99185842870426 2.599999999999958 7.5
  endloop
endfacet
facet normal -0.9238795325113047 0.3826834323650467 0.0
  outer loop
    vertex 161.99185842870426 2.599999999999958 2.46747067222941e-15
    vertex 162.22162940046488 3.1547161962641272 7.5
    vertex 162.22162940046488 3.1547161962641272 2.46747067222941e-15
  endloop
endfacet
facet normal -0.9914448613738138 0.13052619222002576 0.0
  outer loop
    vertex 162.29999999999998 3.7499999999999556 7.5
    vertex 162.22162940046488 3.1547161962641272 2.46747067222941e-15
    vertex 162.22162940046488 3.1547161962641272 7.5
  endloop
endfacet
facet normal -0.9914448613738138 0.13052619222002576 0.0
  outer loop
    vertex 162.22162940046488 3.1547161962641272 2.46747067222941e-15
    vertex 162.29999999999998 3.7499999999999556 7.5
    vertex 162.29999999999998 3.7499999999999556 2.46747067222941e-15
  endloop
endfacet
facet normal -0.9914448613738123 -0.13052619222003792 0.0
  outer loop
    vertex 162.22162940046488 4.345283803735728 7.5
    vertex 162.29999999999998 3.7499999999999556 2.46747067222941e-15
    vertex 162.29999999999998 3.7499999999999556 7.5
  endloop
endfacet
facet normal -0.9914448613738123 -0.13052619222003792 0.0
  outer loop
    vertex 162.29999999999998 3.7499999999999556 2.46747067222941e-15
    vertex 162.22162940046488 4.345283803735728 7.5
    vertex 162.22162940046488 4.345283803735728 2.46747067222941e-15
  endloop
endfacet
facet normal -0.9238795325112584 -0.3826834323651584 0.0
  outer loop
    vertex 161.99185842870418 4.899999999999926 7.5
    vertex 162.22162940046488 4.345283803735728 2.46747067222941e-15
    vertex 162.22162940046488 4.345283803735728 7.5
  endloop
endfacet
facet normal -0.9238795325112584 -0.3826834323651584 0.0
  outer loop
    vertex 162.22162940046488 4.345283803735728 2.46747067222941e-15
    vertex 161.99185842870418 4.899999999999926 7.5
    vertex 161.99185842870418 4.899999999999926 2.46747067222941e-15
  endloop
endfacet
facet normal -0.7933533402912419 -0.6087614290087118 0.0
  outer loop
    vertex 161.62634559672904 5.376345596728975 7.5
    vertex 161.99185842870418 4.899999999999926 2.46747067222941e-15
    vertex 161.99185842870418 4.899999999999926 7.5
  endloop
endfacet
facet normal -0.7933533402912419 -0.6087614290087118 0.0
  outer loop
    vertex 161.99185842870418 4.899999999999926 2.46747067222941e-15
    vertex 161.62634559672904 5.376345596728975 7.5
    vertex 161.62634559672904 5.376345596728975 2.46747067222941e-15
  endloop
endfacet
facet normal -0.608761429008766 -0.7933533402912006 0.0
  outer loop
    vertex 161.62634559672904 5.376345596728975 7.5
    vertex 161.15000000000003 5.741858428704126 2.46747067222941e-15
    vertex 161.62634559672904 5.376345596728975 2.46747067222941e-15
  endloop
endfacet
facet normal -0.608761429008766 -0.7933533402912006 0.0
  outer loop
    vertex 161.15000000000003 5.741858428704126 2.46747067222941e-15
    vertex 161.62634559672904 5.376345596728975 7.5
    vertex 161.15000000000003 5.741858428704126 7.5
  endloop
endfacet
facet normal -0.38268343236511765 -0.9238795325112752 0.0
  outer loop
    vertex 161.15000000000003 5.741858428704126 7.5
    vertex 160.5952838037358 5.971629400464804 2.46747067222941e-15
    vertex 161.15000000000003 5.741858428704126 2.46747067222941e-15
  endloop
endfacet
facet normal -0.38268343236511765 -0.9238795325112752 0.0
  outer loop
    vertex 160.5952838037358 5.971629400464804 2.46747067222941e-15
    vertex 161.15000000000003 5.741858428704126 7.5
    vertex 160.5952838037358 5.971629400464804 7.5
  endloop
endfacet
facet normal 0.9914448613738105 -0.13052619222005155 -0.0
  outer loop
    vertex 7.778370599535142 4.345283803735796 -3.524958103184872e-16
    vertex 7.7 3.7500000000000018 7.500000000000009
    vertex 7.7 3.7500000000000018 -3.524958103184872e-16
  endloop
endfacet
facet normal 0.9914448613738105 -0.13052619222005155 -0.0
  outer loop
    vertex 7.7 3.7500000000000018 7.500000000000009
    vertex 7.778370599535142 4.345283803735796 -3.524958103184872e-16
    vertex 7.778370599535142 4.345283803735796 7.500000000000009
  endloop
endfacet
facet normal 0.9914448613738107 0.1305261922200495 -0.0
  outer loop
    vertex 7.7 3.7500000000000018 -3.524958103184872e-16
    vertex 7.778370599535142 3.1547161962641974 7.500000000000009
    vertex 7.778370599535142 3.1547161962641974 -3.524958103184872e-16
  endloop
endfacet
facet normal 0.9914448613738107 0.1305261922200495 -0.0
  outer loop
    vertex 7.778370599535142 3.1547161962641974 7.500000000000009
    vertex 7.7 3.7500000000000018 -3.524958103184872e-16
    vertex 7.7 3.7500000000000018 7.500000000000009
  endloop
endfacet
facet normal 0.9238795325112892 0.3826834323650844 -0.0
  outer loop
    vertex 7.778370599535142 3.1547161962641974 -3.524958103184872e-16
    vertex 8.008141571295786 2.5999999999999965 7.500000000000009
    vertex 8.008141571295786 2.5999999999999965 -3.524958103184872e-16
  endloop
endfacet
facet normal 0.9238795325112892 0.3826834323650844 -0.0
  outer loop
    vertex 8.008141571295786 2.5999999999999965 7.500000000000009
    vertex 7.778370599535142 3.1547161962641974 -3.524958103184872e-16
    vertex 7.778370599535142 3.1547161962641974 7.500000000000009
  endloop
endfacet
facet normal 0.7933533402912338 0.6087614290087224 -0.0
  outer loop
    vertex 8.008141571295786 2.5999999999999965 -3.524958103184872e-16
    vertex 8.373654403270937 2.123654403270938 7.500000000000009
    vertex 8.373654403270937 2.123654403270938 -3.524958103184872e-16
  endloop
endfacet
facet normal 0.7933533402912338 0.6087614290087224 -0.0
  outer loop
    vertex 8.373654403270937 2.123654403270938 7.500000000000009
    vertex 8.008141571295786 2.5999999999999965 -3.524958103184872e-16
    vertex 8.008141571295786 2.5999999999999965 7.500000000000009
  endloop
endfacet
facet normal 0.6087614290087202 0.7933533402912357 -0.0
  outer loop
    vertex 8.373654403270937 2.123654403270938 7.500000000000009
    vertex 8.849999999999998 1.7581415712957877 -3.524958103184872e-16
    vertex 8.373654403270937 2.123654403270938 -3.524958103184872e-16
  endloop
endfacet
facet normal 0.6087614290087202 0.7933533402912357 -0.0
  outer loop
    vertex 8.849999999999998 1.7581415712957877 -3.524958103184872e-16
    vertex 8.373654403270937 2.123654403270938 7.500000000000009
    vertex 8.849999999999998 1.7581415712957877 7.500000000000009
  endloop
endfacet
facet normal 0.3826834323650892 0.9238795325112871 -0.0
  outer loop
    vertex 8.849999999999998 1.7581415712957877 7.500000000000009
    vertex 9.404716196264204 1.5283705995351384 -3.524958103184872e-16
    vertex 8.849999999999998 1.7581415712957877 -3.524958103184872e-16
  endloop
endfacet
facet normal 0.3826834323650892 0.9238795325112871 -0.0
  outer loop
    vertex 9.404716196264204 1.5283705995351384 -3.524958103184872e-16
    vertex 8.849999999999998 1.7581415712957877 7.500000000000009
    vertex 9.404716196264204 1.5283705995351384 7.500000000000009
  endloop
endfacet
facet normal 0.13052619222004405 0.9914448613738114 -0.0
  outer loop
    vertex 9.404716196264204 1.5283705995351384 7.500000000000009
    vertex 9.999999999999998 1.4500000000000006 -3.524958103184872e-16
    vertex 9.404716196264204 1.5283705995351384 -3.524958103184872e-16
  endloop
endfacet
facet normal 0.13052619222004405 0.9914448613738114 -0.0
  outer loop
    vertex 9.999999999999998 1.4500000000000006 -3.524958103184872e-16
    vertex 9.404716196264204 1.5283705995351384 7.500000000000009
    vertex 9.999999999999998 1.4500000000000006 7.500000000000009
  endloop
endfacet
facet normal -0.13052619222004397 0.9914448613738114 -0.0
  outer loop
    vertex 9.999999999999998 1.4500000000000006 7.500000000000009
    vertex 10.595283803735798 1.528370599535139 -3.524958103184872e-16
    vertex 9.999999999999998 1.4500000000000006 -3.524958103184872e-16
  endloop
endfacet
facet normal -0.13052619222004397 0.9914448613738114 -0.0
  outer loop
    vertex 10.595283803735798 1.528370599535139 -3.524958103184872e-16
    vertex 9.999999999999998 1.4500000000000006 7.500000000000009
    vertex 10.595283803735798 1.528370599535139 7.500000000000009
  endloop
endfacet
facet normal -0.3826834323650922 0.9238795325112857 -0.0
  outer loop
    vertex 10.595283803735798 1.528370599535139 7.500000000000009
    vertex 11.149999999999997 1.758141571295787 -3.524958103184872e-16
    vertex 10.595283803735798 1.528370599535139 -3.524958103184872e-16
  endloop
endfacet
facet normal -0.3826834323650922 0.9238795325112857 -0.0
  outer loop
    vertex 11.149999999999997 1.758141571295787 -3.524958103184872e-16
    vertex 10.595283803735798 1.528370599535139 7.500000000000009
    vertex 11.149999999999997 1.758141571295787 7.500000000000009
  endloop
endfacet
facet normal -0.6087614290087148 0.7933533402912396 -0.0
  outer loop
    vertex 11.149999999999997 1.758141571295787 7.500000000000009
    vertex 11.626345596729063 2.123654403270937 -3.524958103184872e-16
    vertex 11.149999999999997 1.758141571295787 -3.524958103184872e-16
  endloop
endfacet
facet normal -0.6087614290087148 0.7933533402912396 -0.0
  outer loop
    vertex 11.626345596729063 2.123654403270937 -3.524958103184872e-16
    vertex 11.149999999999997 1.758141571295787 7.500000000000009
    vertex 11.626345596729063 2.123654403270937 7.500000000000009
  endloop
endfacet
facet normal -0.7933533402912331 0.6087614290087235 0.0
  outer loop
    vertex 11.991858428704214 2.599999999999994 7.500000000000009
    vertex 11.626345596729063 2.123654403270937 -3.524958103184872e-16
    vertex 11.626345596729063 2.123654403270937 7.500000000000009
  endloop
endfacet
facet normal -0.7933533402912331 0.6087614290087235 0.0
  outer loop
    vertex 11.626345596729063 2.123654403270937 -3.524958103184872e-16
    vertex 11.991858428704214 2.599999999999994 7.500000000000009
    vertex 11.991858428704214 2.599999999999994 -3.524958103184872e-16
  endloop
endfacet
facet normal -0.923879532511289 0.38268343236508445 0.0
  outer loop
    vertex 12.221629400464858 3.1547161962641943 7.500000000000009
    vertex 11.991858428704214 2.599999999999994 -3.524958103184872e-16
    vertex 11.991858428704214 2.599999999999994 7.500000000000009
  endloop
endfacet
facet normal -0.923879532511289 0.38268343236508445 0.0
  outer loop
    vertex 11.991858428704214 2.599999999999994 -3.524958103184872e-16
    vertex 12.221629400464858 3.1547161962641943 7.500000000000009
    vertex 12.221629400464858 3.1547161962641943 -3.524958103184872e-16
  endloop
endfacet
facet normal -0.9914448613738107 0.1305261922200497 0.0
  outer loop
    vertex 12.3 3.7499999999999973 7.500000000000009
    vertex 12.221629400464858 3.1547161962641943 -3.524958103184872e-16
    vertex 12.221629400464858 3.1547161962641943 7.500000000000009
  endloop
endfacet
facet normal -0.9914448613738107 0.1305261922200497 0.0
  outer loop
    vertex 12.221629400464858 3.1547161962641943 -3.524958103184872e-16
    vertex 12.3 3.7499999999999973 7.500000000000009
    vertex 12.3 3.7499999999999973 -3.524958103184872e-16
  endloop
endfacet
facet normal -0.9914448613738094 -0.13052619222005926 0.0
  outer loop
    vertex 12.221629400464852 4.345283803735799 7.500000000000009
    vertex 12.3 3.7499999999999973 -3.524958103184872e-16
    vertex 12.3 3.7499999999999973 7.500000000000009
  endloop
endfacet
facet normal -0.9914448613738094 -0.13052619222005926 0.0
  outer loop
    vertex 12.3 3.7499999999999973 -3.524958103184872e-16
    vertex 12.221629400464852 4.345283803735799 7.500000000000009
    vertex 12.221629400464852 4.345283803735799 -3.524958103184872e-16
  endloop
endfacet
facet normal -0.9238795325112948 -0.3826834323650706 0.0
  outer loop
    vertex 11.99185842870422 4.899999999999996 7.500000000000009
    vertex 12.221629400464852 4.345283803735799 -3.524958103184872e-16
    vertex 12.221629400464852 4.345283803735799 7.500000000000009
  endloop
endfacet
facet normal -0.9238795325112948 -0.3826834323650706 0.0
  outer loop
    vertex 12.221629400464852 4.345283803735799 -3.524958103184872e-16
    vertex 11.99185842870422 4.899999999999996 7.500000000000009
    vertex 11.99185842870422 4.899999999999996 -3.524958103184872e-16
  endloop
endfacet
facet normal -0.7933533402912318 -0.6087614290087253 0.0
  outer loop
    vertex 11.626345596729063 5.376345596729059 7.500000000000009
    vertex 11.99185842870422 4.899999999999996 -3.524958103184872e-16
    vertex 11.99185842870422 4.899999999999996 7.500000000000009
  endloop
endfacet
facet normal -0.7933533402912318 -0.6087614290087253 0.0
  outer loop
    vertex 11.99185842870422 4.899999999999996 -3.524958103184872e-16
    vertex 11.626345596729063 5.376345596729059 7.500000000000009
    vertex 11.626345596729063 5.376345596729059 -3.524958103184872e-16
  endloop
endfacet
facet normal -0.6087614290087183 -0.7933533402912372 0.0
  outer loop
    vertex 11.626345596729063 5.376345596729059 7.500000000000009
    vertex 11.150000000000002 5.741858428704207 -3.524958103184872e-16
    vertex 11.626345596729063 5.376345596729059 -3.524958103184872e-16
  endloop
endfacet
facet normal -0.6087614290087183 -0.7933533402912372 0.0
  outer loop
    vertex 11.150000000000002 5.741858428704207 -3.524958103184872e-16
    vertex 11.626345596729063 5.376345596729059 7.500000000000009
    vertex 11.150000000000002 5.741858428704207 7.500000000000009
  endloop
endfacet
facet normal -0.3826834323650879 -0.9238795325112875 0.0
  outer loop
    vertex 11.150000000000002 5.741858428704207 7.500000000000009
    vertex 10.595283803735798 5.971629400464854 -3.524958103184872e-16
    vertex 11.150000000000002 5.741858428704207 -3.524958103184872e-16
  endloop
endfacet
facet normal -0.3826834323650879 -0.9238795325112875 0.0
  outer loop
    vertex 10.595283803735798 5.971629400464854 -3.524958103184872e-16
    vertex 11.150000000000002 5.741858428704207 7.500000000000009
    vertex 10.595283803735798 5.971629400464854 7.500000000000009
  endloop
endfacet
facet normal -0.13052619222005263 -0.9914448613738103 0.0
  outer loop
    vertex 10.595283803735798 5.971629400464854 7.500000000000009
    vertex 9.999999999999998 6.049999999999998 -3.524958103184872e-16
    vertex 10.595283803735798 5.971629400464854 -3.524958103184872e-16
  endloop
endfacet
facet normal -0.13052619222005263 -0.9914448613738103 0.0
  outer loop
    vertex 9.999999999999998 6.049999999999998 -3.524958103184872e-16
    vertex 10.595283803735798 5.971629400464854 7.500000000000009
    vertex 9.999999999999998 6.049999999999998 7.500000000000009
  endloop
endfacet
facet normal 0.13052619222005388 -0.9914448613738103 0.0
  outer loop
    vertex 9.999999999999998 6.049999999999998 7.500000000000009
    vertex 9.404716196264204 5.971629400464854 -3.524958103184872e-16
    vertex 9.999999999999998 6.049999999999998 -3.524958103184872e-16
  endloop
endfacet
facet normal 0.13052619222005388 -0.9914448613738103 0.0
  outer loop
    vertex 9.404716196264204 5.971629400464854 -3.524958103184872e-16
    vertex 9.999999999999998 6.049999999999998 7.500000000000009
    vertex 9.404716196264204 5.971629400464854 7.500000000000009
  endloop
endfacet
facet normal 0.3826834323650822 -0.92387953251129 0.0
  outer loop
    vertex 9.404716196264204 5.971629400464854 7.500000000000009
    vertex 8.849999999999998 5.74185842870421 -3.524958103184872e-16
    vertex 9.404716196264204 5.971629400464854 -3.524958103184872e-16
  endloop
endfacet
facet normal 0.3826834323650822 -0.92387953251129 0.0
  outer loop
    vertex 8.849999999999998 5.74185842870421 -3.524958103184872e-16
    vertex 9.404716196264204 5.971629400464854 7.500000000000009
    vertex 8.849999999999998 5.74185842870421 7.500000000000009
  endloop
endfacet
facet normal 0.6087614290087242 -0.7933533402912325 0.0
  outer loop
    vertex 8.849999999999998 5.74185842870421 7.500000000000009
    vertex 8.373654403270942 5.37634559672906 -3.524958103184872e-16
    vertex 8.849999999999998 5.74185842870421 -3.524958103184872e-16
  endloop
endfacet
facet normal 0.6087614290087242 -0.7933533402912325 0.0
  outer loop
    vertex 8.373654403270942 5.37634559672906 -3.524958103184872e-16
    vertex 8.849999999999998 5.74185842870421 7.500000000000009
    vertex 8.373654403270942 5.37634559672906 7.500000000000009
  endloop
endfacet
facet normal 0.7933533402912344 -0.6087614290087217 -0.0
  outer loop
    vertex 8.373654403270942 5.37634559672906 -3.524958103184872e-16
    vertex 8.008141571295791 4.9 7.500000000000009
    vertex 8.008141571295791 4.9 -3.524958103184872e-16
  endloop
endfacet
facet normal 0.7933533402912344 -0.6087614290087217 -0.0
  outer loop
    vertex 8.008141571295791 4.9 7.500000000000009
    vertex 8.373654403270942 5.37634559672906 -3.524958103184872e-16
    vertex 8.373654403270942 5.37634559672906 7.500000000000009
  endloop
endfacet
facet normal 0.9238795325112865 -0.3826834323650905 -0.0
  outer loop
    vertex 8.008141571295791 4.9 -3.524958103184872e-16
    vertex 7.778370599535142 4.345283803735796 7.500000000000009
    vertex 7.778370599535142 4.345283803735796 -3.524958103184872e-16
  endloop
endfacet
facet normal 0.9238795325112865 -0.3826834323650905 -0.0
  outer loop
    vertex 7.778370599535142 4.345283803735796 7.500000000000009
    vertex 8.008141571295791 4.9 -3.524958103184872e-16
    vertex 8.008141571295791 4.9 7.500000000000009
  endloop
endfacet
endsolid Leg
