solid Wrench_for_No6
facet normal 0.0 0.0 -1.0
  outer loop
    vertex -3.8793103448275836 5.77840288099116 0.0
    vertex -3.1386660628469927 4.097114317029977 0.0
    vertex -3.8793103448275845 4.837758599010568 0.0
  endloop
endfacet
facet normal 0.0 0.0 -1.0
  outer loop
    vertex -3.1386660628469927 4.097114317029977 0.0
    vertex -3.8793103448275836 5.77840288099116 0.0
    vertex -2.9807635402763837 6.531551783058047 0.0
  endloop
endfacet
facet normal 0.0 0.0 -1.0
  outer loop
    vertex -3.1386660628469927 4.097114317029977 0.0
    vertex -2.9807635402763837 6.531551783058047 0.0
    vertex -2.250000000000001 4.097114317029977 0.0
  endloop
endfacet
facet normal 0.0 0.0 -1.0
  outer loop
    vertex -2.250000000000001 4.097114317029977 0.0
    vertex -2.9807635402763837 6.531551783058047 0.0
    vertex -1.994164549984076 7.1649884894525595 0.0
  endloop
endfacet
facet normal 0.0 0.0 -1.0
  outer loop
    vertex -2.250000000000001 4.097114317029977 0.0
    vertex -1.994164549984076 7.1649884894525595 0.0
    vertex 2.365470053837927 4.097114317029976 0.0
  endloop
endfacet
facet normal 0.0 0.0 -1.0
  outer loop
    vertex 2.365470053837927 4.097114317029976 0.0
    vertex -1.994164549984076 7.1649884894525595 0.0
    vertex -0.9353637562754573 7.668536409610843 0.0
  endloop
endfacet
facet normal 0.0 0.0 -1.0
  outer loop
    vertex 2.365470053837927 4.097114317029976 0.0
    vertex -0.9353637562754573 7.668536409610843 0.0
    vertex 0.17862848755373759 8.034105704467684 0.0
  endloop
endfacet
facet normal 0.0 0.0 -1.0
  outer loop
    vertex 2.365470053837927 4.097114317029976 0.0
    vertex 0.17862848755373759 8.034105704467684 0.0
    vertex 1.3299151401064515 8.255823255211181 0.0
  endloop
endfacet
facet normal 0.0 0.0 -1.0
  outer loop
    vertex 2.365470053837927 4.097114317029976 0.0
    vertex 1.3299151401064515 8.255823255211181 0.0
    vertex 2.500000000000001 8.330127018922195 0.0
  endloop
endfacet
facet normal 0.0 0.0 -1.0
  outer loop
    vertex 2.365470053837927 4.097114317029976 0.0
    vertex 2.500000000000001 8.330127018922195 0.0
    vertex 4.7309401076758535 -1.4540452175637596e-15 0.0
  endloop
endfacet
facet normal 0.0 0.0 -1.0
  outer loop
    vertex 4.7309401076758535 -1.4540452175637596e-15 0.0
    vertex 2.500000000000001 8.330127018922195 0.0
    vertex 3.670084859893551 8.25582325521118 0.0
  endloop
endfacet
facet normal 0.0 0.0 -1.0
  outer loop
    vertex 4.7309401076758535 -1.4540452175637596e-15 0.0
    vertex 3.670084859893551 8.25582325521118 0.0
    vertex 4.821371512446264 8.034105704467684 0.0
  endloop
endfacet
facet normal 0.0 0.0 -1.0
  outer loop
    vertex 4.7309401076758535 -1.4540452175637596e-15 0.0
    vertex 4.821371512446264 8.034105704467684 0.0
    vertex 4.821371512446261 -8.034105704467684 0.0
  endloop
endfacet
facet normal 0.0 0.0 -1.0
  outer loop
    vertex 4.821371512446261 -8.034105704467684 0.0
    vertex 4.821371512446264 8.034105704467684 0.0
    vertex 5.935363756275455 -7.668536409610843 0.0
  endloop
endfacet
facet normal 0.0 0.0 -1.0
  outer loop
    vertex 5.935363756275455 -7.668536409610843 0.0
    vertex 4.821371512446264 8.034105704467684 0.0
    vertex 5.93536375627546 7.668536409610842 0.0
  endloop
endfacet
facet normal 0.0 0.0 -1.0
  outer loop
    vertex 5.935363756275455 -7.668536409610843 0.0
    vertex 5.93536375627546 7.668536409610842 0.0
    vertex 6.994164549984073 -7.1649884894525595 0.0
  endloop
endfacet
facet normal 0.0 0.0 -1.0
  outer loop
    vertex 6.994164549984073 -7.1649884894525595 0.0
    vertex 5.93536375627546 7.668536409610842 0.0
    vertex 6.9941645499840766 7.1649884894525595 0.0
  endloop
endfacet
facet normal 0.0 0.0 -1.0
  outer loop
    vertex 6.994164549984073 -7.1649884894525595 0.0
    vertex 6.9941645499840766 7.1649884894525595 0.0
    vertex 7.9807635402763815 -6.531551783058049 0.0
  endloop
endfacet
facet normal 0.0 0.0 -1.0
  outer loop
    vertex 7.9807635402763815 -6.531551783058049 0.0
    vertex 6.9941645499840766 7.1649884894525595 0.0
    vertex 7.980763540276386 6.531551783058046 0.0
  endloop
endfacet
facet normal 0.0 0.0 -1.0
  outer loop
    vertex 7.9807635402763815 -6.531551783058049 0.0
    vertex 7.980763540276386 6.531551783058046 0.0
    vertex 8.87931034482758 -5.778402880991162 0.0
  endloop
endfacet
facet normal 0.0 0.0 -1.0
  outer loop
    vertex 8.87931034482758 -5.778402880991162 0.0
    vertex 7.980763540276386 6.531551783058046 0.0
    vertex 8.879310344827587 5.778402880991159 0.0
  endloop
endfacet
facet normal 0.0 0.0 -1.0
  outer loop
    vertex 8.87931034482758 -5.778402880991162 0.0
    vertex 8.879310344827587 5.778402880991159 0.0
    vertex 32.5 -4.330127018922195 0.0
  endloop
endfacet
facet normal 0.0 0.0 -1.0
  outer loop
    vertex 32.5 -4.330127018922195 0.0
    vertex 8.879310344827587 5.778402880991159 0.0
    vertex 32.5 4.330127018922193 0.0
  endloop
endfacet
facet normal 0.0 0.0 -1.0
  outer loop
    vertex 32.5 -4.330127018922195 0.0
    vertex 32.5 4.330127018922193 0.0
    vertex 33.08408274061866 3.7551613999998406 0.0
  endloop
endfacet
facet normal 0.0 0.0 -1.0
  outer loop
    vertex 32.5 -4.330127018922195 0.0
    vertex 33.08408274061866 3.7551613999998406 0.0
    vertex 33.08408274061866 -3.755161399999843 0.0
  endloop
endfacet
facet normal 0.0 0.0 -1.0
  outer loop
    vertex 33.08408274061866 -3.755161399999843 0.0
    vertex 33.08408274061866 3.7551613999998406 0.0
    vertex 33.57946091178515 3.102215323847211 0.0
  endloop
endfacet
facet normal 0.0 0.0 -1.0
  outer loop
    vertex 33.08408274061866 -3.755161399999843 0.0
    vertex 33.57946091178515 3.102215323847211 0.0
    vertex 33.57946091178515 -3.102215323847214 0.0
  endloop
endfacet
facet normal 0.0 0.0 -1.0
  outer loop
    vertex 33.57946091178515 -3.102215323847214 0.0
    vertex 33.57946091178515 3.102215323847211 0.0
    vertex 33.975847388080716 2.384848003542364 0.0
  endloop
endfacet
facet normal 0.0 0.0 -1.0
  outer loop
    vertex 33.57946091178515 -3.102215323847214 0.0
    vertex 33.975847388080716 2.384848003542364 0.0
    vertex 33.975847388080716 -2.384848003542367 0.0
  endloop
endfacet
facet normal 0.0 0.0 -1.0
  outer loop
    vertex 33.975847388080716 -2.384848003542367 0.0
    vertex 33.975847388080716 2.384848003542364 0.0
    vertex 34.265010726068226 1.6179564370251032 0.0
  endloop
endfacet
facet normal 0.0 0.0 -1.0
  outer loop
    vertex 33.975847388080716 -2.384848003542367 0.0
    vertex 34.265010726068226 1.6179564370251032 0.0
    vertex 34.265010726068226 -1.6179564370251056 0.0
  endloop
endfacet
facet normal 0.0 0.0 -1.0
  outer loop
    vertex 34.265010726068226 -1.6179564370251056 0.0
    vertex 34.265010726068226 1.6179564370251032 0.0
    vertex 34.44094610014669 0.8174660529609084 0.0
  endloop
endfacet
facet normal 0.0 0.0 -1.0
  outer loop
    vertex 34.265010726068226 -1.6179564370251056 0.0
    vertex 34.44094610014669 0.8174660529609084 0.0
    vertex 34.44094610014669 -0.8174660529609101 0.0
  endloop
endfacet
facet normal 0.0 0.0 -1.0
  outer loop
    vertex 34.44094610014669 -0.8174660529609101 0.0
    vertex 34.44094610014669 0.8174660529609084 0.0
    vertex 34.5 -1.0574874309554614e-15 0.0
  endloop
endfacet
facet normal 0.0 0.0 -1.0
  outer loop
    vertex -3.8793103448275894 -4.837758599010565 0.0
    vertex -2.9807635402763903 -6.5315517830580445 0.0
    vertex -3.87931034482759 -5.778402880991156 0.0
  endloop
endfacet
facet normal 0.0 0.0 -1.0
  outer loop
    vertex -2.9807635402763903 -6.5315517830580445 0.0
    vertex -3.8793103448275894 -4.837758599010565 0.0
    vertex -3.1386660628469967 -4.097114317029974 0.0
  endloop
endfacet
facet normal 0.0 0.0 -1.0
  outer loop
    vertex -2.9807635402763903 -6.5315517830580445 0.0
    vertex -3.1386660628469967 -4.097114317029974 0.0
    vertex -2.250000000000003 -4.097114317029975 0.0
  endloop
endfacet
facet normal 0.0 0.0 -1.0
  outer loop
    vertex -2.9807635402763903 -6.5315517830580445 0.0
    vertex -2.250000000000003 -4.097114317029975 0.0
    vertex -1.9941645499840808 -7.164988489452557 0.0
  endloop
endfacet
facet normal 0.0 0.0 -1.0
  outer loop
    vertex -1.9941645499840808 -7.164988489452557 0.0
    vertex -2.250000000000003 -4.097114317029975 0.0
    vertex 2.3654700538379245 -4.097114317029978 0.0
  endloop
endfacet
facet normal 0.0 0.0 -1.0
  outer loop
    vertex -1.9941645499840808 -7.164988489452557 0.0
    vertex 2.3654700538379245 -4.097114317029978 0.0
    vertex -0.9353637562754636 -7.66853640961084 0.0
  endloop
endfacet
facet normal 0.0 0.0 -1.0
  outer loop
    vertex -0.9353637562754636 -7.66853640961084 0.0
    vertex 2.3654700538379245 -4.097114317029978 0.0
    vertex 0.17862848755372948 -8.034105704467683 0.0
  endloop
endfacet
facet normal 0.0 0.0 -1.0
  outer loop
    vertex 0.17862848755372948 -8.034105704467683 0.0
    vertex 2.3654700538379245 -4.097114317029978 0.0
    vertex 1.3299151401064442 -8.25582325521118 0.0
  endloop
endfacet
facet normal 0.0 0.0 -1.0
  outer loop
    vertex 1.3299151401064442 -8.25582325521118 0.0
    vertex 2.3654700538379245 -4.097114317029978 0.0
    vertex 2.499999999999995 -8.330127018922195 0.0
  endloop
endfacet
facet normal 0.0 0.0 -1.0
  outer loop
    vertex 2.499999999999995 -8.330127018922195 0.0
    vertex 2.3654700538379245 -4.097114317029978 0.0
    vertex 4.7309401076758535 -1.4540452175637596e-15 0.0
  endloop
endfacet
facet normal 0.0 0.0 -1.0
  outer loop
    vertex 2.499999999999995 -8.330127018922195 0.0
    vertex 4.7309401076758535 -1.4540452175637596e-15 0.0
    vertex 3.670084859893545 -8.25582325521118 0.0
  endloop
endfacet
facet normal 0.0 0.0 -1.0
  outer loop
    vertex 3.670084859893545 -8.25582325521118 0.0
    vertex 4.7309401076758535 -1.4540452175637596e-15 0.0
    vertex 4.821371512446261 -8.034105704467684 0.0
  endloop
endfacet
facet normal 0.7015229474995937 -0.7126468649559068 0.0
  outer loop
    vertex 33.08408274061866 -3.755161399999843 2.5000000000000004
    vertex 32.5 -4.330127018922195 0.0
    vertex 33.08408274061866 -3.755161399999843 0.0
  endloop
endfacet
facet normal 0.7015229474995937 -0.7126468649559068 0.0
  outer loop
    vertex 32.5 -4.330127018922195 0.0
    vertex 33.08408274061866 -3.755161399999843 2.5000000000000004
    vertex 32.5 -4.330127018922195 2.5000000000000004
  endloop
endfacet
facet normal 0.06119894116756088 -0.9981255880899806 0.0
  outer loop
    vertex 32.5 -4.330127018922195 2.5000000000000004
    vertex 8.87931034482758 -5.778402880991162 0.0
    vertex 32.5 -4.330127018922195 0.0
  endloop
endfacet
facet normal 0.06119894116756088 -0.9981255880899806 0.0
  outer loop
    vertex 8.87931034482758 -5.778402880991162 0.0
    vertex 32.5 -4.330127018922195 2.5000000000000004
    vertex 8.87931034482758 -5.778402880991162 2.5000000000000004
  endloop
endfacet
facet normal 0.6423763994002146 -0.766389301526069 0.0
  outer loop
    vertex 8.87931034482758 -5.778402880991162 2.5000000000000004
    vertex 7.9807635402763815 -6.531551783058049 0.0
    vertex 8.87931034482758 -5.778402880991162 0.0
  endloop
endfacet
facet normal 0.6423763994002146 -0.766389301526069 0.0
  outer loop
    vertex 7.9807635402763815 -6.531551783058049 0.0
    vertex 8.87931034482758 -5.778402880991162 2.5000000000000004
    vertex 7.9807635402763815 -6.531551783058049 2.5000000000000004
  endloop
endfacet
facet normal 0.5402713720818773 -0.8414908463606517 0.0
  outer loop
    vertex 7.9807635402763815 -6.531551783058049 2.5000000000000004
    vertex 6.994164549984073 -7.1649884894525595 0.0
    vertex 7.9807635402763815 -6.531551783058049 0.0
  endloop
endfacet
facet normal 0.5402713720818773 -0.8414908463606517 0.0
  outer loop
    vertex 6.994164549984073 -7.1649884894525595 0.0
    vertex 7.9807635402763815 -6.531551783058049 2.5000000000000004
    vertex 6.994164549984073 -7.1649884894525595 2.5000000000000004
  endloop
endfacet
facet normal 0.42948651852116404 -0.903073269678917 0.0
  outer loop
    vertex 6.994164549984073 -7.1649884894525595 2.5000000000000004
    vertex 5.935363756275455 -7.668536409610843 0.0
    vertex 6.994164549984073 -7.1649884894525595 0.0
  endloop
endfacet
facet normal 0.42948651852116404 -0.903073269678917 0.0
  outer loop
    vertex 5.935363756275455 -7.668536409610843 0.0
    vertex 6.994164549984073 -7.1649884894525595 2.5000000000000004
    vertex 5.935363756275455 -7.668536409610843 2.5000000000000004
  endloop
endfacet
facet normal 0.31180167257358216 -0.9501472080579496 0.0
  outer loop
    vertex 5.935363756275455 -7.668536409610843 2.5000000000000004
    vertex 4.821371512446261 -8.034105704467684 0.0
    vertex 5.935363756275455 -7.668536409610843 0.0
  endloop
endfacet
facet normal 0.31180167257358216 -0.9501472080579496 0.0
  outer loop
    vertex 4.821371512446261 -8.034105704467684 0.0
    vertex 5.935363756275455 -7.668536409610843 2.5000000000000004
    vertex 4.821371512446261 -8.034105704467684 2.5000000000000004
  endloop
endfacet
facet normal 0.18910752115494986 -0.981956386731422 0.0
  outer loop
    vertex 4.821371512446261 -8.034105704467684 2.5000000000000004
    vertex 3.670084859893545 -8.25582325521118 0.0
    vertex 4.821371512446261 -8.034105704467684 0.0
  endloop
endfacet
facet normal 0.18910752115494986 -0.981956386731422 0.0
  outer loop
    vertex 3.670084859893545 -8.25582325521118 0.0
    vertex 4.821371512446261 -8.034105704467684 2.5000000000000004
    vertex 3.670084859893545 -8.25582325521118 2.5000000000000004
  endloop
endfacet
facet normal 0.06337522907299763 -0.9979897696569566 0.0
  outer loop
    vertex 3.670084859893545 -8.25582325521118 2.5000000000000004
    vertex 2.499999999999995 -8.330127018922195 0.0
    vertex 3.670084859893545 -8.25582325521118 0.0
  endloop
endfacet
facet normal 0.06337522907299763 -0.9979897696569566 0.0
  outer loop
    vertex 2.499999999999995 -8.330127018922195 0.0
    vertex 3.670084859893545 -8.25582325521118 2.5000000000000004
    vertex 2.499999999999995 -8.330127018922195 2.5000000000000004
  endloop
endfacet
facet normal -0.06337522907299756 -0.9979897696569565 -0.0
  outer loop
    vertex 2.499999999999995 -8.330127018922195 2.5000000000000004
    vertex 1.3299151401064442 -8.25582325521118 0.0
    vertex 2.499999999999995 -8.330127018922195 0.0
  endloop
endfacet
facet normal -0.06337522907299756 -0.9979897696569565 -0.0
  outer loop
    vertex 1.3299151401064442 -8.25582325521118 0.0
    vertex 2.499999999999995 -8.330127018922195 2.5000000000000004
    vertex 1.3299151401064442 -8.25582325521118 2.5000000000000004
  endloop
endfacet
facet normal -0.1891075211549511 -0.9819563867314218 -0.0
  outer loop
    vertex 1.3299151401064442 -8.25582325521118 2.5000000000000004
    vertex 0.17862848755372948 -8.034105704467683 0.0
    vertex 1.3299151401064442 -8.25582325521118 0.0
  endloop
endfacet
facet normal -0.1891075211549511 -0.9819563867314218 -0.0
  outer loop
    vertex 0.17862848755372948 -8.034105704467683 0.0
    vertex 1.3299151401064442 -8.25582325521118 2.5000000000000004
    vertex 0.17862848755372948 -8.034105704467683 2.5000000000000004
  endloop
endfacet
facet normal -0.3118016725735837 -0.950147208057949 -0.0
  outer loop
    vertex 0.17862848755372948 -8.034105704467683 2.5000000000000004
    vertex -0.9353637562754636 -7.66853640961084 0.0
    vertex 0.17862848755372948 -8.034105704467683 0.0
  endloop
endfacet
facet normal -0.3118016725735837 -0.950147208057949 -0.0
  outer loop
    vertex -0.9353637562754636 -7.66853640961084 0.0
    vertex 0.17862848755372948 -8.034105704467683 2.5000000000000004
    vertex -0.9353637562754636 -7.66853640961084 2.5000000000000004
  endloop
endfacet
facet normal -0.4294865185211642 -0.903073269678917 -0.0
  outer loop
    vertex -0.9353637562754636 -7.66853640961084 2.5000000000000004
    vertex -1.9941645499840808 -7.164988489452557 0.0
    vertex -0.9353637562754636 -7.66853640961084 0.0
  endloop
endfacet
facet normal -0.4294865185211642 -0.903073269678917 -0.0
  outer loop
    vertex -1.9941645499840808 -7.164988489452557 0.0
    vertex -0.9353637562754636 -7.66853640961084 2.5000000000000004
    vertex -1.9941645499840808 -7.164988489452557 2.5000000000000004
  endloop
endfacet
facet normal -0.5402713720818778 -0.8414908463606513 -0.0
  outer loop
    vertex -1.9941645499840808 -7.164988489452557 2.5000000000000004
    vertex -2.9807635402763903 -6.5315517830580445 0.0
    vertex -1.9941645499840808 -7.164988489452557 0.0
  endloop
endfacet
facet normal -0.5402713720818778 -0.8414908463606513 -0.0
  outer loop
    vertex -2.9807635402763903 -6.5315517830580445 0.0
    vertex -1.9941645499840808 -7.164988489452557 2.5000000000000004
    vertex -2.9807635402763903 -6.5315517830580445 2.5000000000000004
  endloop
endfacet
facet normal -0.6423763994002148 -0.7663893015260689 -0.0
  outer loop
    vertex -2.9807635402763903 -6.5315517830580445 2.5000000000000004
    vertex -3.87931034482759 -5.778402880991156 0.0
    vertex -2.9807635402763903 -6.5315517830580445 0.0
  endloop
endfacet
facet normal -0.6423763994002148 -0.7663893015260689 -0.0
  outer loop
    vertex -3.87931034482759 -5.778402880991156 0.0
    vertex -2.9807635402763903 -6.5315517830580445 2.5000000000000004
    vertex -3.87931034482759 -5.778402880991156 2.5000000000000004
  endloop
endfacet
facet normal -1.0 7.494773892130252e-16 0.0
  outer loop
    vertex -3.8793103448275894 -4.837758599010565 2.5000000000000004
    vertex -3.87931034482759 -5.778402880991156 0.0
    vertex -3.87931034482759 -5.778402880991156 2.5000000000000004
  endloop
endfacet
facet normal -1.0 7.494773892130252e-16 0.0
  outer loop
    vertex -3.87931034482759 -5.778402880991156 0.0
    vertex -3.8793103448275894 -4.837758599010565 2.5000000000000004
    vertex -3.8793103448275894 -4.837758599010565 0.0
  endloop
endfacet
facet normal -1.0 7.49477389213025e-16 0.0
  outer loop
    vertex -3.8793103448275836 5.77840288099116 2.5000000000000004
    vertex -3.8793103448275845 4.837758599010568 0.0
    vertex -3.8793103448275845 4.837758599010568 2.5000000000000004
  endloop
endfacet
facet normal -1.0 7.49477389213025e-16 0.0
  outer loop
    vertex -3.8793103448275845 4.837758599010568 0.0
    vertex -3.8793103448275836 5.77840288099116 2.5000000000000004
    vertex -3.8793103448275836 5.77840288099116 0.0
  endloop
endfacet
facet normal -0.6423763994002144 0.7663893015260693 0.0
  outer loop
    vertex -3.8793103448275836 5.77840288099116 2.5000000000000004
    vertex -2.9807635402763837 6.531551783058047 0.0
    vertex -3.8793103448275836 5.77840288099116 0.0
  endloop
endfacet
facet normal -0.6423763994002144 0.7663893015260693 0.0
  outer loop
    vertex -2.9807635402763837 6.531551783058047 0.0
    vertex -3.8793103448275836 5.77840288099116 2.5000000000000004
    vertex -2.9807635402763837 6.531551783058047 2.5000000000000004
  endloop
endfacet
facet normal -0.5402713720818786 0.8414908463606507 0.0
  outer loop
    vertex -2.9807635402763837 6.531551783058047 2.5000000000000004
    vertex -1.994164549984076 7.1649884894525595 0.0
    vertex -2.9807635402763837 6.531551783058047 0.0
  endloop
endfacet
facet normal -0.5402713720818786 0.8414908463606507 0.0
  outer loop
    vertex -1.994164549984076 7.1649884894525595 0.0
    vertex -2.9807635402763837 6.531551783058047 2.5000000000000004
    vertex -1.994164549984076 7.1649884894525595 2.5000000000000004
  endloop
endfacet
facet normal -0.42948651852116354 0.9030732696789171 0.0
  outer loop
    vertex -1.994164549984076 7.1649884894525595 2.5000000000000004
    vertex -0.9353637562754573 7.668536409610843 0.0
    vertex -1.994164549984076 7.1649884894525595 0.0
  endloop
endfacet
facet normal -0.42948651852116354 0.9030732696789171 0.0
  outer loop
    vertex -0.9353637562754573 7.668536409610843 0.0
    vertex -1.994164549984076 7.1649884894525595 2.5000000000000004
    vertex -0.9353637562754573 7.668536409610843 2.5000000000000004
  endloop
endfacet
facet normal -0.31180167257358216 0.9501472080579496 0.0
  outer loop
    vertex -0.9353637562754573 7.668536409610843 2.5000000000000004
    vertex 0.17862848755373759 8.034105704467684 0.0
    vertex -0.9353637562754573 7.668536409610843 0.0
  endloop
endfacet
facet normal -0.31180167257358216 0.9501472080579496 0.0
  outer loop
    vertex 0.17862848755373759 8.034105704467684 0.0
    vertex -0.9353637562754573 7.668536409610843 2.5000000000000004
    vertex 0.17862848755373759 8.034105704467684 2.5000000000000004
  endloop
endfacet
facet normal -0.18910752115495125 0.9819563867314218 0.0
  outer loop
    vertex 0.17862848755373759 8.034105704467684 2.5000000000000004
    vertex 1.3299151401064515 8.255823255211181 0.0
    vertex 0.17862848755373759 8.034105704467684 0.0
  endloop
endfacet
facet normal -0.18910752115495125 0.9819563867314218 0.0
  outer loop
    vertex 1.3299151401064515 8.255823255211181 0.0
    vertex 0.17862848755373759 8.034105704467684 2.5000000000000004
    vertex 1.3299151401064515 8.255823255211181 2.5000000000000004
  endloop
endfacet
facet normal -0.06337522907299643 0.9979897696569565 0.0
  outer loop
    vertex 1.3299151401064515 8.255823255211181 2.5000000000000004
    vertex 2.500000000000001 8.330127018922195 0.0
    vertex 1.3299151401064515 8.255823255211181 0.0
  endloop
endfacet
facet normal -0.06337522907299643 0.9979897696569565 0.0
  outer loop
    vertex 2.500000000000001 8.330127018922195 0.0
    vertex 1.3299151401064515 8.255823255211181 2.5000000000000004
    vertex 2.500000000000001 8.330127018922195 2.5000000000000004
  endloop
endfacet
facet normal 0.0633752290729976 0.9979897696569566 0.0
  outer loop
    vertex 2.500000000000001 8.330127018922195 2.5000000000000004
    vertex 3.670084859893551 8.25582325521118 0.0
    vertex 2.500000000000001 8.330127018922195 0.0
  endloop
endfacet
facet normal 0.0633752290729976 0.9979897696569566 0.0
  outer loop
    vertex 3.670084859893551 8.25582325521118 0.0
    vertex 2.500000000000001 8.330127018922195 2.5000000000000004
    vertex 3.670084859893551 8.25582325521118 2.5000000000000004
  endloop
endfacet
facet normal 0.1891075211549502 0.981956386731422 0.0
  outer loop
    vertex 3.670084859893551 8.25582325521118 2.5000000000000004
    vertex 4.821371512446264 8.034105704467684 0.0
    vertex 3.670084859893551 8.25582325521118 0.0
  endloop
endfacet
facet normal 0.1891075211549502 0.981956386731422 0.0
  outer loop
    vertex 4.821371512446264 8.034105704467684 0.0
    vertex 3.670084859893551 8.25582325521118 2.5000000000000004
    vertex 4.821371512446264 8.034105704467684 2.5000000000000004
  endloop
endfacet
facet normal 0.31180167257358327 0.9501472080579494 0.0
  outer loop
    vertex 4.821371512446264 8.034105704467684 2.5000000000000004
    vertex 5.93536375627546 7.668536409610842 0.0
    vertex 4.821371512446264 8.034105704467684 0.0
  endloop
endfacet
facet normal 0.31180167257358327 0.9501472080579494 0.0
  outer loop
    vertex 5.93536375627546 7.668536409610842 0.0
    vertex 4.821371512446264 8.034105704467684 2.5000000000000004
    vertex 5.93536375627546 7.668536409610842 2.5000000000000004
  endloop
endfacet
facet normal 0.42948651852116304 0.9030732696789174 0.0
  outer loop
    vertex 5.93536375627546 7.668536409610842 2.5000000000000004
    vertex 6.9941645499840766 7.1649884894525595 0.0
    vertex 5.93536375627546 7.668536409610842 0.0
  endloop
endfacet
facet normal 0.42948651852116304 0.9030732696789174 0.0
  outer loop
    vertex 6.9941645499840766 7.1649884894525595 0.0
    vertex 5.93536375627546 7.668536409610842 2.5000000000000004
    vertex 6.9941645499840766 7.1649884894525595 2.5000000000000004
  endloop
endfacet
facet normal 0.5402713720818789 0.8414908463606506 0.0
  outer loop
    vertex 6.9941645499840766 7.1649884894525595 2.5000000000000004
    vertex 7.980763540276386 6.531551783058046 0.0
    vertex 6.9941645499840766 7.1649884894525595 0.0
  endloop
endfacet
facet normal 0.5402713720818789 0.8414908463606506 0.0
  outer loop
    vertex 7.980763540276386 6.531551783058046 0.0
    vertex 6.9941645499840766 7.1649884894525595 2.5000000000000004
    vertex 7.980763540276386 6.531551783058046 2.5000000000000004
  endloop
endfacet
facet normal 0.6423763994002137 0.7663893015260699 0.0
  outer loop
    vertex 7.980763540276386 6.531551783058046 2.5000000000000004
    vertex 8.879310344827587 5.778402880991159 0.0
    vertex 7.980763540276386 6.531551783058046 0.0
  endloop
endfacet
facet normal 0.6423763994002137 0.7663893015260699 0.0
  outer loop
    vertex 8.879310344827587 5.778402880991159 0.0
    vertex 7.980763540276386 6.531551783058046 2.5000000000000004
    vertex 8.879310344827587 5.778402880991159 2.5000000000000004
  endloop
endfacet
facet normal 0.06119894116756089 0.9981255880899806 0.0
  outer loop
    vertex 8.879310344827587 5.778402880991159 2.5000000000000004
    vertex 32.5 4.330127018922193 0.0
    vertex 8.879310344827587 5.778402880991159 0.0
  endloop
endfacet
facet normal 0.06119894116756089 0.9981255880899806 0.0
  outer loop
    vertex 32.5 4.330127018922193 0.0
    vertex 8.879310344827587 5.778402880991159 2.5000000000000004
    vertex 32.5 4.330127018922193 2.5000000000000004
  endloop
endfacet
facet normal 0.7015229474995941 0.7126468649559062 0.0
  outer loop
    vertex 32.5 4.330127018922193 2.5000000000000004
    vertex 33.08408274061866 3.7551613999998406 0.0
    vertex 32.5 4.330127018922193 0.0
  endloop
endfacet
facet normal 0.7015229474995941 0.7126468649559062 0.0
  outer loop
    vertex 33.08408274061866 3.7551613999998406 0.0
    vertex 32.5 4.330127018922193 2.5000000000000004
    vertex 33.08408274061866 3.7551613999998406 2.5000000000000004
  endloop
endfacet
facet normal 0.7966679064383296 0.6044172787496805 0.0
  outer loop
    vertex 33.08408274061866 3.7551613999998406 0.0
    vertex 33.57946091178515 3.102215323847211 2.5000000000000004
    vertex 33.57946091178515 3.102215323847211 0.0
  endloop
endfacet
facet normal 0.7966679064383296 0.6044172787496805 0.0
  outer loop
    vertex 33.57946091178515 3.102215323847211 2.5000000000000004
    vertex 33.08408274061866 3.7551613999998406 0.0
    vertex 33.08408274061866 3.7551613999998406 2.5000000000000004
  endloop
endfacet
facet normal 0.8752690950867179 0.4836362384955021 0.0
  outer loop
    vertex 33.57946091178515 3.102215323847211 0.0
    vertex 33.975847388080716 2.384848003542364 2.5000000000000004
    vertex 33.975847388080716 2.384848003542364 0.0
  endloop
endfacet
facet normal 0.8752690950867179 0.4836362384955021 0.0
  outer loop
    vertex 33.975847388080716 2.384848003542364 2.5000000000000004
    vertex 33.57946091178515 3.102215323847211 0.0
    vertex 33.57946091178515 3.102215323847211 2.5000000000000004
  endloop
endfacet
facet normal 0.9356942649268636 0.35281190822161385 0.0
  outer loop
    vertex 33.975847388080716 2.384848003542364 0.0
    vertex 34.265010726068226 1.6179564370251032 2.5000000000000004
    vertex 34.265010726068226 1.6179564370251032 0.0
  endloop
endfacet
facet normal 0.9356942649268636 0.35281190822161385 0.0
  outer loop
    vertex 34.265010726068226 1.6179564370251032 2.5000000000000004
    vertex 33.975847388080716 2.384848003542364 0.0
    vertex 33.975847388080716 2.384848003542364 2.5000000000000004
  endloop
endfacet
facet normal 0.9766886144015415 0.21466101299117438 0.0
  outer loop
    vertex 34.265010726068226 1.6179564370251032 0.0
    vertex 34.44094610014669 0.8174660529609084 2.5000000000000004
    vertex 34.44094610014669 0.8174660529609084 0.0
  endloop
endfacet
facet normal 0.9766886144015415 0.21466101299117438 0.0
  outer loop
    vertex 34.44094610014669 0.8174660529609084 2.5000000000000004
    vertex 34.265010726068226 1.6179564370251032 0.0
    vertex 34.265010726068226 1.6179564370251032 2.5000000000000004
  endloop
endfacet
facet normal 0.9974008463825084 0.07205242282849308 0.0
  outer loop
    vertex 34.44094610014669 0.8174660529609084 0.0
    vertex 34.5 -1.0574874309554614e-15 2.5000000000000004
    vertex 34.5 -1.0574874309554614e-15 0.0
  endloop
endfacet
facet normal 0.9974008463825084 0.07205242282849308 0.0
  outer loop
    vertex 34.5 -1.0574874309554614e-15 2.5000000000000004
    vertex 34.44094610014669 0.8174660529609084 0.0
    vertex 34.44094610014669 0.8174660529609084 2.5000000000000004
  endloop
endfacet
facet normal 0.9974008463825085 -0.07205242282849311 0.0
  outer loop
    vertex 34.5 -1.0574874309554614e-15 0.0
    vertex 34.44094610014669 -0.8174660529609101 2.5000000000000004
    vertex 34.44094610014669 -0.8174660529609101 0.0
  endloop
endfacet
facet normal 0.9974008463825085 -0.07205242282849311 0.0
  outer loop
    vertex 34.44094610014669 -0.8174660529609101 2.5000000000000004
    vertex 34.5 -1.0574874309554614e-15 0.0
    vertex 34.5 -1.0574874309554614e-15 2.5000000000000004
  endloop
endfacet
facet normal 0.9766886144015415 -0.21466101299117418 0.0
  outer loop
    vertex 34.44094610014669 -0.8174660529609101 0.0
    vertex 34.265010726068226 -1.6179564370251056 2.5000000000000004
    vertex 34.265010726068226 -1.6179564370251056 0.0
  endloop
endfacet
facet normal 0.9766886144015415 -0.21466101299117418 0.0
  outer loop
    vertex 34.265010726068226 -1.6179564370251056 2.5000000000000004
    vertex 34.44094610014669 -0.8174660529609101 0.0
    vertex 34.44094610014669 -0.8174660529609101 2.5000000000000004
  endloop
endfacet
facet normal 0.9356942649268637 -0.3528119082216134 0.0
  outer loop
    vertex 34.265010726068226 -1.6179564370251056 0.0
    vertex 33.975847388080716 -2.384848003542367 2.5000000000000004
    vertex 33.975847388080716 -2.384848003542367 0.0
  endloop
endfacet
facet normal 0.9356942649268637 -0.3528119082216134 0.0
  outer loop
    vertex 33.975847388080716 -2.384848003542367 2.5000000000000004
    vertex 34.265010726068226 -1.6179564370251056 0.0
    vertex 34.265010726068226 -1.6179564370251056 2.5000000000000004
  endloop
endfacet
facet normal 0.8752690950867177 -0.48363623849550225 0.0
  outer loop
    vertex 33.975847388080716 -2.384848003542367 0.0
    vertex 33.57946091178515 -3.102215323847214 2.5000000000000004
    vertex 33.57946091178515 -3.102215323847214 0.0
  endloop
endfacet
facet normal 0.8752690950867177 -0.48363623849550225 0.0
  outer loop
    vertex 33.57946091178515 -3.102215323847214 2.5000000000000004
    vertex 33.975847388080716 -2.384848003542367 0.0
    vertex 33.975847388080716 -2.384848003542367 2.5000000000000004
  endloop
endfacet
facet normal 0.7966679064383294 -0.6044172787496808 0.0
  outer loop
    vertex 33.57946091178515 -3.102215323847214 0.0
    vertex 33.08408274061866 -3.755161399999843 2.5000000000000004
    vertex 33.08408274061866 -3.755161399999843 0.0
  endloop
endfacet
facet normal 0.7966679064383294 -0.6044172787496808 0.0
  outer loop
    vertex 33.08408274061866 -3.755161399999843 2.5000000000000004
    vertex 33.57946091178515 -3.102215323847214 0.0
    vertex 33.57946091178515 -3.102215323847214 2.5000000000000004
  endloop
endfacet
facet normal -0.7071067811865476 -0.7071067811865476 0.0
  outer loop
    vertex -3.8793103448275845 4.837758599010568 2.5000000000000004
    vertex -3.1386660628469927 4.097114317029977 0.0
    vertex -3.1386660628469927 4.097114317029977 2.5000000000000004
  endloop
endfacet
facet normal -0.7071067811865476 -0.7071067811865476 0.0
  outer loop
    vertex -3.1386660628469927 4.097114317029977 0.0
    vertex -3.8793103448275845 4.837758599010568 2.5000000000000004
    vertex -3.8793103448275845 4.837758599010568 0.0
  endloop
endfacet
facet normal -0.7071067811865468 0.7071067811865482 -0.0
  outer loop
    vertex -3.8793103448275894 -4.837758599010565 2.5000000000000004
    vertex -3.1386660628469967 -4.097114317029974 0.0
    vertex -3.8793103448275894 -4.837758599010565 0.0
  endloop
endfacet
facet normal -0.7071067811865468 0.7071067811865482 -0.0
  outer loop
    vertex -3.1386660628469967 -4.097114317029974 0.0
    vertex -3.8793103448275894 -4.837758599010565 2.5000000000000004
    vertex -3.1386660628469967 -4.097114317029974 2.5000000000000004
  endloop
endfacet
facet normal 9.137152963094042e-33 -1.0096076886632566e-32 1.0
  outer loop
    vertex -2.9807635402763903 -6.5315517830580445 2.5000000000000004
    vertex -3.8793103448275894 -4.837758599010565 2.5000000000000004
    vertex -3.87931034482759 -5.778402880991156 2.5000000000000004
  endloop
endfacet
facet normal 9.137152963094042e-33 -1.0096076886632566e-32 1.0
  outer loop
    vertex -3.8793103448275894 -4.837758599010565 2.5000000000000004
    vertex -2.9807635402763903 -6.5315517830580445 2.5000000000000004
    vertex -3.1386660628469967 -4.097114317029974 2.5000000000000004
  endloop
endfacet
facet normal 9.137152963094042e-33 -1.0096076886632566e-32 1.0
  outer loop
    vertex -3.1386660628469967 -4.097114317029974 2.5000000000000004
    vertex -2.9807635402763903 -6.5315517830580445 2.5000000000000004
    vertex -2.250000000000003 -4.097114317029975 2.5000000000000004
  endloop
endfacet
facet normal 9.137152963094042e-33 -1.0096076886632566e-32 1.0
  outer loop
    vertex -2.250000000000003 -4.097114317029975 2.5000000000000004
    vertex -2.9807635402763903 -6.5315517830580445 2.5000000000000004
    vertex -1.9941645499840808 -7.164988489452557 2.5000000000000004
  endloop
endfacet
facet normal 9.137152963094042e-33 -1.0096076886632566e-32 1.0
  outer loop
    vertex -2.250000000000003 -4.097114317029975 2.5000000000000004
    vertex -1.9941645499840808 -7.164988489452557 2.5000000000000004
    vertex 2.3654700538379245 -4.097114317029978 2.5000000000000004
  endloop
endfacet
facet normal 9.137152963094042e-33 -1.0096076886632566e-32 1.0
  outer loop
    vertex 2.3654700538379245 -4.097114317029978 2.5000000000000004
    vertex -1.9941645499840808 -7.164988489452557 2.5000000000000004
    vertex -0.9353637562754636 -7.66853640961084 2.5000000000000004
  endloop
endfacet
facet normal 9.137152963094042e-33 -1.0096076886632566e-32 1.0
  outer loop
    vertex 2.3654700538379245 -4.097114317029978 2.5000000000000004
    vertex -0.9353637562754636 -7.66853640961084 2.5000000000000004
    vertex 0.17862848755372948 -8.034105704467683 2.5000000000000004
  endloop
endfacet
facet normal 9.137152963094042e-33 -1.0096076886632566e-32 1.0
  outer loop
    vertex 2.3654700538379245 -4.097114317029978 2.5000000000000004
    vertex 0.17862848755372948 -8.034105704467683 2.5000000000000004
    vertex 1.3299151401064442 -8.25582325521118 2.5000000000000004
  endloop
endfacet
facet normal 9.137152963094042e-33 -1.0096076886632566e-32 1.0
  outer loop
    vertex 2.3654700538379245 -4.097114317029978 2.5000000000000004
    vertex 1.3299151401064442 -8.25582325521118 2.5000000000000004
    vertex 2.499999999999995 -8.330127018922195 2.5000000000000004
  endloop
endfacet
facet normal 9.137152963094042e-33 -1.0096076886632566e-32 1.0
  outer loop
    vertex 2.3654700538379245 -4.097114317029978 2.5000000000000004
    vertex 2.499999999999995 -8.330127018922195 2.5000000000000004
    vertex 4.7309401076758535 -1.4540452175637596e-15 2.5000000000000004
  endloop
endfacet
facet normal 9.137152963094042e-33 -1.0096076886632566e-32 1.0
  outer loop
    vertex 4.7309401076758535 -1.4540452175637596e-15 2.5000000000000004
    vertex 2.499999999999995 -8.330127018922195 2.5000000000000004
    vertex 3.670084859893545 -8.25582325521118 2.5000000000000004
  endloop
endfacet
facet normal 9.137152963094042e-33 -1.0096076886632566e-32 1.0
  outer loop
    vertex 4.7309401076758535 -1.4540452175637596e-15 2.5000000000000004
    vertex 3.670084859893545 -8.25582325521118 2.5000000000000004
    vertex 4.821371512446261 -8.034105704467684 2.5000000000000004
  endloop
endfacet
facet normal 9.137152963094042e-33 -1.0096076886632566e-32 1.0
  outer loop
    vertex -3.1386660628469927 4.097114317029977 2.5000000000000004
    vertex -3.8793103448275836 5.77840288099116 2.5000000000000004
    vertex -3.8793103448275845 4.837758599010568 2.5000000000000004
  endloop
endfacet
facet normal 9.137152963094042e-33 -1.0096076886632566e-32 1.0
  outer loop
    vertex -3.8793103448275836 5.77840288099116 2.5000000000000004
    vertex -3.1386660628469927 4.097114317029977 2.5000000000000004
    vertex -2.9807635402763837 6.531551783058047 2.5000000000000004
  endloop
endfacet
facet normal 9.137152963094042e-33 -1.0096076886632566e-32 1.0
  outer loop
    vertex -2.9807635402763837 6.531551783058047 2.5000000000000004
    vertex -3.1386660628469927 4.097114317029977 2.5000000000000004
    vertex -2.250000000000001 4.097114317029977 2.5000000000000004
  endloop
endfacet
facet normal 9.137152963094042e-33 -1.0096076886632566e-32 1.0
  outer loop
    vertex -2.9807635402763837 6.531551783058047 2.5000000000000004
    vertex -2.250000000000001 4.097114317029977 2.5000000000000004
    vertex -1.994164549984076 7.1649884894525595 2.5000000000000004
  endloop
endfacet
facet normal 9.137152963094042e-33 -1.0096076886632566e-32 1.0
  outer loop
    vertex -1.994164549984076 7.1649884894525595 2.5000000000000004
    vertex -2.250000000000001 4.097114317029977 2.5000000000000004
    vertex 2.365470053837927 4.097114317029976 2.5000000000000004
  endloop
endfacet
facet normal 9.137152963094042e-33 -1.0096076886632566e-32 1.0
  outer loop
    vertex -1.994164549984076 7.1649884894525595 2.5000000000000004
    vertex 2.365470053837927 4.097114317029976 2.5000000000000004
    vertex -0.9353637562754573 7.668536409610843 2.5000000000000004
  endloop
endfacet
facet normal 9.137152963094042e-33 -1.0096076886632566e-32 1.0
  outer loop
    vertex -0.9353637562754573 7.668536409610843 2.5000000000000004
    vertex 2.365470053837927 4.097114317029976 2.5000000000000004
    vertex 0.17862848755373759 8.034105704467684 2.5000000000000004
  endloop
endfacet
facet normal 9.137152963094042e-33 -1.0096076886632566e-32 1.0
  outer loop
    vertex 0.17862848755373759 8.034105704467684 2.5000000000000004
    vertex 2.365470053837927 4.097114317029976 2.5000000000000004
    vertex 1.3299151401064515 8.255823255211181 2.5000000000000004
  endloop
endfacet
facet normal 9.137152963094042e-33 -1.0096076886632566e-32 1.0
  outer loop
    vertex 1.3299151401064515 8.255823255211181 2.5000000000000004
    vertex 2.365470053837927 4.097114317029976 2.5000000000000004
    vertex 2.500000000000001 8.330127018922195 2.5000000000000004
  endloop
endfacet
facet normal 9.137152963094042e-33 -1.0096076886632566e-32 1.0
  outer loop
    vertex 2.500000000000001 8.330127018922195 2.5000000000000004
    vertex 2.365470053837927 4.097114317029976 2.5000000000000004
    vertex 4.7309401076758535 -1.4540452175637596e-15 2.5000000000000004
  endloop
endfacet
facet normal 9.137152963094042e-33 -1.0096076886632566e-32 1.0
  outer loop
    vertex 2.500000000000001 8.330127018922195 2.5000000000000004
    vertex 4.7309401076758535 -1.4540452175637596e-15 2.5000000000000004
    vertex 3.670084859893551 8.25582325521118 2.5000000000000004
  endloop
endfacet
facet normal 9.137152963094042e-33 -1.0096076886632566e-32 1.0
  outer loop
    vertex 3.670084859893551 8.25582325521118 2.5000000000000004
    vertex 4.7309401076758535 -1.4540452175637596e-15 2.5000000000000004
    vertex 4.821371512446264 8.034105704467684 2.5000000000000004
  endloop
endfacet
facet normal 9.137152963094042e-33 -1.0096076886632566e-32 1.0
  outer loop
    vertex 4.821371512446264 8.034105704467684 2.5000000000000004
    vertex 4.7309401076758535 -1.4540452175637596e-15 2.5000000000000004
    vertex 4.821371512446261 -8.034105704467684 2.5000000000000004
  endloop
endfacet
facet normal 9.137152963094042e-33 -1.0096076886632566e-32 1.0
  outer loop
    vertex 4.821371512446264 8.034105704467684 2.5000000000000004
    vertex 4.821371512446261 -8.034105704467684 2.5000000000000004
    vertex 5.935363756275455 -7.668536409610843 2.5000000000000004
  endloop
endfacet
facet normal 9.137152963094042e-33 -1.0096076886632566e-32 1.0
  outer loop
    vertex 4.821371512446264 8.034105704467684 2.5000000000000004
    vertex 5.935363756275455 -7.668536409610843 2.5000000000000004
    vertex 5.93536375627546 7.668536409610842 2.5000000000000004
  endloop
endfacet
facet normal 9.137152963094042e-33 -1.0096076886632566e-32 1.0
  outer loop
    vertex 5.93536375627546 7.668536409610842 2.5000000000000004
    vertex 5.935363756275455 -7.668536409610843 2.5000000000000004
    vertex 6.994164549984073 -7.1649884894525595 2.5000000000000004
  endloop
endfacet
facet normal 9.137152963094042e-33 -1.0096076886632566e-32 1.0
  outer loop
    vertex 5.93536375627546 7.668536409610842 2.5000000000000004
    vertex 6.994164549984073 -7.1649884894525595 2.5000000000000004
    vertex 6.9941645499840766 7.1649884894525595 2.5000000000000004
  endloop
endfacet
facet normal 9.137152963094042e-33 -1.0096076886632566e-32 1.0
  outer loop
    vertex 6.9941645499840766 7.1649884894525595 2.5000000000000004
    vertex 6.994164549984073 -7.1649884894525595 2.5000000000000004
    vertex 7.9807635402763815 -6.531551783058049 2.5000000000000004
  endloop
endfacet
facet normal 9.137152963094042e-33 -1.0096076886632566e-32 1.0
  outer loop
    vertex 6.9941645499840766 7.1649884894525595 2.5000000000000004
    vertex 7.9807635402763815 -6.531551783058049 2.5000000000000004
    vertex 7.980763540276386 6.531551783058046 2.5000000000000004
  endloop
endfacet
facet normal 9.137152963094042e-33 -1.0096076886632566e-32 1.0
  outer loop
    vertex 7.980763540276386 6.531551783058046 2.5000000000000004
    vertex 7.9807635402763815 -6.531551783058049 2.5000000000000004
    vertex 8.87931034482758 -5.778402880991162 2.5000000000000004
  endloop
endfacet
facet normal 9.137152963094042e-33 -1.0096076886632566e-32 1.0
  outer loop
    vertex 7.980763540276386 6.531551783058046 2.5000000000000004
    vertex 8.87931034482758 -5.778402880991162 2.5000000000000004
    vertex 8.879310344827587 5.778402880991159 2.5000000000000004
  endloop
endfacet
facet normal 9.137152963094042e-33 -1.0096076886632566e-32 1.0
  outer loop
    vertex 8.879310344827587 5.778402880991159 2.5000000000000004
    vertex 8.87931034482758 -5.778402880991162 2.5000000000000004
    vertex 32.5 -4.330127018922195 2.5000000000000004
  endloop
endfacet
facet normal 9.137152963094042e-33 -1.0096076886632566e-32 1.0
  outer loop
    vertex 8.879310344827587 5.778402880991159 2.5000000000000004
    vertex 32.5 -4.330127018922195 2.5000000000000004
    vertex 32.5 4.330127018922193 2.5000000000000004
  endloop
endfacet
facet normal 9.137152963094042e-33 -1.0096076886632566e-32 1.0
  outer loop
    vertex 32.5 4.330127018922193 2.5000000000000004
    vertex 32.5 -4.330127018922195 2.5000000000000004
    vertex 33.08408274061866 -3.755161399999843 2.5000000000000004
  endloop
endfacet
facet normal 9.137152963094042e-33 -1.0096076886632566e-32 1.0
  outer loop
    vertex 32.5 4.330127018922193 2.5000000000000004
    vertex 33.08408274061866 -3.755161399999843 2.5000000000000004
    vertex 33.08408274061866 3.7551613999998406 2.5000000000000004
  endloop
endfacet
facet normal 9.137152963094042e-33 -1.0096076886632566e-32 1.0
  outer loop
    vertex 33.08408274061866 3.7551613999998406 2.5000000000000004
    vertex 33.08408274061866 -3.755161399999843 2.5000000000000004
    vertex 33.57946091178515 -3.102215323847214 2.5000000000000004
  endloop
endfacet
facet normal 9.137152963094042e-33 -1.0096076886632566e-32 1.0
  outer loop
    vertex 33.08408274061866 3.7551613999998406 2.5000000000000004
    vertex 33.57946091178515 -3.102215323847214 2.5000000000000004
    vertex 33.57946091178515 3.102215323847211 2.5000000000000004
  endloop
endfacet
facet normal 9.137152963094042e-33 -1.0096076886632566e-32 1.0
  outer loop
    vertex 33.57946091178515 3.102215323847211 2.5000000000000004
    vertex 33.57946091178515 -3.102215323847214 2.5000000000000004
    vertex 33.975847388080716 -2.384848003542367 2.5000000000000004
  endloop
endfacet
facet normal 9.137152963094042e-33 -1.0096076886632566e-32 1.0
  outer loop
    vertex 33.57946091178515 3.102215323847211 2.5000000000000004
    vertex 33.975847388080716 -2.384848003542367 2.5000000000000004
    vertex 33.975847388080716 2.384848003542364 2.5000000000000004
  endloop
endfacet
facet normal 9.137152963094042e-33 -1.0096076886632566e-32 1.0
  outer loop
    vertex 33.975847388080716 2.384848003542364 2.5000000000000004
    vertex 33.975847388080716 -2.384848003542367 2.5000000000000004
    vertex 34.265010726068226 -1.6179564370251056 2.5000000000000004
  endloop
endfacet
facet normal 9.137152963094042e-33 -1.0096076886632566e-32 1.0
  outer loop
    vertex 33.975847388080716 2.384848003542364 2.5000000000000004
    vertex 34.265010726068226 -1.6179564370251056 2.5000000000000004
    vertex 34.265010726068226 1.6179564370251032 2.5000000000000004
  endloop
endfacet
facet normal 9.137152963094042e-33 -1.0096076886632566e-32 1.0
  outer loop
    vertex 34.265010726068226 1.6179564370251032 2.5000000000000004
    vertex 34.265010726068226 -1.6179564370251056 2.5000000000000004
    vertex 34.44094610014669 -0.8174660529609101 2.5000000000000004
  endloop
endfacet
facet normal 9.137152963094042e-33 -1.0096076886632566e-32 1.0
  outer loop
    vertex 34.265010726068226 1.6179564370251032 2.5000000000000004
    vertex 34.44094610014669 -0.8174660529609101 2.5000000000000004
    vertex 34.44094610014669 0.8174660529609084 2.5000000000000004
  endloop
endfacet
facet normal 9.137152963094042e-33 -1.0096076886632566e-32 1.0
  outer loop
    vertex 34.44094610014669 0.8174660529609084 2.5000000000000004
    vertex 34.44094610014669 -0.8174660529609101 2.5000000000000004
    vertex 34.5 -1.0574874309554614e-15 2.5000000000000004
  endloop
endfacet
facet normal 5.806018454904117e-16 1.0 -2.4066466838718586e-32
  outer loop
    vertex -3.1386660628469967 -4.097114317029974 2.5000000000000004
    vertex -2.250000000000003 -4.097114317029975 0.0
    vertex -3.1386660628469967 -4.097114317029974 0.0
  endloop
endfacet
facet normal 5.806018454904117e-16 1.0 -2.4066466838718586e-32
  outer loop
    vertex -2.250000000000003 -4.097114317029975 0.0
    vertex -3.1386660628469967 -4.097114317029974 2.5000000000000004
    vertex 2.3654700538379245 -4.097114317029978 0.0
  endloop
endfacet
facet normal 5.806018454904117e-16 1.0 -2.4066466838718586e-32
  outer loop
    vertex 2.3654700538379245 -4.097114317029978 0.0
    vertex -3.1386660628469967 -4.097114317029974 2.5000000000000004
    vertex 2.3654700538379245 -4.097114317029978 2.5000000000000004
  endloop
endfacet
facet normal 5.806018454904117e-16 1.0 -2.4066466838718586e-32
  outer loop
    vertex 2.3654700538379245 -4.097114317029978 2.5000000000000004
    vertex -3.1386660628469967 -4.097114317029974 2.5000000000000004
    vertex -2.250000000000003 -4.097114317029975 2.5000000000000004
  endloop
endfacet
facet normal -0.8660254037844385 0.5000000000000004 -0.0
  outer loop
    vertex 4.7309401076758535 -1.4540452175637596e-15 2.5000000000000004
    vertex 2.3654700538379245 -4.097114317029978 0.0
    vertex 2.3654700538379245 -4.097114317029978 2.5000000000000004
  endloop
endfacet
facet normal -0.8660254037844385 0.5000000000000004 -0.0
  outer loop
    vertex 2.3654700538379245 -4.097114317029978 0.0
    vertex 4.7309401076758535 -1.4540452175637596e-15 2.5000000000000004
    vertex 4.7309401076758535 -1.4540452175637596e-15 0.0
  endloop
endfacet
facet normal -0.8660254037844387 -0.4999999999999999 -0.0
  outer loop
    vertex 2.365470053837927 4.097114317029976 2.5000000000000004
    vertex 4.7309401076758535 -1.4540452175637596e-15 0.0
    vertex 4.7309401076758535 -1.4540452175637596e-15 2.5000000000000004
  endloop
endfacet
facet normal -0.8660254037844387 -0.4999999999999999 -0.0
  outer loop
    vertex 4.7309401076758535 -1.4540452175637596e-15 0.0
    vertex 2.365470053837927 4.097114317029976 2.5000000000000004
    vertex 2.365470053837927 4.097114317029976 0.0
  endloop
endfacet
facet normal -1.3618126347081224e-16 -1.0 0.0
  outer loop
    vertex 2.365470053837927 4.097114317029976 2.5000000000000004
    vertex -2.250000000000001 4.097114317029977 0.0
    vertex 2.365470053837927 4.097114317029976 0.0
  endloop
endfacet
facet normal -1.3618126347081224e-16 -1.0 0.0
  outer loop
    vertex -2.250000000000001 4.097114317029977 0.0
    vertex 2.365470053837927 4.097114317029976 2.5000000000000004
    vertex -3.1386660628469927 4.097114317029977 0.0
  endloop
endfacet
facet normal -1.3618126347081224e-16 -1.0 0.0
  outer loop
    vertex -3.1386660628469927 4.097114317029977 0.0
    vertex 2.365470053837927 4.097114317029976 2.5000000000000004
    vertex -3.1386660628469927 4.097114317029977 2.5000000000000004
  endloop
endfacet
facet normal -1.3618126347081224e-16 -1.0 0.0
  outer loop
    vertex -3.1386660628469927 4.097114317029977 2.5000000000000004
    vertex 2.365470053837927 4.097114317029976 2.5000000000000004
    vertex -2.250000000000001 4.097114317029977 2.5000000000000004
  endloop
endfacet
endsolid Wrench_for_No6
