solid XYMotorTie
facet normal 0.0 0.0 -1.0
  outer loop
    vertex -16.053471929524743 -14.078517031508104 0.0
    vertex -16.499999999999996 -17.5 0.0
    vertex -17.875230440455805 -13.716146733304765 0.0
  endloop
endfacet
facet normal 0.0 0.0 -1.0
  outer loop
    vertex -16.499999999999996 -17.5 0.0
    vertex -16.053471929524743 -14.078517031508104 0.0
    vertex -16.421629400464855 -16.9047161962642 0.0
  endloop
endfacet
facet normal 0.0 0.0 -1.0
  outer loop
    vertex -16.421629400464855 -16.9047161962642 0.0
    vertex -16.053471929524743 -14.078517031508104 0.0
    vertex -16.191858428704204 -16.349999999999998 0.0
  endloop
endfacet
facet normal 0.0 0.0 -1.0
  outer loop
    vertex -16.191858428704204 -16.349999999999998 0.0
    vertex -16.053471929524743 -14.078517031508104 0.0
    vertex -15.826345596729059 -15.87365440327094 0.0
  endloop
endfacet
facet normal 0.0 0.0 -1.0
  outer loop
    vertex -15.826345596729059 -15.87365440327094 0.0
    vertex -16.053471929524743 -14.078517031508104 0.0
    vertex -14.200000000000003 -14.2 0.0
  endloop
endfacet
facet normal 0.0 0.0 -1.0
  outer loop
    vertex -15.826345596729059 -15.87365440327094 0.0
    vertex -14.200000000000003 -14.2 0.0
    vertex -15.349999999999998 -15.508141571295793 0.0
  endloop
endfacet
facet normal 0.0 0.0 -1.0
  outer loop
    vertex -15.349999999999998 -15.508141571295793 0.0
    vertex -14.200000000000003 -14.2 0.0
    vertex -14.795283803735797 -15.278370599535142 0.0
  endloop
endfacet
facet normal 0.0 0.0 -1.0
  outer loop
    vertex -14.795283803735797 -15.278370599535142 0.0
    vertex -14.200000000000003 -14.2 0.0
    vertex -14.2 -15.200000000000001 0.0
  endloop
endfacet
facet normal 0.0 0.0 -1.0
  outer loop
    vertex -14.2 -15.200000000000001 0.0
    vertex -14.200000000000003 -14.2 0.0
    vertex -12.346528070475271 -14.078517031508108 0.0
  endloop
endfacet
facet normal 0.0 0.0 -1.0
  outer loop
    vertex -14.2 -15.200000000000001 0.0
    vertex -12.346528070475271 -14.078517031508108 0.0
    vertex -13.604716196264203 -15.278370599535142 0.0
  endloop
endfacet
facet normal 0.0 0.0 -1.0
  outer loop
    vertex -13.604716196264203 -15.278370599535142 0.0
    vertex -12.346528070475271 -14.078517031508108 0.0
    vertex -13.049999999999999 -15.508141571295793 0.0
  endloop
endfacet
facet normal 0.0 0.0 -1.0
  outer loop
    vertex -13.049999999999999 -15.508141571295793 0.0
    vertex -12.346528070475271 -14.078517031508108 0.0
    vertex -12.57365440327094 -15.87365440327094 0.0
  endloop
endfacet
facet normal 0.0 0.0 -1.0
  outer loop
    vertex -12.57365440327094 -15.87365440327094 0.0
    vertex -12.346528070475271 -14.078517031508108 0.0
    vertex -12.20814157129579 -16.35 0.0
  endloop
endfacet
facet normal 0.0 0.0 -1.0
  outer loop
    vertex -12.20814157129579 -16.35 0.0
    vertex -12.346528070475271 -14.078517031508108 0.0
    vertex -10.524769559544211 -13.71614673330477 0.0
  endloop
endfacet
facet normal 0.0 0.0 -1.0
  outer loop
    vertex -12.20814157129579 -16.35 0.0
    vertex -10.524769559544211 -13.71614673330477 0.0
    vertex -11.978370599535143 -16.9047161962642 0.0
  endloop
endfacet
facet normal 0.0 0.0 -1.0
  outer loop
    vertex -11.978370599535143 -16.9047161962642 0.0
    vertex -10.524769559544211 -13.71614673330477 0.0
    vertex -11.9 -17.5 0.0
  endloop
endfacet
facet normal 0.0 0.0 -1.0
  outer loop
    vertex 12.346528070475264 -14.078517031508104 0.0
    vertex 11.899999999999999 -17.5 0.0
    vertex 10.524769559544199 -13.716146733304765 0.0
  endloop
endfacet
facet normal 0.0 0.0 -1.0
  outer loop
    vertex 11.899999999999999 -17.5 0.0
    vertex 12.346528070475264 -14.078517031508104 0.0
    vertex 11.97837059953514 -16.9047161962642 0.0
  endloop
endfacet
facet normal 0.0 0.0 -1.0
  outer loop
    vertex 11.97837059953514 -16.9047161962642 0.0
    vertex 12.346528070475264 -14.078517031508104 0.0
    vertex 12.20814157129579 -16.349999999999998 0.0
  endloop
endfacet
facet normal 0.0 0.0 -1.0
  outer loop
    vertex 12.20814157129579 -16.349999999999998 0.0
    vertex 12.346528070475264 -14.078517031508104 0.0
    vertex 12.573654403270938 -15.87365440327094 0.0
  endloop
endfacet
facet normal 0.0 0.0 -1.0
  outer loop
    vertex 12.573654403270938 -15.87365440327094 0.0
    vertex 12.346528070475264 -14.078517031508104 0.0
    vertex 14.199999999999996 -14.199999999999996 0.0
  endloop
endfacet
facet normal 0.0 0.0 -1.0
  outer loop
    vertex 12.573654403270938 -15.87365440327094 0.0
    vertex 14.199999999999996 -14.199999999999996 0.0
    vertex 13.049999999999999 -15.508141571295793 0.0
  endloop
endfacet
facet normal 0.0 0.0 -1.0
  outer loop
    vertex 13.049999999999999 -15.508141571295793 0.0
    vertex 14.199999999999996 -14.199999999999996 0.0
    vertex 13.6047161962642 -15.278370599535142 0.0
  endloop
endfacet
facet normal 0.0 0.0 -1.0
  outer loop
    vertex 13.6047161962642 -15.278370599535142 0.0
    vertex 14.199999999999996 -14.199999999999996 0.0
    vertex 14.199999999999996 -15.200000000000001 0.0
  endloop
endfacet
facet normal 0.0 0.0 -1.0
  outer loop
    vertex 14.199999999999996 -15.200000000000001 0.0
    vertex 14.199999999999996 -14.199999999999996 0.0
    vertex 16.053471929524726 -14.078517031508104 0.0
  endloop
endfacet
facet normal 0.0 0.0 -1.0
  outer loop
    vertex 14.199999999999996 -15.200000000000001 0.0
    vertex 16.053471929524726 -14.078517031508104 0.0
    vertex 14.795283803735794 -15.278370599535142 0.0
  endloop
endfacet
facet normal 0.0 0.0 -1.0
  outer loop
    vertex 14.795283803735794 -15.278370599535142 0.0
    vertex 16.053471929524726 -14.078517031508104 0.0
    vertex 15.349999999999998 -15.508141571295793 0.0
  endloop
endfacet
facet normal 0.0 0.0 -1.0
  outer loop
    vertex 15.349999999999998 -15.508141571295793 0.0
    vertex 16.053471929524726 -14.078517031508104 0.0
    vertex 15.826345596729055 -15.87365440327094 0.0
  endloop
endfacet
facet normal 0.0 0.0 -1.0
  outer loop
    vertex 15.826345596729055 -15.87365440327094 0.0
    vertex 16.053471929524726 -14.078517031508104 0.0
    vertex 16.191858428704204 -16.35 0.0
  endloop
endfacet
facet normal 0.0 0.0 -1.0
  outer loop
    vertex 16.191858428704204 -16.35 0.0
    vertex 16.053471929524726 -14.078517031508104 0.0
    vertex 17.875230440455788 -13.716146733304768 0.0
  endloop
endfacet
facet normal 0.0 0.0 -1.0
  outer loop
    vertex 16.191858428704204 -16.35 0.0
    vertex 17.875230440455788 -13.716146733304768 0.0
    vertex 16.42162940046485 -16.9047161962642 0.0
  endloop
endfacet
facet normal 0.0 0.0 -1.0
  outer loop
    vertex 16.42162940046485 -16.9047161962642 0.0
    vertex 17.875230440455788 -13.716146733304768 0.0
    vertex 16.499999999999996 -17.5 0.0
  endloop
endfacet
facet normal 0.0 0.0 -1.0
  outer loop
    vertex -17.875230440455805 -13.716146733304765 0.0
    vertex -19.2 -22.5 0.0
    vertex -19.2 -13.26644806430493 0.0
  endloop
endfacet
facet normal 0.0 0.0 -1.0
  outer loop
    vertex -19.2 -22.5 0.0
    vertex -17.875230440455805 -13.716146733304765 0.0
    vertex -16.421629400464855 -18.095283803735796 0.0
  endloop
endfacet
facet normal 0.0 0.0 -1.0
  outer loop
    vertex -19.2 -22.5 0.0
    vertex -16.421629400464855 -18.095283803735796 0.0
    vertex -16.191858428704204 -18.65 0.0
  endloop
endfacet
facet normal 0.0 0.0 -1.0
  outer loop
    vertex -19.2 -22.5 0.0
    vertex -16.191858428704204 -18.65 0.0
    vertex -15.826345596729059 -19.126345596729056 0.0
  endloop
endfacet
facet normal 0.0 0.0 -1.0
  outer loop
    vertex -19.2 -22.5 0.0
    vertex -15.826345596729059 -19.126345596729056 0.0
    vertex -15.35 -19.491858428704205 0.0
  endloop
endfacet
facet normal 0.0 0.0 -1.0
  outer loop
    vertex -19.2 -22.5 0.0
    vertex -15.35 -19.491858428704205 0.0
    vertex -14.7952838037358 -19.721629400464856 0.0
  endloop
endfacet
facet normal 0.0 0.0 -1.0
  outer loop
    vertex -19.2 -22.5 0.0
    vertex -14.7952838037358 -19.721629400464856 0.0
    vertex -14.2 -19.799999999999997 0.0
  endloop
endfacet
facet normal 0.0 0.0 -1.0
  outer loop
    vertex -19.2 -22.5 0.0
    vertex -14.2 -19.799999999999997 0.0
    vertex 19.199999999999996 -22.5 0.0
  endloop
endfacet
facet normal 0.0 0.0 -1.0
  outer loop
    vertex -16.421629400464855 -18.095283803735796 0.0
    vertex -17.875230440455805 -13.716146733304765 0.0
    vertex -16.499999999999996 -17.5 0.0
  endloop
endfacet
facet normal 0.0 0.0 -1.0
  outer loop
    vertex 19.199999999999996 -22.5 0.0
    vertex -14.2 -19.799999999999997 0.0
    vertex -13.604716196264203 -19.721629400464856 0.0
  endloop
endfacet
facet normal 0.0 0.0 -1.0
  outer loop
    vertex 19.199999999999996 -22.5 0.0
    vertex -13.604716196264203 -19.721629400464856 0.0
    vertex -13.05 -19.49185842870421 0.0
  endloop
endfacet
facet normal 0.0 0.0 -1.0
  outer loop
    vertex 19.199999999999996 -22.5 0.0
    vertex -13.05 -19.49185842870421 0.0
    vertex -12.573654403270941 -19.126345596729056 0.0
  endloop
endfacet
facet normal 0.0 0.0 -1.0
  outer loop
    vertex 19.199999999999996 -22.5 0.0
    vertex -12.573654403270941 -19.126345596729056 0.0
    vertex -12.208141571295792 -18.65 0.0
  endloop
endfacet
facet normal 0.0 0.0 -1.0
  outer loop
    vertex 19.199999999999996 -22.5 0.0
    vertex -12.208141571295792 -18.65 0.0
    vertex -11.978370599535143 -18.0952838037358 0.0
  endloop
endfacet
facet normal 0.0 0.0 -1.0
  outer loop
    vertex 19.199999999999996 -22.5 0.0
    vertex -11.978370599535143 -18.0952838037358 0.0
    vertex -11.9 -17.5 0.0
  endloop
endfacet
facet normal 0.0 0.0 -1.0
  outer loop
    vertex 19.199999999999996 -22.5 0.0
    vertex -11.9 -17.5 0.0
    vertex -10.524769559544211 -13.71614673330477 0.0
  endloop
endfacet
facet normal 0.0 0.0 -1.0
  outer loop
    vertex 19.199999999999996 -22.5 0.0
    vertex -10.524769559544211 -13.71614673330477 0.0
    vertex -8.765895260415734 -13.119089361660274 0.0
  endloop
endfacet
facet normal 0.0 0.0 -1.0
  outer loop
    vertex 19.199999999999996 -22.5 0.0
    vertex -8.765895260415734 -13.119089361660274 0.0
    vertex -7.100000000000009 -12.297560733739035 0.0
  endloop
endfacet
facet normal 0.0 0.0 -1.0
  outer loop
    vertex 19.199999999999996 -22.5 0.0
    vertex -7.100000000000009 -12.297560733739035 0.0
    vertex -5.555587708076177 -11.265617432135548 0.0
  endloop
endfacet
facet normal 0.0 0.0 -1.0
  outer loop
    vertex 19.199999999999996 -22.5 0.0
    vertex -5.555587708076177 -11.265617432135548 0.0
    vertex 13.049999999999995 -19.491858428704205 0.0
  endloop
endfacet
facet normal 0.0 0.0 -1.0
  outer loop
    vertex 13.049999999999995 -19.491858428704205 0.0
    vertex -5.555587708076177 -11.265617432135548 0.0
    vertex -4.159083707151027 -10.040916292848976 0.0
  endloop
endfacet
facet normal 0.0 0.0 -1.0
  outer loop
    vertex 13.049999999999995 -19.491858428704205 0.0
    vertex -4.159083707151027 -10.040916292848976 0.0
    vertex -2.9343825678644637 -8.644412291923837 0.0
  endloop
endfacet
facet normal 0.0 0.0 -1.0
  outer loop
    vertex 13.049999999999995 -19.491858428704205 0.0
    vertex -2.9343825678644637 -8.644412291923837 0.0
    vertex 12.573654403270938 -19.126345596729056 0.0
  endloop
endfacet
facet normal 0.0 0.0 -1.0
  outer loop
    vertex 12.573654403270938 -19.126345596729056 0.0
    vertex -2.9343825678644637 -8.644412291923837 0.0
    vertex -1.9024392662609753 -7.100000000000005 0.0
  endloop
endfacet
facet normal 0.0 0.0 -1.0
  outer loop
    vertex 12.573654403270938 -19.126345596729056 0.0
    vertex -1.9024392662609753 -7.100000000000005 0.0
    vertex -1.0809106383397318 -5.434104739584283 0.0
  endloop
endfacet
facet normal 0.0 0.0 -1.0
  outer loop
    vertex 12.573654403270938 -19.126345596729056 0.0
    vertex -1.0809106383397318 -5.434104739584283 0.0
    vertex 4.159083707151023 -10.040916292848973 0.0
  endloop
endfacet
facet normal 0.0 0.0 -1.0
  outer loop
    vertex 4.159083707151023 -10.040916292848973 0.0
    vertex -1.0809106383397318 -5.434104739584283 0.0
    vertex 2.934382567864458 -8.64441229192383 0.0
  endloop
endfacet
facet normal 0.0 0.0 -1.0
  outer loop
    vertex 2.934382567864458 -8.64441229192383 0.0
    vertex -1.0809106383397318 -5.434104739584283 0.0
    vertex -0.48385326669523426 -3.6752304404558056 0.0
  endloop
endfacet
facet normal 0.0 0.0 -1.0
  outer loop
    vertex 2.934382567864458 -8.64441229192383 0.0
    vertex -0.48385326669523426 -3.6752304404558056 0.0
    vertex 1.9024392662609697 -7.099999999999997 0.0
  endloop
endfacet
facet normal 0.0 0.0 -1.0
  outer loop
    vertex 1.9024392662609697 -7.099999999999997 0.0
    vertex -0.48385326669523426 -3.6752304404558056 0.0
    vertex 1.0809106383397291 -5.434104739584273 0.0
  endloop
endfacet
facet normal 0.0 0.0 -1.0
  outer loop
    vertex 1.0809106383397291 -5.434104739584273 0.0
    vertex -0.48385326669523426 -3.6752304404558056 0.0
    vertex 0.48385326669522866 -3.6752304404557936 0.0
  endloop
endfacet
facet normal 0.0 0.0 -1.0
  outer loop
    vertex 0.48385326669522866 -3.6752304404557936 0.0
    vertex -0.48385326669523426 -3.6752304404558056 0.0
    vertex -0.12148296849189423 -1.8534719295247466 0.0
  endloop
endfacet
facet normal 0.0 0.0 -1.0
  outer loop
    vertex 0.48385326669522866 -3.6752304404557936 0.0
    vertex -0.12148296849189423 -1.8534719295247466 0.0
    vertex 0.12148296849189141 -1.8534719295247317 0.0
  endloop
endfacet
facet normal 0.0 0.0 -1.0
  outer loop
    vertex 0.12148296849189141 -1.8534719295247317 0.0
    vertex -0.12148296849189423 -1.8534719295247466 0.0
    vertex 0.0 0.0 0.0
  endloop
endfacet
facet normal 0.0 0.0 -1.0
  outer loop
    vertex 12.573654403270938 -19.126345596729056 0.0
    vertex 4.159083707151023 -10.040916292848973 0.0
    vertex 5.555587708076166 -11.265617432135537 0.0
  endloop
endfacet
facet normal 0.0 0.0 -1.0
  outer loop
    vertex 12.573654403270938 -19.126345596729056 0.0
    vertex 5.555587708076166 -11.265617432135537 0.0
    vertex 7.099999999999997 -12.297560733739026 0.0
  endloop
endfacet
facet normal 0.0 0.0 -1.0
  outer loop
    vertex 12.573654403270938 -19.126345596729056 0.0
    vertex 7.099999999999997 -12.297560733739026 0.0
    vertex 12.208141571295789 -18.65 0.0
  endloop
endfacet
facet normal 0.0 0.0 -1.0
  outer loop
    vertex 12.208141571295789 -18.65 0.0
    vertex 7.099999999999997 -12.297560733739026 0.0
    vertex 8.765895260415723 -13.119089361660267 0.0
  endloop
endfacet
facet normal 0.0 0.0 -1.0
  outer loop
    vertex 12.208141571295789 -18.65 0.0
    vertex 8.765895260415723 -13.119089361660267 0.0
    vertex 11.97837059953514 -18.095283803735796 0.0
  endloop
endfacet
facet normal 0.0 0.0 -1.0
  outer loop
    vertex 11.97837059953514 -18.095283803735796 0.0
    vertex 8.765895260415723 -13.119089361660267 0.0
    vertex 10.524769559544199 -13.716146733304765 0.0
  endloop
endfacet
facet normal 0.0 0.0 -1.0
  outer loop
    vertex 11.97837059953514 -18.095283803735796 0.0
    vertex 10.524769559544199 -13.716146733304765 0.0
    vertex 11.899999999999999 -17.5 0.0
  endloop
endfacet
facet normal 0.0 0.0 -1.0
  outer loop
    vertex 19.199999999999996 -22.5 0.0
    vertex 13.049999999999995 -19.491858428704205 0.0
    vertex 13.604716196264196 -19.721629400464856 0.0
  endloop
endfacet
facet normal 0.0 0.0 -1.0
  outer loop
    vertex 19.199999999999996 -22.5 0.0
    vertex 13.604716196264196 -19.721629400464856 0.0
    vertex 14.199999999999996 -19.799999999999997 0.0
  endloop
endfacet
facet normal 0.0 0.0 -1.0
  outer loop
    vertex 19.199999999999996 -22.5 0.0
    vertex 14.199999999999996 -19.799999999999997 0.0
    vertex 14.795283803735794 -19.721629400464856 0.0
  endloop
endfacet
facet normal 0.0 0.0 -1.0
  outer loop
    vertex 19.199999999999996 -22.5 0.0
    vertex 14.795283803735794 -19.721629400464856 0.0
    vertex 15.349999999999994 -19.49185842870421 0.0
  endloop
endfacet
facet normal 0.0 0.0 -1.0
  outer loop
    vertex 19.199999999999996 -22.5 0.0
    vertex 15.349999999999994 -19.49185842870421 0.0
    vertex 15.826345596729055 -19.126345596729056 0.0
  endloop
endfacet
facet normal 0.0 0.0 -1.0
  outer loop
    vertex 19.199999999999996 -22.5 0.0
    vertex 15.826345596729055 -19.126345596729056 0.0
    vertex 16.191858428704204 -18.65 0.0
  endloop
endfacet
facet normal 0.0 0.0 -1.0
  outer loop
    vertex 19.199999999999996 -22.5 0.0
    vertex 16.191858428704204 -18.65 0.0
    vertex 16.42162940046485 -18.0952838037358 0.0
  endloop
endfacet
facet normal 0.0 0.0 -1.0
  outer loop
    vertex 19.199999999999996 -22.5 0.0
    vertex 16.42162940046485 -18.0952838037358 0.0
    vertex 16.499999999999996 -17.5 0.0
  endloop
endfacet
facet normal 0.0 0.0 -1.0
  outer loop
    vertex 19.199999999999996 -22.5 0.0
    vertex 16.499999999999996 -17.5 0.0
    vertex 17.875230440455788 -13.716146733304768 0.0
  endloop
endfacet
facet normal 0.0 0.0 -1.0
  outer loop
    vertex 19.199999999999996 -22.5 0.0
    vertex 17.875230440455788 -13.716146733304768 0.0
    vertex 19.199999999999996 -13.26644806430493 0.0
  endloop
endfacet
facet normal -0.0 -0.0 1.0
  outer loop
    vertex -16.499999999999996 -17.5 18.0
    vertex -16.053471929524743 -14.078517031508104 18.0
    vertex -17.875230440455805 -13.716146733304765 18.0
  endloop
endfacet
facet normal -0.0 -0.0 1.0
  outer loop
    vertex -16.053471929524743 -14.078517031508104 18.0
    vertex -16.499999999999996 -17.5 18.0
    vertex -16.421629400464855 -16.9047161962642 18.0
  endloop
endfacet
facet normal -0.0 -0.0 1.0
  outer loop
    vertex -16.053471929524743 -14.078517031508104 18.0
    vertex -16.421629400464855 -16.9047161962642 18.0
    vertex -16.191858428704204 -16.349999999999998 18.0
  endloop
endfacet
facet normal -0.0 -0.0 1.0
  outer loop
    vertex -16.053471929524743 -14.078517031508104 18.0
    vertex -16.191858428704204 -16.349999999999998 18.0
    vertex -15.826345596729059 -15.87365440327094 18.0
  endloop
endfacet
facet normal -0.0 -0.0 1.0
  outer loop
    vertex -16.053471929524743 -14.078517031508104 18.0
    vertex -15.826345596729059 -15.87365440327094 18.0
    vertex -14.200000000000003 -14.2 18.0
  endloop
endfacet
facet normal -0.0 -0.0 1.0
  outer loop
    vertex -14.200000000000003 -14.2 18.0
    vertex -15.826345596729059 -15.87365440327094 18.0
    vertex -15.349999999999998 -15.508141571295793 18.0
  endloop
endfacet
facet normal -0.0 -0.0 1.0
  outer loop
    vertex -14.200000000000003 -14.2 18.0
    vertex -15.349999999999998 -15.508141571295793 18.0
    vertex -14.795283803735797 -15.278370599535142 18.0
  endloop
endfacet
facet normal -0.0 -0.0 1.0
  outer loop
    vertex -14.200000000000003 -14.2 18.0
    vertex -14.795283803735797 -15.278370599535142 18.0
    vertex -14.2 -15.200000000000001 18.0
  endloop
endfacet
facet normal -0.0 -0.0 1.0
  outer loop
    vertex -14.200000000000003 -14.2 18.0
    vertex -14.2 -15.200000000000001 18.0
    vertex -12.346528070475271 -14.078517031508108 18.0
  endloop
endfacet
facet normal -0.0 -0.0 1.0
  outer loop
    vertex -12.346528070475271 -14.078517031508108 18.0
    vertex -14.2 -15.200000000000001 18.0
    vertex -13.604716196264203 -15.278370599535142 18.0
  endloop
endfacet
facet normal -0.0 -0.0 1.0
  outer loop
    vertex -12.346528070475271 -14.078517031508108 18.0
    vertex -13.604716196264203 -15.278370599535142 18.0
    vertex -13.049999999999999 -15.508141571295793 18.0
  endloop
endfacet
facet normal -0.0 -0.0 1.0
  outer loop
    vertex -12.346528070475271 -14.078517031508108 18.0
    vertex -13.049999999999999 -15.508141571295793 18.0
    vertex -12.57365440327094 -15.87365440327094 18.0
  endloop
endfacet
facet normal -0.0 -0.0 1.0
  outer loop
    vertex -12.346528070475271 -14.078517031508108 18.0
    vertex -12.57365440327094 -15.87365440327094 18.0
    vertex -12.20814157129579 -16.35 18.0
  endloop
endfacet
facet normal -0.0 -0.0 1.0
  outer loop
    vertex -12.346528070475271 -14.078517031508108 18.0
    vertex -12.20814157129579 -16.35 18.0
    vertex -10.524769559544211 -13.71614673330477 18.0
  endloop
endfacet
facet normal -0.0 -0.0 1.0
  outer loop
    vertex -10.524769559544211 -13.71614673330477 18.0
    vertex -12.20814157129579 -16.35 18.0
    vertex -11.978370599535143 -16.9047161962642 18.0
  endloop
endfacet
facet normal -0.0 -0.0 1.0
  outer loop
    vertex -10.524769559544211 -13.71614673330477 18.0
    vertex -11.978370599535143 -16.9047161962642 18.0
    vertex -11.9 -17.5 18.0
  endloop
endfacet
facet normal -0.0 -0.0 1.0
  outer loop
    vertex -19.2 -22.5 18.0
    vertex -16.191858428704204 -18.65 18.0
    vertex -19.2 -13.26644806430493 18.0
  endloop
endfacet
facet normal -0.0 -0.0 1.0
  outer loop
    vertex -16.191858428704204 -18.65 18.0
    vertex -19.2 -22.5 18.0
    vertex -15.826345596729059 -19.126345596729056 18.0
  endloop
endfacet
facet normal -0.0 -0.0 1.0
  outer loop
    vertex -15.826345596729059 -19.126345596729056 18.0
    vertex -19.2 -22.5 18.0
    vertex -15.35 -19.491858428704205 18.0
  endloop
endfacet
facet normal -0.0 -0.0 1.0
  outer loop
    vertex -15.35 -19.491858428704205 18.0
    vertex -19.2 -22.5 18.0
    vertex -14.7952838037358 -19.721629400464856 18.0
  endloop
endfacet
facet normal -0.0 -0.0 1.0
  outer loop
    vertex -14.7952838037358 -19.721629400464856 18.0
    vertex -19.2 -22.5 18.0
    vertex -14.2 -19.799999999999997 18.0
  endloop
endfacet
facet normal -0.0 -0.0 1.0
  outer loop
    vertex -14.2 -19.799999999999997 18.0
    vertex -19.2 -22.5 18.0
    vertex 19.199999999999996 -22.5 18.0
  endloop
endfacet
facet normal -0.0 -0.0 1.0
  outer loop
    vertex -19.2 -13.26644806430493 18.0
    vertex -16.191858428704204 -18.65 18.0
    vertex -16.421629400464855 -18.095283803735796 18.0
  endloop
endfacet
facet normal -0.0 -0.0 1.0
  outer loop
    vertex -19.2 -13.26644806430493 18.0
    vertex -16.421629400464855 -18.095283803735796 18.0
    vertex -17.875230440455805 -13.716146733304765 18.0
  endloop
endfacet
facet normal -0.0 -0.0 1.0
  outer loop
    vertex -17.875230440455805 -13.716146733304765 18.0
    vertex -16.421629400464855 -18.095283803735796 18.0
    vertex -16.499999999999996 -17.5 18.0
  endloop
endfacet
facet normal -0.0 -0.0 1.0
  outer loop
    vertex -14.2 -19.799999999999997 18.0
    vertex 19.199999999999996 -22.5 18.0
    vertex -13.604716196264203 -19.721629400464856 18.0
  endloop
endfacet
facet normal -0.0 -0.0 1.0
  outer loop
    vertex -13.604716196264203 -19.721629400464856 18.0
    vertex 19.199999999999996 -22.5 18.0
    vertex -13.05 -19.49185842870421 18.0
  endloop
endfacet
facet normal -0.0 -0.0 1.0
  outer loop
    vertex -13.05 -19.49185842870421 18.0
    vertex 19.199999999999996 -22.5 18.0
    vertex -12.573654403270941 -19.126345596729056 18.0
  endloop
endfacet
facet normal -0.0 -0.0 1.0
  outer loop
    vertex -12.573654403270941 -19.126345596729056 18.0
    vertex 19.199999999999996 -22.5 18.0
    vertex -12.208141571295792 -18.65 18.0
  endloop
endfacet
facet normal -0.0 -0.0 1.0
  outer loop
    vertex -12.208141571295792 -18.65 18.0
    vertex 19.199999999999996 -22.5 18.0
    vertex -11.978370599535143 -18.0952838037358 18.0
  endloop
endfacet
facet normal -0.0 -0.0 1.0
  outer loop
    vertex -11.978370599535143 -18.0952838037358 18.0
    vertex 19.199999999999996 -22.5 18.0
    vertex -11.9 -17.5 18.0
  endloop
endfacet
facet normal -0.0 -0.0 1.0
  outer loop
    vertex -11.9 -17.5 18.0
    vertex 19.199999999999996 -22.5 18.0
    vertex -10.524769559544211 -13.71614673330477 18.0
  endloop
endfacet
facet normal -0.0 -0.0 1.0
  outer loop
    vertex -10.524769559544211 -13.71614673330477 18.0
    vertex 19.199999999999996 -22.5 18.0
    vertex -8.765895260415734 -13.119089361660274 18.0
  endloop
endfacet
facet normal -0.0 -0.0 1.0
  outer loop
    vertex -8.765895260415734 -13.119089361660274 18.0
    vertex 19.199999999999996 -22.5 18.0
    vertex -7.100000000000009 -12.297560733739035 18.0
  endloop
endfacet
facet normal -0.0 -0.0 1.0
  outer loop
    vertex -7.100000000000009 -12.297560733739035 18.0
    vertex 19.199999999999996 -22.5 18.0
    vertex -5.555587708076177 -11.265617432135548 18.0
  endloop
endfacet
facet normal -0.0 -0.0 1.0
  outer loop
    vertex -5.555587708076177 -11.265617432135548 18.0
    vertex 19.199999999999996 -22.5 18.0
    vertex 13.049999999999995 -19.491858428704205 18.0
  endloop
endfacet
facet normal -0.0 -0.0 1.0
  outer loop
    vertex -5.555587708076177 -11.265617432135548 18.0
    vertex 13.049999999999995 -19.491858428704205 18.0
    vertex -4.159083707151027 -10.040916292848976 18.0
  endloop
endfacet
facet normal -0.0 -0.0 1.0
  outer loop
    vertex -4.159083707151027 -10.040916292848976 18.0
    vertex 13.049999999999995 -19.491858428704205 18.0
    vertex -2.9343825678644637 -8.644412291923837 18.0
  endloop
endfacet
facet normal -0.0 -0.0 1.0
  outer loop
    vertex -2.9343825678644637 -8.644412291923837 18.0
    vertex 13.049999999999995 -19.491858428704205 18.0
    vertex 12.573654403270938 -19.126345596729056 18.0
  endloop
endfacet
facet normal -0.0 -0.0 1.0
  outer loop
    vertex -2.9343825678644637 -8.644412291923837 18.0
    vertex 12.573654403270938 -19.126345596729056 18.0
    vertex -1.9024392662609753 -7.100000000000005 18.0
  endloop
endfacet
facet normal -0.0 -0.0 1.0
  outer loop
    vertex -1.9024392662609753 -7.100000000000005 18.0
    vertex 12.573654403270938 -19.126345596729056 18.0
    vertex -1.0809106383397318 -5.434104739584283 18.0
  endloop
endfacet
facet normal -0.0 -0.0 1.0
  outer loop
    vertex -1.0809106383397318 -5.434104739584283 18.0
    vertex 12.573654403270938 -19.126345596729056 18.0
    vertex 4.159083707151023 -10.040916292848973 18.0
  endloop
endfacet
facet normal -0.0 -0.0 1.0
  outer loop
    vertex -1.0809106383397318 -5.434104739584283 18.0
    vertex 4.159083707151023 -10.040916292848973 18.0
    vertex 2.934382567864458 -8.64441229192383 18.0
  endloop
endfacet
facet normal -0.0 -0.0 1.0
  outer loop
    vertex -1.0809106383397318 -5.434104739584283 18.0
    vertex 2.934382567864458 -8.64441229192383 18.0
    vertex -0.48385326669523426 -3.6752304404558056 18.0
  endloop
endfacet
facet normal -0.0 -0.0 1.0
  outer loop
    vertex -0.48385326669523426 -3.6752304404558056 18.0
    vertex 2.934382567864458 -8.64441229192383 18.0
    vertex 1.9024392662609697 -7.099999999999997 18.0
  endloop
endfacet
facet normal -0.0 -0.0 1.0
  outer loop
    vertex -0.48385326669523426 -3.6752304404558056 18.0
    vertex 1.9024392662609697 -7.099999999999997 18.0
    vertex 1.0809106383397291 -5.434104739584273 18.0
  endloop
endfacet
facet normal -0.0 -0.0 1.0
  outer loop
    vertex -0.48385326669523426 -3.6752304404558056 18.0
    vertex 1.0809106383397291 -5.434104739584273 18.0
    vertex 0.48385326669522866 -3.6752304404557936 18.0
  endloop
endfacet
facet normal -0.0 -0.0 1.0
  outer loop
    vertex -0.48385326669523426 -3.6752304404558056 18.0
    vertex 0.48385326669522866 -3.6752304404557936 18.0
    vertex -0.12148296849189423 -1.8534719295247466 18.0
  endloop
endfacet
facet normal -0.0 -0.0 1.0
  outer loop
    vertex -0.12148296849189423 -1.8534719295247466 18.0
    vertex 0.48385326669522866 -3.6752304404557936 18.0
    vertex 0.12148296849189141 -1.8534719295247317 18.0
  endloop
endfacet
facet normal -0.0 -0.0 1.0
  outer loop
    vertex -0.12148296849189423 -1.8534719295247466 18.0
    vertex 0.12148296849189141 -1.8534719295247317 18.0
    vertex 0.0 0.0 18.0
  endloop
endfacet
facet normal -0.0 -0.0 1.0
  outer loop
    vertex 4.159083707151023 -10.040916292848973 18.0
    vertex 12.573654403270938 -19.126345596729056 18.0
    vertex 5.555587708076166 -11.265617432135537 18.0
  endloop
endfacet
facet normal -0.0 -0.0 1.0
  outer loop
    vertex 5.555587708076166 -11.265617432135537 18.0
    vertex 12.573654403270938 -19.126345596729056 18.0
    vertex 7.099999999999997 -12.297560733739026 18.0
  endloop
endfacet
facet normal -0.0 -0.0 1.0
  outer loop
    vertex 7.099999999999997 -12.297560733739026 18.0
    vertex 12.573654403270938 -19.126345596729056 18.0
    vertex 12.208141571295789 -18.65 18.0
  endloop
endfacet
facet normal -0.0 -0.0 1.0
  outer loop
    vertex 7.099999999999997 -12.297560733739026 18.0
    vertex 12.208141571295789 -18.65 18.0
    vertex 8.765895260415723 -13.119089361660267 18.0
  endloop
endfacet
facet normal -0.0 -0.0 1.0
  outer loop
    vertex 8.765895260415723 -13.119089361660267 18.0
    vertex 12.208141571295789 -18.65 18.0
    vertex 11.97837059953514 -18.095283803735796 18.0
  endloop
endfacet
facet normal -0.0 -0.0 1.0
  outer loop
    vertex 8.765895260415723 -13.119089361660267 18.0
    vertex 11.97837059953514 -18.095283803735796 18.0
    vertex 10.524769559544199 -13.716146733304765 18.0
  endloop
endfacet
facet normal -0.0 -0.0 1.0
  outer loop
    vertex 10.524769559544199 -13.716146733304765 18.0
    vertex 11.97837059953514 -18.095283803735796 18.0
    vertex 11.899999999999999 -17.5 18.0
  endloop
endfacet
facet normal -0.0 -0.0 1.0
  outer loop
    vertex 13.049999999999995 -19.491858428704205 18.0
    vertex 19.199999999999996 -22.5 18.0
    vertex 13.604716196264196 -19.721629400464856 18.0
  endloop
endfacet
facet normal -0.0 -0.0 1.0
  outer loop
    vertex 13.604716196264196 -19.721629400464856 18.0
    vertex 19.199999999999996 -22.5 18.0
    vertex 14.199999999999996 -19.799999999999997 18.0
  endloop
endfacet
facet normal -0.0 -0.0 1.0
  outer loop
    vertex 14.199999999999996 -19.799999999999997 18.0
    vertex 19.199999999999996 -22.5 18.0
    vertex 14.795283803735794 -19.721629400464856 18.0
  endloop
endfacet
facet normal -0.0 -0.0 1.0
  outer loop
    vertex 14.795283803735794 -19.721629400464856 18.0
    vertex 19.199999999999996 -22.5 18.0
    vertex 15.349999999999994 -19.49185842870421 18.0
  endloop
endfacet
facet normal -0.0 -0.0 1.0
  outer loop
    vertex 15.349999999999994 -19.49185842870421 18.0
    vertex 19.199999999999996 -22.5 18.0
    vertex 15.826345596729055 -19.126345596729056 18.0
  endloop
endfacet
facet normal -0.0 -0.0 1.0
  outer loop
    vertex 15.826345596729055 -19.126345596729056 18.0
    vertex 19.199999999999996 -22.5 18.0
    vertex 16.191858428704204 -18.65 18.0
  endloop
endfacet
facet normal -0.0 -0.0 1.0
  outer loop
    vertex 16.191858428704204 -18.65 18.0
    vertex 19.199999999999996 -22.5 18.0
    vertex 16.42162940046485 -18.0952838037358 18.0
  endloop
endfacet
facet normal -0.0 -0.0 1.0
  outer loop
    vertex 16.42162940046485 -18.0952838037358 18.0
    vertex 19.199999999999996 -22.5 18.0
    vertex 16.499999999999996 -17.5 18.0
  endloop
endfacet
facet normal -0.0 -0.0 1.0
  outer loop
    vertex 16.499999999999996 -17.5 18.0
    vertex 19.199999999999996 -22.5 18.0
    vertex 17.875230440455788 -13.716146733304768 18.0
  endloop
endfacet
facet normal -0.0 -0.0 1.0
  outer loop
    vertex 17.875230440455788 -13.716146733304768 18.0
    vertex 19.199999999999996 -22.5 18.0
    vertex 19.199999999999996 -13.26644806430493 18.0
  endloop
endfacet
facet normal -0.0 -0.0 1.0
  outer loop
    vertex 11.899999999999999 -17.5 18.0
    vertex 12.346528070475264 -14.078517031508104 18.0
    vertex 10.524769559544199 -13.716146733304765 18.0
  endloop
endfacet
facet normal -0.0 -0.0 1.0
  outer loop
    vertex 12.346528070475264 -14.078517031508104 18.0
    vertex 11.899999999999999 -17.5 18.0
    vertex 11.97837059953514 -16.9047161962642 18.0
  endloop
endfacet
facet normal -0.0 -0.0 1.0
  outer loop
    vertex 12.346528070475264 -14.078517031508104 18.0
    vertex 11.97837059953514 -16.9047161962642 18.0
    vertex 12.20814157129579 -16.349999999999998 18.0
  endloop
endfacet
facet normal -0.0 -0.0 1.0
  outer loop
    vertex 12.346528070475264 -14.078517031508104 18.0
    vertex 12.20814157129579 -16.349999999999998 18.0
    vertex 12.573654403270938 -15.87365440327094 18.0
  endloop
endfacet
facet normal -0.0 -0.0 1.0
  outer loop
    vertex 12.346528070475264 -14.078517031508104 18.0
    vertex 12.573654403270938 -15.87365440327094 18.0
    vertex 14.199999999999996 -14.199999999999996 18.0
  endloop
endfacet
facet normal -0.0 -0.0 1.0
  outer loop
    vertex 14.199999999999996 -14.199999999999996 18.0
    vertex 12.573654403270938 -15.87365440327094 18.0
    vertex 13.049999999999999 -15.508141571295793 18.0
  endloop
endfacet
facet normal -0.0 -0.0 1.0
  outer loop
    vertex 14.199999999999996 -14.199999999999996 18.0
    vertex 13.049999999999999 -15.508141571295793 18.0
    vertex 13.6047161962642 -15.278370599535142 18.0
  endloop
endfacet
facet normal -0.0 -0.0 1.0
  outer loop
    vertex 14.199999999999996 -14.199999999999996 18.0
    vertex 13.6047161962642 -15.278370599535142 18.0
    vertex 14.199999999999996 -15.200000000000001 18.0
  endloop
endfacet
facet normal -0.0 -0.0 1.0
  outer loop
    vertex 14.199999999999996 -14.199999999999996 18.0
    vertex 14.199999999999996 -15.200000000000001 18.0
    vertex 14.795283803735794 -15.278370599535142 18.0
  endloop
endfacet
facet normal -0.0 -0.0 1.0
  outer loop
    vertex 14.199999999999996 -14.199999999999996 18.0
    vertex 14.795283803735794 -15.278370599535142 18.0
    vertex 16.053471929524726 -14.078517031508104 18.0
  endloop
endfacet
facet normal -0.0 -0.0 1.0
  outer loop
    vertex 16.053471929524726 -14.078517031508104 18.0
    vertex 14.795283803735794 -15.278370599535142 18.0
    vertex 15.349999999999998 -15.508141571295793 18.0
  endloop
endfacet
facet normal -0.0 -0.0 1.0
  outer loop
    vertex 16.053471929524726 -14.078517031508104 18.0
    vertex 15.349999999999998 -15.508141571295793 18.0
    vertex 15.826345596729055 -15.87365440327094 18.0
  endloop
endfacet
facet normal -0.0 -0.0 1.0
  outer loop
    vertex 16.053471929524726 -14.078517031508104 18.0
    vertex 15.826345596729055 -15.87365440327094 18.0
    vertex 16.191858428704204 -16.35 18.0
  endloop
endfacet
facet normal -0.0 -0.0 1.0
  outer loop
    vertex 16.053471929524726 -14.078517031508104 18.0
    vertex 16.191858428704204 -16.35 18.0
    vertex 17.875230440455788 -13.716146733304768 18.0
  endloop
endfacet
facet normal -0.0 -0.0 1.0
  outer loop
    vertex 17.875230440455788 -13.716146733304768 18.0
    vertex 16.191858428704204 -16.35 18.0
    vertex 16.42162940046485 -16.9047161962642 18.0
  endloop
endfacet
facet normal -0.0 -0.0 1.0
  outer loop
    vertex 17.875230440455788 -13.716146733304768 18.0
    vertex 16.42162940046485 -16.9047161962642 18.0
    vertex 16.499999999999996 -17.5 18.0
  endloop
endfacet
facet normal 0.06540312923014387 0.9978589232386036 0.0
  outer loop
    vertex -16.053471929524743 -14.078517031508104 18.0
    vertex -14.200000000000003 -14.2 0.0
    vertex -16.053471929524743 -14.078517031508104 0.0
  endloop
endfacet
facet normal 0.06540312923014387 0.9978589232386036 0.0
  outer loop
    vertex -14.200000000000003 -14.2 0.0
    vertex -16.053471929524743 -14.078517031508104 18.0
    vertex -14.200000000000003 -14.2 18.0
  endloop
endfacet
facet normal -0.06540312923014276 0.9978589232386037 0.0
  outer loop
    vertex -14.200000000000003 -14.2 18.0
    vertex -12.346528070475271 -14.078517031508108 0.0
    vertex -14.200000000000003 -14.2 0.0
  endloop
endfacet
facet normal -0.06540312923014276 0.9978589232386037 0.0
  outer loop
    vertex -12.346528070475271 -14.078517031508108 0.0
    vertex -14.200000000000003 -14.2 18.0
    vertex -12.346528070475271 -14.078517031508108 18.0
  endloop
endfacet
facet normal -0.1950903220161279 0.9807852804032307 0.0
  outer loop
    vertex -12.346528070475271 -14.078517031508108 18.0
    vertex -10.524769559544211 -13.71614673330477 0.0
    vertex -12.346528070475271 -14.078517031508108 0.0
  endloop
endfacet
facet normal -0.1950903220161279 0.9807852804032307 0.0
  outer loop
    vertex -10.524769559544211 -13.71614673330477 0.0
    vertex -12.346528070475271 -14.078517031508108 18.0
    vertex -10.524769559544211 -13.71614673330477 18.0
  endloop
endfacet
facet normal -0.32143946530316203 0.9469301294951055 0.0
  outer loop
    vertex -10.524769559544211 -13.71614673330477 18.0
    vertex -8.765895260415734 -13.119089361660274 0.0
    vertex -10.524769559544211 -13.71614673330477 0.0
  endloop
endfacet
facet normal -0.32143946530316203 0.9469301294951055 0.0
  outer loop
    vertex -8.765895260415734 -13.119089361660274 0.0
    vertex -10.524769559544211 -13.71614673330477 18.0
    vertex -8.765895260415734 -13.119089361660274 18.0
  endloop
endfacet
facet normal -0.44228869021899986 0.8968727415326891 0.0
  outer loop
    vertex -8.765895260415734 -13.119089361660274 18.0
    vertex -7.100000000000009 -12.297560733739035 0.0
    vertex -8.765895260415734 -13.119089361660274 0.0
  endloop
endfacet
facet normal -0.44228869021899986 0.8968727415326891 0.0
  outer loop
    vertex -7.100000000000009 -12.297560733739035 0.0
    vertex -8.765895260415734 -13.119089361660274 18.0
    vertex -7.100000000000009 -12.297560733739035 18.0
  endloop
endfacet
facet normal -0.5555702330196015 0.8314696123025459 0.0
  outer loop
    vertex -7.100000000000009 -12.297560733739035 18.0
    vertex -5.555587708076177 -11.265617432135548 0.0
    vertex -7.100000000000009 -12.297560733739035 0.0
  endloop
endfacet
facet normal -0.5555702330196015 0.8314696123025459 0.0
  outer loop
    vertex -5.555587708076177 -11.265617432135548 0.0
    vertex -7.100000000000009 -12.297560733739035 18.0
    vertex -5.555587708076177 -11.265617432135548 18.0
  endloop
endfacet
facet normal -0.6593458151000687 0.7518398074789777 0.0
  outer loop
    vertex -5.555587708076177 -11.265617432135548 18.0
    vertex -4.159083707151027 -10.040916292848976 0.0
    vertex -5.555587708076177 -11.265617432135548 0.0
  endloop
endfacet
facet normal -0.6593458151000687 0.7518398074789777 0.0
  outer loop
    vertex -4.159083707151027 -10.040916292848976 0.0
    vertex -5.555587708076177 -11.265617432135548 18.0
    vertex -4.159083707151027 -10.040916292848976 18.0
  endloop
endfacet
facet normal -0.7518398074789772 0.6593458151000693 0.0
  outer loop
    vertex -2.9343825678644637 -8.644412291923837 18.0
    vertex -4.159083707151027 -10.040916292848976 0.0
    vertex -4.159083707151027 -10.040916292848976 18.0
  endloop
endfacet
facet normal -0.7518398074789772 0.6593458151000693 0.0
  outer loop
    vertex -4.159083707151027 -10.040916292848976 0.0
    vertex -2.9343825678644637 -8.644412291923837 18.0
    vertex -2.9343825678644637 -8.644412291923837 0.0
  endloop
endfacet
facet normal -0.8314696123025453 0.5555702330196024 0.0
  outer loop
    vertex -1.9024392662609753 -7.100000000000005 18.0
    vertex -2.9343825678644637 -8.644412291923837 0.0
    vertex -2.9343825678644637 -8.644412291923837 18.0
  endloop
endfacet
facet normal -0.8314696123025453 0.5555702330196024 0.0
  outer loop
    vertex -2.9343825678644637 -8.644412291923837 0.0
    vertex -1.9024392662609753 -7.100000000000005 18.0
    vertex -1.9024392662609753 -7.100000000000005 0.0
  endloop
endfacet
facet normal -0.896872741532688 0.4422886902190022 0.0
  outer loop
    vertex -1.0809106383397318 -5.434104739584283 18.0
    vertex -1.9024392662609753 -7.100000000000005 0.0
    vertex -1.9024392662609753 -7.100000000000005 18.0
  endloop
endfacet
facet normal -0.896872741532688 0.4422886902190022 0.0
  outer loop
    vertex -1.9024392662609753 -7.100000000000005 0.0
    vertex -1.0809106383397318 -5.434104739584283 18.0
    vertex -1.0809106383397318 -5.434104739584283 0.0
  endloop
endfacet
facet normal -0.9469301294951057 0.321439465303162 0.0
  outer loop
    vertex -0.48385326669523426 -3.6752304404558056 18.0
    vertex -1.0809106383397318 -5.434104739584283 0.0
    vertex -1.0809106383397318 -5.434104739584283 18.0
  endloop
endfacet
facet normal -0.9469301294951057 0.321439465303162 0.0
  outer loop
    vertex -1.0809106383397318 -5.434104739584283 0.0
    vertex -0.48385326669523426 -3.6752304404558056 18.0
    vertex -0.48385326669523426 -3.6752304404558056 0.0
  endloop
endfacet
facet normal -0.9807852804032302 0.19509032201612955 0.0
  outer loop
    vertex -0.12148296849189423 -1.8534719295247466 18.0
    vertex -0.48385326669523426 -3.6752304404558056 0.0
    vertex -0.48385326669523426 -3.6752304404558056 18.0
  endloop
endfacet
facet normal -0.9807852804032302 0.19509032201612955 0.0
  outer loop
    vertex -0.48385326669523426 -3.6752304404558056 0.0
    vertex -0.12148296849189423 -1.8534719295247466 18.0
    vertex -0.12148296849189423 -1.8534719295247466 0.0
  endloop
endfacet
facet normal -0.9978589232386036 0.06540312923014369 0.0
  outer loop
    vertex 0.0 0.0 18.0
    vertex -0.12148296849189423 -1.8534719295247466 0.0
    vertex -0.12148296849189423 -1.8534719295247466 18.0
  endloop
endfacet
facet normal -0.9978589232386036 0.06540312923014369 0.0
  outer loop
    vertex -0.12148296849189423 -1.8534719295247466 0.0
    vertex 0.0 0.0 18.0
    vertex 0.0 0.0 0.0
  endloop
endfacet
facet normal 0.9978589232386037 0.0654031292301427 0.0
  outer loop
    vertex 0.0 0.0 0.0
    vertex 0.12148296849189141 -1.8534719295247317 18.0
    vertex 0.12148296849189141 -1.8534719295247317 0.0
  endloop
endfacet
facet normal 0.9978589232386037 0.0654031292301427 0.0
  outer loop
    vertex 0.12148296849189141 -1.8534719295247317 18.0
    vertex 0.0 0.0 0.0
    vertex 0.0 0.0 18.0
  endloop
endfacet
facet normal 0.9807852804032305 0.19509032201612778 0.0
  outer loop
    vertex 0.12148296849189141 -1.8534719295247317 0.0
    vertex 0.48385326669522866 -3.6752304404557936 18.0
    vertex 0.48385326669522866 -3.6752304404557936 0.0
  endloop
endfacet
facet normal 0.9807852804032305 0.19509032201612778 0.0
  outer loop
    vertex 0.48385326669522866 -3.6752304404557936 18.0
    vertex 0.12148296849189141 -1.8534719295247317 0.0
    vertex 0.12148296849189141 -1.8534719295247317 18.0
  endloop
endfacet
facet normal 0.9469301294951052 0.321439465303163 0.0
  outer loop
    vertex 0.48385326669522866 -3.6752304404557936 0.0
    vertex 1.0809106383397291 -5.434104739584273 18.0
    vertex 1.0809106383397291 -5.434104739584273 0.0
  endloop
endfacet
facet normal 0.9469301294951052 0.321439465303163 0.0
  outer loop
    vertex 1.0809106383397291 -5.434104739584273 18.0
    vertex 0.48385326669522866 -3.6752304404557936 0.0
    vertex 0.48385326669522866 -3.6752304404557936 18.0
  endloop
endfacet
facet normal 0.8968727415326887 0.4422886902190006 0.0
  outer loop
    vertex 1.0809106383397291 -5.434104739584273 0.0
    vertex 1.9024392662609697 -7.099999999999997 18.0
    vertex 1.9024392662609697 -7.099999999999997 0.0
  endloop
endfacet
facet normal 0.8968727415326887 0.4422886902190006 0.0
  outer loop
    vertex 1.9024392662609697 -7.099999999999997 18.0
    vertex 1.0809106383397291 -5.434104739584273 0.0
    vertex 1.0809106383397291 -5.434104739584273 18.0
  endloop
endfacet
facet normal 0.8314696123025456 0.555570233019602 0.0
  outer loop
    vertex 1.9024392662609697 -7.099999999999997 0.0
    vertex 2.934382567864458 -8.64441229192383 18.0
    vertex 2.934382567864458 -8.64441229192383 0.0
  endloop
endfacet
facet normal 0.8314696123025456 0.555570233019602 0.0
  outer loop
    vertex 2.934382567864458 -8.64441229192383 18.0
    vertex 1.9024392662609697 -7.099999999999997 0.0
    vertex 1.9024392662609697 -7.099999999999997 18.0
  endloop
endfacet
facet normal 0.7518398074789777 0.6593458151000685 0.0
  outer loop
    vertex 2.934382567864458 -8.64441229192383 0.0
    vertex 4.159083707151023 -10.040916292848973 18.0
    vertex 4.159083707151023 -10.040916292848973 0.0
  endloop
endfacet
facet normal 0.7518398074789777 0.6593458151000685 0.0
  outer loop
    vertex 4.159083707151023 -10.040916292848973 18.0
    vertex 2.934382567864458 -8.64441229192383 0.0
    vertex 2.934382567864458 -8.64441229192383 18.0
  endloop
endfacet
facet normal 0.6593458151000685 0.7518398074789778 0.0
  outer loop
    vertex 4.159083707151023 -10.040916292848973 18.0
    vertex 5.555587708076166 -11.265617432135537 0.0
    vertex 4.159083707151023 -10.040916292848973 0.0
  endloop
endfacet
facet normal 0.6593458151000685 0.7518398074789778 0.0
  outer loop
    vertex 5.555587708076166 -11.265617432135537 0.0
    vertex 4.159083707151023 -10.040916292848973 18.0
    vertex 5.555587708076166 -11.265617432135537 18.0
  endloop
endfacet
facet normal 0.5555702330196024 0.8314696123025453 0.0
  outer loop
    vertex 5.555587708076166 -11.265617432135537 18.0
    vertex 7.099999999999997 -12.297560733739026 0.0
    vertex 5.555587708076166 -11.265617432135537 0.0
  endloop
endfacet
facet normal 0.5555702330196024 0.8314696123025453 0.0
  outer loop
    vertex 7.099999999999997 -12.297560733739026 0.0
    vertex 5.555587708076166 -11.265617432135537 18.0
    vertex 7.099999999999997 -12.297560733739026 18.0
  endloop
endfacet
facet normal 0.44228869021900075 0.8968727415326886 0.0
  outer loop
    vertex 7.099999999999997 -12.297560733739026 18.0
    vertex 8.765895260415723 -13.119089361660267 0.0
    vertex 7.099999999999997 -12.297560733739026 0.0
  endloop
endfacet
facet normal 0.44228869021900075 0.8968727415326886 0.0
  outer loop
    vertex 8.765895260415723 -13.119089361660267 0.0
    vertex 7.099999999999997 -12.297560733739026 18.0
    vertex 8.765895260415723 -13.119089361660267 18.0
  endloop
endfacet
facet normal 0.32143946530316203 0.9469301294951055 0.0
  outer loop
    vertex 8.765895260415723 -13.119089361660267 18.0
    vertex 10.524769559544199 -13.716146733304765 0.0
    vertex 8.765895260415723 -13.119089361660267 0.0
  endloop
endfacet
facet normal 0.32143946530316203 0.9469301294951055 0.0
  outer loop
    vertex 10.524769559544199 -13.716146733304765 0.0
    vertex 8.765895260415723 -13.119089361660267 18.0
    vertex 10.524769559544199 -13.716146733304765 18.0
  endloop
endfacet
facet normal 0.19509032201612908 0.9807852804032304 0.0
  outer loop
    vertex 10.524769559544199 -13.716146733304765 18.0
    vertex 12.346528070475264 -14.078517031508104 0.0
    vertex 10.524769559544199 -13.716146733304765 0.0
  endloop
endfacet
facet normal 0.19509032201612908 0.9807852804032304 0.0
  outer loop
    vertex 12.346528070475264 -14.078517031508104 0.0
    vertex 10.524769559544199 -13.716146733304765 18.0
    vertex 12.346528070475264 -14.078517031508104 18.0
  endloop
endfacet
facet normal 0.06540312923014265 0.9978589232386036 0.0
  outer loop
    vertex 12.346528070475264 -14.078517031508104 18.0
    vertex 14.199999999999996 -14.199999999999996 0.0
    vertex 12.346528070475264 -14.078517031508104 0.0
  endloop
endfacet
facet normal 0.06540312923014265 0.9978589232386036 0.0
  outer loop
    vertex 14.199999999999996 -14.199999999999996 0.0
    vertex 12.346528070475264 -14.078517031508104 18.0
    vertex 14.199999999999996 -14.199999999999996 18.0
  endloop
endfacet
facet normal -0.06540312923014284 0.9978589232386036 0.0
  outer loop
    vertex 14.199999999999996 -14.199999999999996 18.0
    vertex 16.053471929524726 -14.078517031508104 0.0
    vertex 14.199999999999996 -14.199999999999996 0.0
  endloop
endfacet
facet normal -0.06540312923014284 0.9978589232386036 0.0
  outer loop
    vertex 16.053471929524726 -14.078517031508104 0.0
    vertex 14.199999999999996 -14.199999999999996 18.0
    vertex 16.053471929524726 -14.078517031508104 18.0
  endloop
endfacet
facet normal -0.1950903220161276 0.9807852804032308 0.0
  outer loop
    vertex 16.053471929524726 -14.078517031508104 18.0
    vertex 17.875230440455788 -13.716146733304768 0.0
    vertex 16.053471929524726 -14.078517031508104 0.0
  endloop
endfacet
facet normal -0.1950903220161276 0.9807852804032308 0.0
  outer loop
    vertex 17.875230440455788 -13.716146733304768 0.0
    vertex 16.053471929524726 -14.078517031508104 18.0
    vertex 17.875230440455788 -13.716146733304768 18.0
  endloop
endfacet
facet normal -0.32143946530316025 0.9469301294951061 0.0
  outer loop
    vertex 17.875230440455788 -13.716146733304768 18.0
    vertex 19.199999999999996 -13.26644806430493 0.0
    vertex 17.875230440455788 -13.716146733304768 0.0
  endloop
endfacet
facet normal -0.32143946530316025 0.9469301294951061 0.0
  outer loop
    vertex 19.199999999999996 -13.26644806430493 0.0
    vertex 17.875230440455788 -13.716146733304768 18.0
    vertex 19.199999999999996 -13.26644806430493 18.0
  endloop
endfacet
facet normal 1.0 0.0 0.0
  outer loop
    vertex 19.199999999999996 -13.26644806430493 0.0
    vertex 19.199999999999996 -22.5 18.0
    vertex 19.199999999999996 -22.5 0.0
  endloop
endfacet
facet normal 1.0 0.0 0.0
  outer loop
    vertex 19.199999999999996 -22.5 18.0
    vertex 19.199999999999996 -13.26644806430493 0.0
    vertex 19.199999999999996 -13.26644806430493 18.0
  endloop
endfacet
facet normal -0.0 -1.0 -0.0
  outer loop
    vertex 19.199999999999996 -22.5 18.0
    vertex -19.2 -22.5 0.0
    vertex 19.199999999999996 -22.5 0.0
  endloop
endfacet
facet normal -0.0 -1.0 -0.0
  outer loop
    vertex -19.2 -22.5 0.0
    vertex 19.199999999999996 -22.5 18.0
    vertex -19.2 -22.5 18.0
  endloop
endfacet
facet normal -1.0 0.0 0.0
  outer loop
    vertex -19.2 -13.26644806430493 18.0
    vertex -19.2 -22.5 0.0
    vertex -19.2 -22.5 18.0
  endloop
endfacet
facet normal -1.0 0.0 0.0
  outer loop
    vertex -19.2 -22.5 0.0
    vertex -19.2 -13.26644806430493 18.0
    vertex -19.2 -13.26644806430493 0.0
  endloop
endfacet
facet normal 0.32143946530316153 0.9469301294951057 0.0
  outer loop
    vertex -19.2 -13.26644806430493 18.0
    vertex -17.875230440455805 -13.716146733304765 0.0
    vertex -19.2 -13.26644806430493 0.0
  endloop
endfacet
facet normal 0.32143946530316153 0.9469301294951057 0.0
  outer loop
    vertex -17.875230440455805 -13.716146733304765 0.0
    vertex -19.2 -13.26644806430493 18.0
    vertex -17.875230440455805 -13.716146733304765 18.0
  endloop
endfacet
facet normal 0.19509032201612933 0.9807852804032302 0.0
  outer loop
    vertex -17.875230440455805 -13.716146733304765 18.0
    vertex -16.053471929524743 -14.078517031508104 0.0
    vertex -17.875230440455805 -13.716146733304765 0.0
  endloop
endfacet
facet normal 0.19509032201612933 0.9807852804032302 0.0
  outer loop
    vertex -16.053471929524743 -14.078517031508104 0.0
    vertex -17.875230440455805 -13.716146733304765 18.0
    vertex -16.053471929524743 -14.078517031508104 18.0
  endloop
endfacet
facet normal -0.13052619222005094 -0.9914448613738106 -0.0
  outer loop
    vertex 14.795283803735794 -15.278370599535142 18.0
    vertex 14.199999999999996 -15.200000000000001 0.0
    vertex 14.795283803735794 -15.278370599535142 0.0
  endloop
endfacet
facet normal -0.13052619222005094 -0.9914448613738106 -0.0
  outer loop
    vertex 14.199999999999996 -15.200000000000001 0.0
    vertex 14.795283803735794 -15.278370599535142 18.0
    vertex 14.199999999999996 -15.200000000000001 18.0
  endloop
endfacet
facet normal 0.13052619222005094 -0.9914448613738106 0.0
  outer loop
    vertex 14.199999999999996 -15.200000000000001 18.0
    vertex 13.6047161962642 -15.278370599535142 0.0
    vertex 14.199999999999996 -15.200000000000001 0.0
  endloop
endfacet
facet normal 0.13052619222005094 -0.9914448613738106 0.0
  outer loop
    vertex 13.6047161962642 -15.278370599535142 0.0
    vertex 14.199999999999996 -15.200000000000001 18.0
    vertex 13.6047161962642 -15.278370599535142 18.0
  endloop
endfacet
facet normal 0.3826834323650926 -0.9238795325112857 0.0
  outer loop
    vertex 13.6047161962642 -15.278370599535142 18.0
    vertex 13.049999999999999 -15.508141571295793 0.0
    vertex 13.6047161962642 -15.278370599535142 0.0
  endloop
endfacet
facet normal 0.3826834323650926 -0.9238795325112857 0.0
  outer loop
    vertex 13.049999999999999 -15.508141571295793 0.0
    vertex 13.6047161962642 -15.278370599535142 18.0
    vertex 13.049999999999999 -15.508141571295793 18.0
  endloop
endfacet
facet normal 0.6087614290087175 -0.7933533402912377 0.0
  outer loop
    vertex 13.049999999999999 -15.508141571295793 18.0
    vertex 12.573654403270938 -15.87365440327094 0.0
    vertex 13.049999999999999 -15.508141571295793 0.0
  endloop
endfacet
facet normal 0.6087614290087175 -0.7933533402912377 0.0
  outer loop
    vertex 12.573654403270938 -15.87365440327094 0.0
    vertex 13.049999999999999 -15.508141571295793 18.0
    vertex 12.573654403270938 -15.87365440327094 18.0
  endloop
endfacet
facet normal 0.7933533402912359 -0.6087614290087198 0.0
  outer loop
    vertex 12.573654403270938 -15.87365440327094 0.0
    vertex 12.20814157129579 -16.349999999999998 18.0
    vertex 12.20814157129579 -16.349999999999998 0.0
  endloop
endfacet
facet normal 0.7933533402912359 -0.6087614290087198 0.0
  outer loop
    vertex 12.20814157129579 -16.349999999999998 18.0
    vertex 12.573654403270938 -15.87365440327094 0.0
    vertex 12.573654403270938 -15.87365440327094 18.0
  endloop
endfacet
facet normal 0.9238795325112864 -0.3826834323650909 0.0
  outer loop
    vertex 12.20814157129579 -16.349999999999998 0.0
    vertex 11.97837059953514 -16.9047161962642 18.0
    vertex 11.97837059953514 -16.9047161962642 0.0
  endloop
endfacet
facet normal 0.9238795325112864 -0.3826834323650909 0.0
  outer loop
    vertex 11.97837059953514 -16.9047161962642 18.0
    vertex 12.20814157129579 -16.349999999999998 0.0
    vertex 12.20814157129579 -16.349999999999998 18.0
  endloop
endfacet
facet normal 0.9914448613738106 -0.13052619222005094 0.0
  outer loop
    vertex 11.97837059953514 -16.9047161962642 0.0
    vertex 11.899999999999999 -17.5 18.0
    vertex 11.899999999999999 -17.5 0.0
  endloop
endfacet
facet normal 0.9914448613738106 -0.13052619222005094 0.0
  outer loop
    vertex 11.899999999999999 -17.5 18.0
    vertex 11.97837059953514 -16.9047161962642 0.0
    vertex 11.97837059953514 -16.9047161962642 18.0
  endloop
endfacet
facet normal 0.9914448613738106 0.13052619222005094 0.0
  outer loop
    vertex 11.899999999999999 -17.5 0.0
    vertex 11.97837059953514 -18.095283803735796 18.0
    vertex 11.97837059953514 -18.095283803735796 0.0
  endloop
endfacet
facet normal 0.9914448613738106 0.13052619222005094 0.0
  outer loop
    vertex 11.97837059953514 -18.095283803735796 18.0
    vertex 11.899999999999999 -17.5 0.0
    vertex 11.899999999999999 -17.5 18.0
  endloop
endfacet
facet normal 0.9238795325112865 0.3826834323650906 0.0
  outer loop
    vertex 11.97837059953514 -18.095283803735796 0.0
    vertex 12.208141571295789 -18.65 18.0
    vertex 12.208141571295789 -18.65 0.0
  endloop
endfacet
facet normal 0.9238795325112865 0.3826834323650906 0.0
  outer loop
    vertex 12.208141571295789 -18.65 18.0
    vertex 11.97837059953514 -18.095283803735796 0.0
    vertex 11.97837059953514 -18.095283803735796 18.0
  endloop
endfacet
facet normal 0.7933533402912347 0.6087614290087212 0.0
  outer loop
    vertex 12.208141571295789 -18.65 0.0
    vertex 12.573654403270938 -19.126345596729056 18.0
    vertex 12.573654403270938 -19.126345596729056 0.0
  endloop
endfacet
facet normal 0.7933533402912347 0.6087614290087212 0.0
  outer loop
    vertex 12.573654403270938 -19.126345596729056 18.0
    vertex 12.208141571295789 -18.65 0.0
    vertex 12.208141571295789 -18.65 18.0
  endloop
endfacet
facet normal 0.6087614290087228 0.7933533402912337 0.0
  outer loop
    vertex 12.573654403270938 -19.126345596729056 18.0
    vertex 13.049999999999995 -19.491858428704205 0.0
    vertex 12.573654403270938 -19.126345596729056 0.0
  endloop
endfacet
facet normal 0.6087614290087228 0.7933533402912337 0.0
  outer loop
    vertex 13.049999999999995 -19.491858428704205 0.0
    vertex 12.573654403270938 -19.126345596729056 18.0
    vertex 13.049999999999995 -19.491858428704205 18.0
  endloop
endfacet
facet normal 0.3826834323650926 0.9238795325112857 0.0
  outer loop
    vertex 13.049999999999995 -19.491858428704205 18.0
    vertex 13.604716196264196 -19.721629400464856 0.0
    vertex 13.049999999999995 -19.491858428704205 0.0
  endloop
endfacet
facet normal 0.3826834323650926 0.9238795325112857 0.0
  outer loop
    vertex 13.604716196264196 -19.721629400464856 0.0
    vertex 13.049999999999995 -19.491858428704205 18.0
    vertex 13.604716196264196 -19.721629400464856 18.0
  endloop
endfacet
facet normal 0.13052619222005032 0.9914448613738106 0.0
  outer loop
    vertex 13.604716196264196 -19.721629400464856 18.0
    vertex 14.199999999999996 -19.799999999999997 0.0
    vertex 13.604716196264196 -19.721629400464856 0.0
  endloop
endfacet
facet normal 0.13052619222005032 0.9914448613738106 0.0
  outer loop
    vertex 14.199999999999996 -19.799999999999997 0.0
    vertex 13.604716196264196 -19.721629400464856 18.0
    vertex 14.199999999999996 -19.799999999999997 18.0
  endloop
endfacet
facet normal -0.13052619222005094 0.9914448613738106 0.0
  outer loop
    vertex 14.199999999999996 -19.799999999999997 18.0
    vertex 14.795283803735794 -19.721629400464856 0.0
    vertex 14.199999999999996 -19.799999999999997 0.0
  endloop
endfacet
facet normal -0.13052619222005094 0.9914448613738106 0.0
  outer loop
    vertex 14.795283803735794 -19.721629400464856 0.0
    vertex 14.199999999999996 -19.799999999999997 18.0
    vertex 14.795283803735794 -19.721629400464856 18.0
  endloop
endfacet
facet normal -0.3826834323650885 0.9238795325112873 0.0
  outer loop
    vertex 14.795283803735794 -19.721629400464856 18.0
    vertex 15.349999999999994 -19.49185842870421 0.0
    vertex 14.795283803735794 -19.721629400464856 0.0
  endloop
endfacet
facet normal -0.3826834323650885 0.9238795325112873 0.0
  outer loop
    vertex 15.349999999999994 -19.49185842870421 0.0
    vertex 14.795283803735794 -19.721629400464856 18.0
    vertex 15.349999999999994 -19.49185842870421 18.0
  endloop
endfacet
facet normal -0.6087614290087205 0.7933533402912354 0.0
  outer loop
    vertex 15.349999999999994 -19.49185842870421 18.0
    vertex 15.826345596729055 -19.126345596729056 0.0
    vertex 15.349999999999994 -19.49185842870421 0.0
  endloop
endfacet
facet normal -0.6087614290087205 0.7933533402912354 0.0
  outer loop
    vertex 15.826345596729055 -19.126345596729056 0.0
    vertex 15.349999999999994 -19.49185842870421 18.0
    vertex 15.826345596729055 -19.126345596729056 18.0
  endloop
endfacet
facet normal -0.7933533402912359 0.6087614290087198 0.0
  outer loop
    vertex 16.191858428704204 -18.65 18.0
    vertex 15.826345596729055 -19.126345596729056 0.0
    vertex 15.826345596729055 -19.126345596729056 18.0
  endloop
endfacet
facet normal -0.7933533402912359 0.6087614290087198 0.0
  outer loop
    vertex 15.826345596729055 -19.126345596729056 0.0
    vertex 16.191858428704204 -18.65 18.0
    vertex 16.191858428704204 -18.65 0.0
  endloop
endfacet
facet normal -0.9238795325112857 0.3826834323650926 0.0
  outer loop
    vertex 16.42162940046485 -18.0952838037358 18.0
    vertex 16.191858428704204 -18.65 0.0
    vertex 16.191858428704204 -18.65 18.0
  endloop
endfacet
facet normal -0.9238795325112857 0.3826834323650926 0.0
  outer loop
    vertex 16.191858428704204 -18.65 0.0
    vertex 16.42162940046485 -18.0952838037358 18.0
    vertex 16.42162940046485 -18.0952838037358 0.0
  endloop
endfacet
facet normal -0.9914448613738106 0.13052619222005032 0.0
  outer loop
    vertex 16.499999999999996 -17.5 18.0
    vertex 16.42162940046485 -18.0952838037358 0.0
    vertex 16.42162940046485 -18.0952838037358 18.0
  endloop
endfacet
facet normal -0.9914448613738106 0.13052619222005032 0.0
  outer loop
    vertex 16.42162940046485 -18.0952838037358 0.0
    vertex 16.499999999999996 -17.5 18.0
    vertex 16.499999999999996 -17.5 0.0
  endloop
endfacet
facet normal -0.9914448613738106 -0.13052619222005094 -0.0
  outer loop
    vertex 16.42162940046485 -16.9047161962642 18.0
    vertex 16.499999999999996 -17.5 0.0
    vertex 16.499999999999996 -17.5 18.0
  endloop
endfacet
facet normal -0.9914448613738106 -0.13052619222005094 -0.0
  outer loop
    vertex 16.499999999999996 -17.5 0.0
    vertex 16.42162940046485 -16.9047161962642 18.0
    vertex 16.42162940046485 -16.9047161962642 0.0
  endloop
endfacet
facet normal -0.9238795325112857 -0.3826834323650926 -0.0
  outer loop
    vertex 16.191858428704204 -16.35 18.0
    vertex 16.42162940046485 -16.9047161962642 0.0
    vertex 16.42162940046485 -16.9047161962642 18.0
  endloop
endfacet
facet normal -0.9238795325112857 -0.3826834323650926 -0.0
  outer loop
    vertex 16.42162940046485 -16.9047161962642 0.0
    vertex 16.191858428704204 -16.35 18.0
    vertex 16.191858428704204 -16.35 0.0
  endloop
endfacet
facet normal -0.7933533402912377 -0.6087614290087175 -0.0
  outer loop
    vertex 15.826345596729055 -15.87365440327094 18.0
    vertex 16.191858428704204 -16.35 0.0
    vertex 16.191858428704204 -16.35 18.0
  endloop
endfacet
facet normal -0.7933533402912377 -0.6087614290087175 -0.0
  outer loop
    vertex 16.191858428704204 -16.35 0.0
    vertex 15.826345596729055 -15.87365440327094 18.0
    vertex 15.826345596729055 -15.87365440327094 0.0
  endloop
endfacet
facet normal -0.6087614290087198 -0.7933533402912359 -0.0
  outer loop
    vertex 15.826345596729055 -15.87365440327094 18.0
    vertex 15.349999999999998 -15.508141571295793 0.0
    vertex 15.826345596729055 -15.87365440327094 0.0
  endloop
endfacet
facet normal -0.6087614290087198 -0.7933533402912359 -0.0
  outer loop
    vertex 15.349999999999998 -15.508141571295793 0.0
    vertex 15.826345596729055 -15.87365440327094 18.0
    vertex 15.349999999999998 -15.508141571295793 18.0
  endloop
endfacet
facet normal -0.3826834323650909 -0.9238795325112864 -0.0
  outer loop
    vertex 15.349999999999998 -15.508141571295793 18.0
    vertex 14.795283803735794 -15.278370599535142 0.0
    vertex 15.349999999999998 -15.508141571295793 0.0
  endloop
endfacet
facet normal -0.3826834323650909 -0.9238795325112864 -0.0
  outer loop
    vertex 14.795283803735794 -15.278370599535142 0.0
    vertex 15.349999999999998 -15.508141571295793 18.0
    vertex 14.795283803735794 -15.278370599535142 18.0
  endloop
endfacet
facet normal -0.13052619222005094 -0.9914448613738106 -0.0
  outer loop
    vertex -13.604716196264203 -15.278370599535142 18.0
    vertex -14.2 -15.200000000000001 0.0
    vertex -13.604716196264203 -15.278370599535142 0.0
  endloop
endfacet
facet normal -0.13052619222005094 -0.9914448613738106 -0.0
  outer loop
    vertex -14.2 -15.200000000000001 0.0
    vertex -13.604716196264203 -15.278370599535142 18.0
    vertex -14.2 -15.200000000000001 18.0
  endloop
endfacet
facet normal 0.13052619222005094 -0.9914448613738106 0.0
  outer loop
    vertex -14.2 -15.200000000000001 18.0
    vertex -14.795283803735797 -15.278370599535142 0.0
    vertex -14.2 -15.200000000000001 0.0
  endloop
endfacet
facet normal 0.13052619222005094 -0.9914448613738106 0.0
  outer loop
    vertex -14.795283803735797 -15.278370599535142 0.0
    vertex -14.2 -15.200000000000001 18.0
    vertex -14.795283803735797 -15.278370599535142 18.0
  endloop
endfacet
facet normal 0.3826834323650926 -0.9238795325112857 0.0
  outer loop
    vertex -14.795283803735797 -15.278370599535142 18.0
    vertex -15.349999999999998 -15.508141571295793 0.0
    vertex -14.795283803735797 -15.278370599535142 0.0
  endloop
endfacet
facet normal 0.3826834323650926 -0.9238795325112857 0.0
  outer loop
    vertex -15.349999999999998 -15.508141571295793 0.0
    vertex -14.795283803735797 -15.278370599535142 18.0
    vertex -15.349999999999998 -15.508141571295793 18.0
  endloop
endfacet
facet normal 0.6087614290087175 -0.7933533402912377 0.0
  outer loop
    vertex -15.349999999999998 -15.508141571295793 18.0
    vertex -15.826345596729059 -15.87365440327094 0.0
    vertex -15.349999999999998 -15.508141571295793 0.0
  endloop
endfacet
facet normal 0.6087614290087175 -0.7933533402912377 0.0
  outer loop
    vertex -15.826345596729059 -15.87365440327094 0.0
    vertex -15.349999999999998 -15.508141571295793 18.0
    vertex -15.826345596729059 -15.87365440327094 18.0
  endloop
endfacet
facet normal 0.7933533402912359 -0.6087614290087198 0.0
  outer loop
    vertex -15.826345596729059 -15.87365440327094 0.0
    vertex -16.191858428704204 -16.349999999999998 18.0
    vertex -16.191858428704204 -16.349999999999998 0.0
  endloop
endfacet
facet normal 0.7933533402912359 -0.6087614290087198 0.0
  outer loop
    vertex -16.191858428704204 -16.349999999999998 18.0
    vertex -15.826345596729059 -15.87365440327094 0.0
    vertex -15.826345596729059 -15.87365440327094 18.0
  endloop
endfacet
facet normal 0.9238795325112864 -0.3826834323650909 0.0
  outer loop
    vertex -16.191858428704204 -16.349999999999998 0.0
    vertex -16.421629400464855 -16.9047161962642 18.0
    vertex -16.421629400464855 -16.9047161962642 0.0
  endloop
endfacet
facet normal 0.9238795325112864 -0.3826834323650909 0.0
  outer loop
    vertex -16.421629400464855 -16.9047161962642 18.0
    vertex -16.191858428704204 -16.349999999999998 0.0
    vertex -16.191858428704204 -16.349999999999998 18.0
  endloop
endfacet
facet normal 0.9914448613738106 -0.13052619222005094 0.0
  outer loop
    vertex -16.421629400464855 -16.9047161962642 0.0
    vertex -16.499999999999996 -17.5 18.0
    vertex -16.499999999999996 -17.5 0.0
  endloop
endfacet
facet normal 0.9914448613738106 -0.13052619222005094 0.0
  outer loop
    vertex -16.499999999999996 -17.5 18.0
    vertex -16.421629400464855 -16.9047161962642 0.0
    vertex -16.421629400464855 -16.9047161962642 18.0
  endloop
endfacet
facet normal 0.9914448613738106 0.13052619222005094 0.0
  outer loop
    vertex -16.499999999999996 -17.5 0.0
    vertex -16.421629400464855 -18.095283803735796 18.0
    vertex -16.421629400464855 -18.095283803735796 0.0
  endloop
endfacet
facet normal 0.9914448613738106 0.13052619222005094 0.0
  outer loop
    vertex -16.421629400464855 -18.095283803735796 18.0
    vertex -16.499999999999996 -17.5 0.0
    vertex -16.499999999999996 -17.5 18.0
  endloop
endfacet
facet normal 0.9238795325112857 0.3826834323650926 0.0
  outer loop
    vertex -16.421629400464855 -18.095283803735796 0.0
    vertex -16.191858428704204 -18.65 18.0
    vertex -16.191858428704204 -18.65 0.0
  endloop
endfacet
facet normal 0.9238795325112857 0.3826834323650926 0.0
  outer loop
    vertex -16.191858428704204 -18.65 18.0
    vertex -16.421629400464855 -18.095283803735796 0.0
    vertex -16.421629400464855 -18.095283803735796 18.0
  endloop
endfacet
facet normal 0.7933533402912359 0.6087614290087198 0.0
  outer loop
    vertex -16.191858428704204 -18.65 0.0
    vertex -15.826345596729059 -19.126345596729056 18.0
    vertex -15.826345596729059 -19.126345596729056 0.0
  endloop
endfacet
facet normal 0.7933533402912359 0.6087614290087198 0.0
  outer loop
    vertex -15.826345596729059 -19.126345596729056 18.0
    vertex -16.191858428704204 -18.65 0.0
    vertex -16.191858428704204 -18.65 18.0
  endloop
endfacet
facet normal 0.6087614290087228 0.7933533402912337 0.0
  outer loop
    vertex -15.826345596729059 -19.126345596729056 18.0
    vertex -15.35 -19.491858428704205 0.0
    vertex -15.826345596729059 -19.126345596729056 0.0
  endloop
endfacet
facet normal 0.6087614290087228 0.7933533402912337 0.0
  outer loop
    vertex -15.35 -19.491858428704205 0.0
    vertex -15.826345596729059 -19.126345596729056 18.0
    vertex -15.35 -19.491858428704205 18.0
  endloop
endfacet
facet normal 0.3826834323650926 0.9238795325112857 0.0
  outer loop
    vertex -15.35 -19.491858428704205 18.0
    vertex -14.7952838037358 -19.721629400464856 0.0
    vertex -15.35 -19.491858428704205 0.0
  endloop
endfacet
facet normal 0.3826834323650926 0.9238795325112857 0.0
  outer loop
    vertex -14.7952838037358 -19.721629400464856 0.0
    vertex -15.35 -19.491858428704205 18.0
    vertex -14.7952838037358 -19.721629400464856 18.0
  endloop
endfacet
facet normal 0.13052619222005032 0.9914448613738106 0.0
  outer loop
    vertex -14.7952838037358 -19.721629400464856 18.0
    vertex -14.2 -19.799999999999997 0.0
    vertex -14.7952838037358 -19.721629400464856 0.0
  endloop
endfacet
facet normal 0.13052619222005032 0.9914448613738106 0.0
  outer loop
    vertex -14.2 -19.799999999999997 0.0
    vertex -14.7952838037358 -19.721629400464856 18.0
    vertex -14.2 -19.799999999999997 18.0
  endloop
endfacet
facet normal -0.13052619222005094 0.9914448613738106 0.0
  outer loop
    vertex -14.2 -19.799999999999997 18.0
    vertex -13.604716196264203 -19.721629400464856 0.0
    vertex -14.2 -19.799999999999997 0.0
  endloop
endfacet
facet normal -0.13052619222005094 0.9914448613738106 0.0
  outer loop
    vertex -13.604716196264203 -19.721629400464856 0.0
    vertex -14.2 -19.799999999999997 18.0
    vertex -13.604716196264203 -19.721629400464856 18.0
  endloop
endfacet
facet normal -0.3826834323650885 0.9238795325112873 0.0
  outer loop
    vertex -13.604716196264203 -19.721629400464856 18.0
    vertex -13.05 -19.49185842870421 0.0
    vertex -13.604716196264203 -19.721629400464856 0.0
  endloop
endfacet
facet normal -0.3826834323650885 0.9238795325112873 0.0
  outer loop
    vertex -13.05 -19.49185842870421 0.0
    vertex -13.604716196264203 -19.721629400464856 18.0
    vertex -13.05 -19.49185842870421 18.0
  endloop
endfacet
facet normal -0.6087614290087217 0.7933533402912345 0.0
  outer loop
    vertex -13.05 -19.49185842870421 18.0
    vertex -12.573654403270941 -19.126345596729056 0.0
    vertex -13.05 -19.49185842870421 0.0
  endloop
endfacet
facet normal -0.6087614290087217 0.7933533402912345 0.0
  outer loop
    vertex -12.573654403270941 -19.126345596729056 0.0
    vertex -13.05 -19.49185842870421 18.0
    vertex -12.573654403270941 -19.126345596729056 18.0
  endloop
endfacet
facet normal -0.7933533402912347 0.6087614290087212 0.0
  outer loop
    vertex -12.208141571295792 -18.65 18.0
    vertex -12.573654403270941 -19.126345596729056 0.0
    vertex -12.573654403270941 -19.126345596729056 18.0
  endloop
endfacet
facet normal -0.7933533402912347 0.6087614290087212 0.0
  outer loop
    vertex -12.573654403270941 -19.126345596729056 0.0
    vertex -12.208141571295792 -18.65 18.0
    vertex -12.208141571295792 -18.65 0.0
  endloop
endfacet
facet normal -0.9238795325112857 0.3826834323650926 0.0
  outer loop
    vertex -11.978370599535143 -18.0952838037358 18.0
    vertex -12.208141571295792 -18.65 0.0
    vertex -12.208141571295792 -18.65 18.0
  endloop
endfacet
facet normal -0.9238795325112857 0.3826834323650926 0.0
  outer loop
    vertex -12.208141571295792 -18.65 0.0
    vertex -11.978370599535143 -18.0952838037358 18.0
    vertex -11.978370599535143 -18.0952838037358 0.0
  endloop
endfacet
facet normal -0.9914448613738106 0.13052619222005032 0.0
  outer loop
    vertex -11.9 -17.5 18.0
    vertex -11.978370599535143 -18.0952838037358 0.0
    vertex -11.978370599535143 -18.0952838037358 18.0
  endloop
endfacet
facet normal -0.9914448613738106 0.13052619222005032 0.0
  outer loop
    vertex -11.978370599535143 -18.0952838037358 0.0
    vertex -11.9 -17.5 18.0
    vertex -11.9 -17.5 0.0
  endloop
endfacet
facet normal -0.9914448613738106 -0.13052619222005094 -0.0
  outer loop
    vertex -11.978370599535143 -16.9047161962642 18.0
    vertex -11.9 -17.5 0.0
    vertex -11.9 -17.5 18.0
  endloop
endfacet
facet normal -0.9914448613738106 -0.13052619222005094 -0.0
  outer loop
    vertex -11.9 -17.5 0.0
    vertex -11.978370599535143 -16.9047161962642 18.0
    vertex -11.978370599535143 -16.9047161962642 0.0
  endloop
endfacet
facet normal -0.9238795325112865 -0.3826834323650906 -0.0
  outer loop
    vertex -12.20814157129579 -16.35 18.0
    vertex -11.978370599535143 -16.9047161962642 0.0
    vertex -11.978370599535143 -16.9047161962642 18.0
  endloop
endfacet
facet normal -0.9238795325112865 -0.3826834323650906 -0.0
  outer loop
    vertex -11.978370599535143 -16.9047161962642 0.0
    vertex -12.20814157129579 -16.35 18.0
    vertex -12.20814157129579 -16.35 0.0
  endloop
endfacet
facet normal -0.7933533402912364 -0.608761429008719 -0.0
  outer loop
    vertex -12.57365440327094 -15.87365440327094 18.0
    vertex -12.20814157129579 -16.35 0.0
    vertex -12.20814157129579 -16.35 18.0
  endloop
endfacet
facet normal -0.7933533402912364 -0.608761429008719 -0.0
  outer loop
    vertex -12.20814157129579 -16.35 0.0
    vertex -12.57365440327094 -15.87365440327094 18.0
    vertex -12.57365440327094 -15.87365440327094 0.0
  endloop
endfacet
facet normal -0.6087614290087198 -0.7933533402912359 -0.0
  outer loop
    vertex -12.57365440327094 -15.87365440327094 18.0
    vertex -13.049999999999999 -15.508141571295793 0.0
    vertex -12.57365440327094 -15.87365440327094 0.0
  endloop
endfacet
facet normal -0.6087614290087198 -0.7933533402912359 -0.0
  outer loop
    vertex -13.049999999999999 -15.508141571295793 0.0
    vertex -12.57365440327094 -15.87365440327094 18.0
    vertex -13.049999999999999 -15.508141571295793 18.0
  endloop
endfacet
facet normal -0.3826834323650909 -0.9238795325112864 -0.0
  outer loop
    vertex -13.049999999999999 -15.508141571295793 18.0
    vertex -13.604716196264203 -15.278370599535142 0.0
    vertex -13.049999999999999 -15.508141571295793 0.0
  endloop
endfacet
facet normal -0.3826834323650909 -0.9238795325112864 -0.0
  outer loop
    vertex -13.604716196264203 -15.278370599535142 0.0
    vertex -13.049999999999999 -15.508141571295793 18.0
    vertex -13.604716196264203 -15.278370599535142 18.0
  endloop
endfacet
endsolid XYMotorTie
